<mxfile host="www.draw.io" modified="2019-11-15T14:43:51.736Z" agent="Mozilla/5.0 (Windows NT 10.0; Win64; x64) AppleWebKit/537.36 (KHTML, like Gecko) Chrome/78.0.3904.87 Safari/537.36" etag="ZXlXx5MSRGBQOywa-zZm" version="12.2.3" type="github" pages="6">
  <diagram name="Page-1" id="58cdce13-f638-feb5-8d6f-7d28b1aa9fa0">
    <mxGraphModel dx="2370" dy="1270" grid="1" gridSize="10" guides="1" tooltips="1" connect="1" arrows="1" fold="1" page="1" pageScale="1" pageWidth="1100" pageHeight="850" background="#ffffff" math="0" shadow="0">
      <root>
        <mxCell id="0"/>
        <mxCell id="1" parent="0"/>
        <mxCell id="VZ0pMEU6_JE_VZrrwxU3-18" value="Know Your Customer" style="whiteSpace=wrap;html=1;comic=1;labelPosition=center;verticalLabelPosition=top;align=center;verticalAlign=bottom;" vertex="1" parent="1">
          <mxGeometry x="645" y="483" width="455" height="227" as="geometry"/>
        </mxCell>
        <mxCell id="WaT9J8ldT_27_ol-54Zy-13" style="edgeStyle=orthogonalEdgeStyle;rounded=0;orthogonalLoop=1;jettySize=auto;html=1;entryX=0;entryY=0.75;entryDx=0;entryDy=0;entryPerimeter=0;" edge="1" parent="1" source="WaT9J8ldT_27_ol-54Zy-2" target="WaT9J8ldT_27_ol-54Zy-11">
          <mxGeometry relative="1" as="geometry"/>
        </mxCell>
        <mxCell id="WaT9J8ldT_27_ol-54Zy-14" style="edgeStyle=orthogonalEdgeStyle;rounded=0;orthogonalLoop=1;jettySize=auto;html=1;entryX=0;entryY=0.5;entryDx=0;entryDy=0;entryPerimeter=0;" edge="1" parent="1" source="WaT9J8ldT_27_ol-54Zy-2" target="WaT9J8ldT_27_ol-54Zy-12">
          <mxGeometry relative="1" as="geometry"/>
        </mxCell>
        <mxCell id="WaT9J8ldT_27_ol-54Zy-16" style="edgeStyle=orthogonalEdgeStyle;rounded=0;orthogonalLoop=1;jettySize=auto;html=1;entryX=0;entryY=0.5;entryDx=0;entryDy=0;entryPerimeter=0;" edge="1" parent="1" source="WaT9J8ldT_27_ol-54Zy-2" target="WaT9J8ldT_27_ol-54Zy-15">
          <mxGeometry relative="1" as="geometry"/>
        </mxCell>
        <mxCell id="WaT9J8ldT_27_ol-54Zy-2" value="Customer prepares to&lt;br&gt;register to&amp;nbsp;consume&lt;br&gt;Parexel services" style="html=1;outlineConnect=0;whiteSpace=wrap;fillColor=#99ffff;shape=mxgraph.archimate3.event;" vertex="1" parent="1">
          <mxGeometry x="450" y="140" width="170" height="55" as="geometry"/>
        </mxCell>
        <mxCell id="WaT9J8ldT_27_ol-54Zy-9" style="edgeStyle=orthogonalEdgeStyle;rounded=0;orthogonalLoop=1;jettySize=auto;html=1;entryX=0;entryY=0.5;entryDx=0;entryDy=0;entryPerimeter=0;" edge="1" parent="1" source="WaT9J8ldT_27_ol-54Zy-7" target="WaT9J8ldT_27_ol-54Zy-20">
          <mxGeometry relative="1" as="geometry">
            <Array as="points">
              <mxPoint x="220" y="168"/>
              <mxPoint x="220" y="168"/>
            </Array>
          </mxGeometry>
        </mxCell>
        <mxCell id="WaT9J8ldT_27_ol-54Zy-7" value="New Enterprise Actor" style="html=1;outlineConnect=0;whiteSpace=wrap;fillColor=#ffff99;shape=mxgraph.archimate3.application;appType=actor;archiType=square;" vertex="1" parent="1">
          <mxGeometry x="20" y="130" width="150" height="75" as="geometry"/>
        </mxCell>
        <mxCell id="VZ0pMEU6_JE_VZrrwxU3-5" style="edgeStyle=orthogonalEdgeStyle;rounded=0;orthogonalLoop=1;jettySize=auto;html=1;" edge="1" parent="1" source="WaT9J8ldT_27_ol-54Zy-8" target="VZ0pMEU6_JE_VZrrwxU3-3">
          <mxGeometry relative="1" as="geometry"/>
        </mxCell>
        <mxCell id="WaT9J8ldT_27_ol-54Zy-8" value="Individual Actor" style="html=1;outlineConnect=0;whiteSpace=wrap;fillColor=#ffff99;shape=mxgraph.archimate3.application;appType=actor;archiType=square;" vertex="1" parent="1">
          <mxGeometry x="30" y="700" width="150" height="75" as="geometry"/>
        </mxCell>
        <mxCell id="WaT9J8ldT_27_ol-54Zy-11" value="Business Interface&lt;br&gt;Standard Guidance&lt;br&gt;Consuming Services&lt;br&gt;Azure authentication" style="html=1;outlineConnect=0;whiteSpace=wrap;fillColor=#ffff99;shape=mxgraph.archimate3.application;appType=interface;archiType=square;" vertex="1" parent="1">
          <mxGeometry x="700" y="40" width="150" height="75" as="geometry"/>
        </mxCell>
        <mxCell id="WaT9J8ldT_27_ol-54Zy-12" value="Business Interface&lt;br&gt;terms conditions&amp;nbsp;&lt;br&gt;service agreements" style="html=1;outlineConnect=0;whiteSpace=wrap;fillColor=#ffff99;shape=mxgraph.archimate3.application;appType=interface;archiType=square;" vertex="1" parent="1">
          <mxGeometry x="700" y="130" width="150" height="75" as="geometry"/>
        </mxCell>
        <mxCell id="WaT9J8ldT_27_ol-54Zy-15" value="Contract for authentication services" style="html=1;outlineConnect=0;whiteSpace=wrap;fillColor=#ffff99;shape=mxgraph.archimate3.contract;" vertex="1" parent="1">
          <mxGeometry x="700" y="227" width="150" height="75" as="geometry"/>
        </mxCell>
        <mxCell id="VZ0pMEU6_JE_VZrrwxU3-26" style="edgeStyle=orthogonalEdgeStyle;rounded=0;orthogonalLoop=1;jettySize=auto;html=1;entryX=0;entryY=0.75;entryDx=0;entryDy=0;entryPerimeter=0;" edge="1" parent="1" source="WaT9J8ldT_27_ol-54Zy-17" target="VZ0pMEU6_JE_VZrrwxU3-16">
          <mxGeometry relative="1" as="geometry"/>
        </mxCell>
        <mxCell id="WaT9J8ldT_27_ol-54Zy-17" value="Customer registers&amp;nbsp;&lt;br&gt;Tenant for Parexel&lt;br&gt;Services" style="html=1;outlineConnect=0;whiteSpace=wrap;fillColor=#99ffff;shape=mxgraph.archimate3.event;" vertex="1" parent="1">
          <mxGeometry x="260" y="470" width="170" height="55" as="geometry"/>
        </mxCell>
        <mxCell id="WaT9J8ldT_27_ol-54Zy-27" style="edgeStyle=orthogonalEdgeStyle;rounded=0;orthogonalLoop=1;jettySize=auto;html=1;entryX=0;entryY=0;entryDx=27.5;entryDy=27.5;entryPerimeter=0;" edge="1" parent="1" source="WaT9J8ldT_27_ol-54Zy-20" target="WaT9J8ldT_27_ol-54Zy-2">
          <mxGeometry relative="1" as="geometry"/>
        </mxCell>
        <mxCell id="WaT9J8ldT_27_ol-54Zy-30" style="edgeStyle=orthogonalEdgeStyle;rounded=0;orthogonalLoop=1;jettySize=auto;html=1;entryX=0;entryY=0.5;entryDx=0;entryDy=0;entryPerimeter=0;" edge="1" parent="1" source="WaT9J8ldT_27_ol-54Zy-20" target="WaT9J8ldT_27_ol-54Zy-28">
          <mxGeometry relative="1" as="geometry">
            <Array as="points">
              <mxPoint x="330" y="398"/>
            </Array>
          </mxGeometry>
        </mxCell>
        <mxCell id="hE2dEJookT6RvtVeQYs--1" style="edgeStyle=orthogonalEdgeStyle;rounded=0;orthogonalLoop=1;jettySize=auto;html=1;" edge="1" parent="1" source="WaT9J8ldT_27_ol-54Zy-20" target="WaT9J8ldT_27_ol-54Zy-17">
          <mxGeometry relative="1" as="geometry">
            <mxPoint x="300" y="370" as="targetPoint"/>
            <Array as="points">
              <mxPoint x="315" y="370"/>
              <mxPoint x="315" y="370"/>
            </Array>
          </mxGeometry>
        </mxCell>
        <mxCell id="WaT9J8ldT_27_ol-54Zy-20" value="Customer on-Boarding" style="html=1;outlineConnect=0;whiteSpace=wrap;fillColor=#ffff99;shape=mxgraph.archimate3.application;appType=serv;archiType=rounded;" vertex="1" parent="1">
          <mxGeometry x="240" y="130" width="150" height="75" as="geometry"/>
        </mxCell>
        <mxCell id="WaT9J8ldT_27_ol-54Zy-21" value="Parexel end user" style="html=1;outlineConnect=0;whiteSpace=wrap;fillColor=#ffff99;shape=mxgraph.archimate3.application;appType=actor;archiType=square;" vertex="1" parent="1">
          <mxGeometry x="30" y="940" width="150" height="75" as="geometry"/>
        </mxCell>
        <mxCell id="WaT9J8ldT_27_ol-54Zy-22" value="Parexel support" style="html=1;outlineConnect=0;whiteSpace=wrap;fillColor=#ffff99;shape=mxgraph.archimate3.application;appType=actor;archiType=square;" vertex="1" parent="1">
          <mxGeometry x="30" y="1040" width="150" height="75" as="geometry"/>
        </mxCell>
        <mxCell id="VZ0pMEU6_JE_VZrrwxU3-8" style="edgeStyle=orthogonalEdgeStyle;rounded=0;orthogonalLoop=1;jettySize=auto;html=1;exitX=1;exitY=0.5;exitDx=0;exitDy=0;exitPerimeter=0;entryX=0;entryY=0.5;entryDx=0;entryDy=0;entryPerimeter=0;" edge="1" parent="1" source="WaT9J8ldT_27_ol-54Zy-23" target="WaT9J8ldT_27_ol-54Zy-24">
          <mxGeometry relative="1" as="geometry"/>
        </mxCell>
        <mxCell id="WaT9J8ldT_27_ol-54Zy-23" value="Application team" style="html=1;outlineConnect=0;whiteSpace=wrap;fillColor=#ffff99;shape=mxgraph.archimate3.application;appType=actor;archiType=square;" vertex="1" parent="1">
          <mxGeometry x="30" y="800" width="150" height="75" as="geometry"/>
        </mxCell>
        <mxCell id="VZ0pMEU6_JE_VZrrwxU3-9" style="edgeStyle=orthogonalEdgeStyle;rounded=0;orthogonalLoop=1;jettySize=auto;html=1;exitX=1;exitY=0.5;exitDx=0;exitDy=0;exitPerimeter=0;entryX=0;entryY=0;entryDx=27.5;entryDy=27.5;entryPerimeter=0;" edge="1" parent="1" source="WaT9J8ldT_27_ol-54Zy-24" target="VZ0pMEU6_JE_VZrrwxU3-7">
          <mxGeometry relative="1" as="geometry"/>
        </mxCell>
        <mxCell id="WaT9J8ldT_27_ol-54Zy-24" value="Application on-Boarding" style="html=1;outlineConnect=0;whiteSpace=wrap;fillColor=#ffff99;shape=mxgraph.archimate3.application;appType=serv;archiType=rounded;" vertex="1" parent="1">
          <mxGeometry x="240" y="800" width="150" height="75" as="geometry"/>
        </mxCell>
        <mxCell id="WaT9J8ldT_27_ol-54Zy-25" value="Application on-Boarding" style="html=1;outlineConnect=0;whiteSpace=wrap;fillColor=#ffff99;shape=mxgraph.archimate3.application;appType=serv;archiType=rounded;" vertex="1" parent="1">
          <mxGeometry x="240" y="1040" width="150" height="75" as="geometry"/>
        </mxCell>
        <mxCell id="WaT9J8ldT_27_ol-54Zy-26" value="Application on-Boarding" style="html=1;outlineConnect=0;whiteSpace=wrap;fillColor=#ffff99;shape=mxgraph.archimate3.application;appType=serv;archiType=rounded;" vertex="1" parent="1">
          <mxGeometry x="240" y="940" width="150" height="75" as="geometry"/>
        </mxCell>
        <mxCell id="VZ0pMEU6_JE_VZrrwxU3-24" style="edgeStyle=orthogonalEdgeStyle;rounded=0;orthogonalLoop=1;jettySize=auto;html=1;entryX=0;entryY=0.5;entryDx=0;entryDy=0;entryPerimeter=0;" edge="1" parent="1" source="WaT9J8ldT_27_ol-54Zy-28" target="VZ0pMEU6_JE_VZrrwxU3-16">
          <mxGeometry relative="1" as="geometry"/>
        </mxCell>
        <mxCell id="WaT9J8ldT_27_ol-54Zy-28" value="Business process&amp;nbsp;&lt;br&gt;On-board Customer" style="html=1;outlineConnect=0;whiteSpace=wrap;fillColor=#ffff99;shape=mxgraph.archimate3.application;appType=proc;archiType=rounded;" vertex="1" parent="1">
          <mxGeometry x="610" y="360" width="150" height="75" as="geometry"/>
        </mxCell>
        <mxCell id="hE2dEJookT6RvtVeQYs--3" style="edgeStyle=orthogonalEdgeStyle;rounded=0;orthogonalLoop=1;jettySize=auto;html=1;entryX=0;entryY=0.75;entryDx=0;entryDy=0;entryPerimeter=0;" edge="1" parent="1" source="hE2dEJookT6RvtVeQYs--2" target="WaT9J8ldT_27_ol-54Zy-20">
          <mxGeometry relative="1" as="geometry"/>
        </mxCell>
        <mxCell id="VZ0pMEU6_JE_VZrrwxU3-2" style="edgeStyle=orthogonalEdgeStyle;rounded=0;orthogonalLoop=1;jettySize=auto;html=1;exitX=1;exitY=0.5;exitDx=0;exitDy=0;exitPerimeter=0;entryX=0;entryY=0.5;entryDx=0;entryDy=0;entryPerimeter=0;" edge="1" parent="1" source="hE2dEJookT6RvtVeQYs--2" target="VZ0pMEU6_JE_VZrrwxU3-1">
          <mxGeometry relative="1" as="geometry"/>
        </mxCell>
        <mxCell id="VZ0pMEU6_JE_VZrrwxU3-4" style="edgeStyle=orthogonalEdgeStyle;rounded=0;orthogonalLoop=1;jettySize=auto;html=1;entryX=0;entryY=0;entryDx=27.5;entryDy=27.5;entryPerimeter=0;" edge="1" parent="1" source="hE2dEJookT6RvtVeQYs--2" target="WaT9J8ldT_27_ol-54Zy-17">
          <mxGeometry relative="1" as="geometry">
            <Array as="points">
              <mxPoint x="240" y="308"/>
              <mxPoint x="240" y="498"/>
            </Array>
          </mxGeometry>
        </mxCell>
        <mxCell id="hE2dEJookT6RvtVeQYs--2" value="&amp;nbsp;Existing Enterprise Actor" style="html=1;outlineConnect=0;whiteSpace=wrap;fillColor=#ffff99;shape=mxgraph.archimate3.application;appType=actor;archiType=square;" vertex="1" parent="1">
          <mxGeometry x="20" y="270" width="150" height="75" as="geometry"/>
        </mxCell>
        <mxCell id="VZ0pMEU6_JE_VZrrwxU3-6" style="edgeStyle=orthogonalEdgeStyle;rounded=0;orthogonalLoop=1;jettySize=auto;html=1;entryX=0;entryY=0;entryDx=27.5;entryDy=27.5;entryPerimeter=0;" edge="1" parent="1" source="VZ0pMEU6_JE_VZrrwxU3-1" target="VZ0pMEU6_JE_VZrrwxU3-3">
          <mxGeometry relative="1" as="geometry"/>
        </mxCell>
        <mxCell id="VZ0pMEU6_JE_VZrrwxU3-1" value="User Migration" style="html=1;outlineConnect=0;whiteSpace=wrap;fillColor=#ffff99;shape=mxgraph.archimate3.process;" vertex="1" parent="1">
          <mxGeometry x="240" y="550" width="150" height="75" as="geometry"/>
        </mxCell>
        <mxCell id="VZ0pMEU6_JE_VZrrwxU3-3" value="User registers&amp;nbsp;&lt;br&gt;Tenant for Parexel&lt;br&gt;Services" style="html=1;outlineConnect=0;whiteSpace=wrap;fillColor=#99ffff;shape=mxgraph.archimate3.event;" vertex="1" parent="1">
          <mxGeometry x="430" y="560" width="170" height="55" as="geometry"/>
        </mxCell>
        <mxCell id="VZ0pMEU6_JE_VZrrwxU3-12" style="edgeStyle=orthogonalEdgeStyle;rounded=0;orthogonalLoop=1;jettySize=auto;html=1;exitX=1;exitY=0.5;exitDx=0;exitDy=0;exitPerimeter=0;entryX=0;entryY=0.5;entryDx=0;entryDy=0;entryPerimeter=0;" edge="1" parent="1" source="VZ0pMEU6_JE_VZrrwxU3-7" target="VZ0pMEU6_JE_VZrrwxU3-10">
          <mxGeometry relative="1" as="geometry"/>
        </mxCell>
        <mxCell id="VZ0pMEU6_JE_VZrrwxU3-13" style="edgeStyle=orthogonalEdgeStyle;rounded=0;orthogonalLoop=1;jettySize=auto;html=1;entryX=0;entryY=0.5;entryDx=0;entryDy=0;entryPerimeter=0;" edge="1" parent="1" source="VZ0pMEU6_JE_VZrrwxU3-7" target="VZ0pMEU6_JE_VZrrwxU3-11">
          <mxGeometry relative="1" as="geometry"/>
        </mxCell>
        <mxCell id="VZ0pMEU6_JE_VZrrwxU3-7" value="Application prepares&lt;br&gt;to consume Identity&lt;br&gt;from Azure" style="html=1;outlineConnect=0;whiteSpace=wrap;fillColor=#99ffff;shape=mxgraph.archimate3.event;" vertex="1" parent="1">
          <mxGeometry x="480" y="810" width="170" height="55" as="geometry"/>
        </mxCell>
        <mxCell id="VZ0pMEU6_JE_VZrrwxU3-10" value="Standard Guidance&lt;br&gt;Consuming configuring application to consume Azure Identity" style="html=1;outlineConnect=0;whiteSpace=wrap;fillColor=#ffff99;shape=mxgraph.archimate3.application;appType=interface;archiType=square;" vertex="1" parent="1">
          <mxGeometry x="720" y="755" width="150" height="75" as="geometry"/>
        </mxCell>
        <mxCell id="VZ0pMEU6_JE_VZrrwxU3-11" value="Obligation that must be evidenced that application is configured correctly with appropriate risk mitigation" style="html=1;outlineConnect=0;whiteSpace=wrap;fillColor=#ffff99;shape=mxgraph.archimate3.application;appType=interface;archiType=square;" vertex="1" parent="1">
          <mxGeometry x="720" y="845" width="150" height="75" as="geometry"/>
        </mxCell>
        <mxCell id="VZ0pMEU6_JE_VZrrwxU3-16" value="Know your customer" style="html=1;outlineConnect=0;whiteSpace=wrap;fillColor=#ffff99;shape=mxgraph.archimate3.application;appType=func;archiType=rounded;" vertex="1" parent="1">
          <mxGeometry x="810" y="550" width="150" height="75" as="geometry"/>
        </mxCell>
      </root>
    </mxGraphModel>
  </diagram>
  <diagram id="n3km2oWGpMRYiT3DSOKO" name="Page-2">
    <mxGraphModel dx="1422" dy="762" grid="1" gridSize="10" guides="1" tooltips="1" connect="1" arrows="1" fold="1" page="1" pageScale="1" pageWidth="850" pageHeight="1100" math="0" shadow="0">
      <root>
        <mxCell id="VbwPId7YwTwKUUCDy0Y9-0"/>
        <mxCell id="VbwPId7YwTwKUUCDy0Y9-1" parent="VbwPId7YwTwKUUCDy0Y9-0"/>
        <mxCell id="VbwPId7YwTwKUUCDy0Y9-2" value="Business Actor" style="html=1;outlineConnect=0;whiteSpace=wrap;fillColor=#ffff99;shape=mxgraph.archimate3.application;appType=actor;archiType=square;" vertex="1" parent="VbwPId7YwTwKUUCDy0Y9-1">
          <mxGeometry x="50" y="50" width="150" height="75" as="geometry"/>
        </mxCell>
        <mxCell id="VbwPId7YwTwKUUCDy0Y9-3" value="Actor" style="html=1;outlineConnect=0;whiteSpace=wrap;fillColor=#ffff99;verticalLabelPosition=bottom;verticalAlign=top;align=center;shape=mxgraph.archimate3.actor;" vertex="1" parent="VbwPId7YwTwKUUCDy0Y9-1">
          <mxGeometry x="50" y="150" width="50" height="95" as="geometry"/>
        </mxCell>
        <mxCell id="VbwPId7YwTwKUUCDy0Y9-4" value="Business Role" style="html=1;outlineConnect=0;whiteSpace=wrap;fillColor=#ffff99;shape=mxgraph.archimate3.application;appType=role;archiType=square;" vertex="1" parent="VbwPId7YwTwKUUCDy0Y9-1">
          <mxGeometry x="50" y="290" width="150" height="75" as="geometry"/>
        </mxCell>
        <mxCell id="VbwPId7YwTwKUUCDy0Y9-5" value="Role&amp;nbsp; &amp;nbsp; &amp;nbsp;&amp;nbsp;" style="html=1;outlineConnect=0;whiteSpace=wrap;fillColor=#ffff99;shape=mxgraph.archimate3.role;" vertex="1" parent="VbwPId7YwTwKUUCDy0Y9-1">
          <mxGeometry x="50" y="390" width="85" height="50" as="geometry"/>
        </mxCell>
        <mxCell id="VbwPId7YwTwKUUCDy0Y9-6" value="Business Collaboration" style="html=1;outlineConnect=0;whiteSpace=wrap;fillColor=#ffff99;shape=mxgraph.archimate3.application;appType=collab;archiType=square;" vertex="1" parent="VbwPId7YwTwKUUCDy0Y9-1">
          <mxGeometry x="50" y="460" width="150" height="75" as="geometry"/>
        </mxCell>
        <mxCell id="VbwPId7YwTwKUUCDy0Y9-7" value="Collaboration" style="html=1;outlineConnect=0;whiteSpace=wrap;fillColor=#ffff99;shape=mxgraph.archimate3.collaboration;" vertex="1" parent="VbwPId7YwTwKUUCDy0Y9-1">
          <mxGeometry x="50" y="560" width="60" height="35" as="geometry"/>
        </mxCell>
        <mxCell id="VbwPId7YwTwKUUCDy0Y9-8" value="Business Interface" style="html=1;outlineConnect=0;whiteSpace=wrap;fillColor=#ffff99;shape=mxgraph.archimate3.application;appType=interface;archiType=square;" vertex="1" parent="VbwPId7YwTwKUUCDy0Y9-1">
          <mxGeometry x="50" y="620" width="150" height="75" as="geometry"/>
        </mxCell>
        <mxCell id="VbwPId7YwTwKUUCDy0Y9-9" value="Interface" style="html=1;outlineConnect=0;whiteSpace=wrap;fillColor=#ffff99;shape=mxgraph.archimate3.interface;" vertex="1" parent="VbwPId7YwTwKUUCDy0Y9-1">
          <mxGeometry x="65" y="720" width="70" height="35" as="geometry"/>
        </mxCell>
        <mxCell id="VbwPId7YwTwKUUCDy0Y9-10" value="Business Process" style="html=1;outlineConnect=0;whiteSpace=wrap;fillColor=#ffff99;shape=mxgraph.archimate3.application;appType=proc;archiType=rounded;" vertex="1" parent="VbwPId7YwTwKUUCDy0Y9-1">
          <mxGeometry x="50" y="780" width="150" height="75" as="geometry"/>
        </mxCell>
        <mxCell id="VbwPId7YwTwKUUCDy0Y9-11" value="process" style="html=1;outlineConnect=0;whiteSpace=wrap;fillColor=#ffff99;shape=mxgraph.archimate3.process;" vertex="1" parent="VbwPId7YwTwKUUCDy0Y9-1">
          <mxGeometry x="50" y="880" width="150" height="75" as="geometry"/>
        </mxCell>
        <mxCell id="VbwPId7YwTwKUUCDy0Y9-12" value="Business Function" style="html=1;outlineConnect=0;whiteSpace=wrap;fillColor=#ffff99;shape=mxgraph.archimate3.application;appType=func;archiType=rounded;" vertex="1" parent="VbwPId7YwTwKUUCDy0Y9-1">
          <mxGeometry x="50" y="980" width="150" height="75" as="geometry"/>
        </mxCell>
        <mxCell id="VbwPId7YwTwKUUCDy0Y9-13" value="Function" style="html=1;outlineConnect=0;whiteSpace=wrap;fillColor=#ffff99;shape=mxgraph.archimate3.function;" vertex="1" parent="VbwPId7YwTwKUUCDy0Y9-1">
          <mxGeometry x="280" y="50" width="75" height="75" as="geometry"/>
        </mxCell>
        <mxCell id="VbwPId7YwTwKUUCDy0Y9-14" value="Business Interaction" style="html=1;outlineConnect=0;whiteSpace=wrap;fillColor=#ffff99;shape=mxgraph.archimate3.application;appType=interaction;archiType=rounded;" vertex="1" parent="VbwPId7YwTwKUUCDy0Y9-1">
          <mxGeometry x="242.5" y="170" width="150" height="75" as="geometry"/>
        </mxCell>
        <mxCell id="VbwPId7YwTwKUUCDy0Y9-15" value="Interaction" style="html=1;outlineConnect=0;whiteSpace=wrap;fillColor=#ffff99;shape=mxgraph.archimate3.interaction;" vertex="1" parent="VbwPId7YwTwKUUCDy0Y9-1">
          <mxGeometry x="280" y="280" width="75" height="75" as="geometry"/>
        </mxCell>
        <mxCell id="VbwPId7YwTwKUUCDy0Y9-16" value="Business Service" style="html=1;outlineConnect=0;whiteSpace=wrap;fillColor=#ffff99;shape=mxgraph.archimate3.application;appType=serv;archiType=rounded;" vertex="1" parent="VbwPId7YwTwKUUCDy0Y9-1">
          <mxGeometry x="250" y="377.5" width="150" height="75" as="geometry"/>
        </mxCell>
        <mxCell id="VbwPId7YwTwKUUCDy0Y9-17" value="Service" style="html=1;outlineConnect=0;whiteSpace=wrap;fillColor=#ffff99;shape=mxgraph.archimate3.service;" vertex="1" parent="VbwPId7YwTwKUUCDy0Y9-1">
          <mxGeometry x="295" y="480" width="60" height="35" as="geometry"/>
        </mxCell>
        <mxCell id="VbwPId7YwTwKUUCDy0Y9-18" value="Application Event" style="html=1;outlineConnect=0;whiteSpace=wrap;fillColor=#ffff99;shape=mxgraph.archimate3.application;appType=event;archiType=rounded;" vertex="1" parent="VbwPId7YwTwKUUCDy0Y9-1">
          <mxGeometry x="260" y="550" width="150" height="75" as="geometry"/>
        </mxCell>
        <mxCell id="VbwPId7YwTwKUUCDy0Y9-19" value="Event" style="html=1;outlineConnect=0;whiteSpace=wrap;fillColor=#ffff99;shape=mxgraph.archimate3.event;" vertex="1" parent="VbwPId7YwTwKUUCDy0Y9-1">
          <mxGeometry x="280" y="640" width="60" height="35" as="geometry"/>
        </mxCell>
        <mxCell id="VbwPId7YwTwKUUCDy0Y9-20" value="Business Object" style="html=1;outlineConnect=0;whiteSpace=wrap;fillColor=#ffff99;shape=mxgraph.archimate3.businessObject;overflow=fill;" vertex="1" parent="VbwPId7YwTwKUUCDy0Y9-1">
          <mxGeometry x="275" y="700" width="150" height="75" as="geometry"/>
        </mxCell>
        <mxCell id="VbwPId7YwTwKUUCDy0Y9-21" value="Contract" style="html=1;outlineConnect=0;whiteSpace=wrap;fillColor=#ffff99;shape=mxgraph.archimate3.contract;" vertex="1" parent="VbwPId7YwTwKUUCDy0Y9-1">
          <mxGeometry x="280" y="790" width="150" height="75" as="geometry"/>
        </mxCell>
        <mxCell id="VbwPId7YwTwKUUCDy0Y9-22" value="Product" style="html=1;outlineConnect=0;whiteSpace=wrap;fillColor=#ffff99;shape=mxgraph.archimate3.product;" vertex="1" parent="VbwPId7YwTwKUUCDy0Y9-1">
          <mxGeometry x="275" y="880" width="150" height="75" as="geometry"/>
        </mxCell>
        <mxCell id="VbwPId7YwTwKUUCDy0Y9-23" value="Representation" style="html=1;outlineConnect=0;whiteSpace=wrap;fillColor=#ffff99;shape=mxgraph.archimate3.representation;" vertex="1" parent="VbwPId7YwTwKUUCDy0Y9-1">
          <mxGeometry x="275" y="972.5" width="150" height="90" as="geometry"/>
        </mxCell>
      </root>
    </mxGraphModel>
  </diagram>
  <diagram id="qdRoRbFh1dIV0DN_phKQ" name="Business Architecture">
    <mxGraphModel dx="2031" dy="1089" grid="1" gridSize="10" guides="1" tooltips="1" connect="1" arrows="1" fold="1" page="1" pageScale="1" pageWidth="850" pageHeight="1100" math="0" shadow="0">
      <root>
        <mxCell id="2WbLnz13VIGS7mHN6lZm-0"/>
        <mxCell id="2WbLnz13VIGS7mHN6lZm-1" parent="2WbLnz13VIGS7mHN6lZm-0"/>
        <mxCell id="BoIPkWmvHt83xHEc8Gby-2" style="edgeStyle=orthogonalEdgeStyle;rounded=0;orthogonalLoop=1;jettySize=auto;html=1;exitX=1;exitY=0.5;exitDx=0;exitDy=0;exitPerimeter=0;entryX=0;entryY=0.5;entryDx=0;entryDy=0;entryPerimeter=0;" edge="1" parent="2WbLnz13VIGS7mHN6lZm-1" source="zZvPMjRC7SIyRexWA7pL-0" target="BoIPkWmvHt83xHEc8Gby-0">
          <mxGeometry relative="1" as="geometry"/>
        </mxCell>
        <mxCell id="zZvPMjRC7SIyRexWA7pL-0" value="New Enterprise Actor" style="html=1;outlineConnect=0;whiteSpace=wrap;fillColor=#ffff99;shape=mxgraph.archimate3.application;appType=actor;archiType=square;" vertex="1" parent="2WbLnz13VIGS7mHN6lZm-1">
          <mxGeometry x="30" y="150" width="150" height="75" as="geometry"/>
        </mxCell>
        <mxCell id="BoIPkWmvHt83xHEc8Gby-4" style="edgeStyle=orthogonalEdgeStyle;rounded=0;orthogonalLoop=1;jettySize=auto;html=1;entryX=0;entryY=0.25;entryDx=0;entryDy=0;entryPerimeter=0;" edge="1" parent="2WbLnz13VIGS7mHN6lZm-1" source="zZvPMjRC7SIyRexWA7pL-1" target="BoIPkWmvHt83xHEc8Gby-0">
          <mxGeometry relative="1" as="geometry">
            <mxPoint x="270" y="310" as="targetPoint"/>
            <Array as="points">
              <mxPoint x="250" y="88"/>
              <mxPoint x="250" y="139"/>
            </Array>
          </mxGeometry>
        </mxCell>
        <mxCell id="zZvPMjRC7SIyRexWA7pL-1" value="Individual Actor" style="html=1;outlineConnect=0;whiteSpace=wrap;fillColor=#ffff99;shape=mxgraph.archimate3.application;appType=actor;archiType=square;" vertex="1" parent="2WbLnz13VIGS7mHN6lZm-1">
          <mxGeometry x="30" y="50" width="150" height="75" as="geometry"/>
        </mxCell>
        <mxCell id="BoIPkWmvHt83xHEc8Gby-10" style="edgeStyle=orthogonalEdgeStyle;rounded=0;orthogonalLoop=1;jettySize=auto;html=1;entryX=0;entryY=0.5;entryDx=0;entryDy=0;entryPerimeter=0;" edge="1" parent="2WbLnz13VIGS7mHN6lZm-1" source="zZvPMjRC7SIyRexWA7pL-2" target="BoIPkWmvHt83xHEc8Gby-9">
          <mxGeometry relative="1" as="geometry"/>
        </mxCell>
        <mxCell id="BoIPkWmvHt83xHEc8Gby-33" style="edgeStyle=orthogonalEdgeStyle;rounded=0;orthogonalLoop=1;jettySize=auto;html=1;entryX=0;entryY=0.5;entryDx=0;entryDy=0;entryPerimeter=0;" edge="1" parent="2WbLnz13VIGS7mHN6lZm-1" source="zZvPMjRC7SIyRexWA7pL-2" target="BoIPkWmvHt83xHEc8Gby-32">
          <mxGeometry relative="1" as="geometry"/>
        </mxCell>
        <mxCell id="zZvPMjRC7SIyRexWA7pL-2" value="Parexel&lt;br&gt;end user" style="html=1;outlineConnect=0;whiteSpace=wrap;fillColor=#ffff99;shape=mxgraph.archimate3.application;appType=actor;archiType=square;" vertex="1" parent="2WbLnz13VIGS7mHN6lZm-1">
          <mxGeometry x="30" y="482" width="150" height="75" as="geometry"/>
        </mxCell>
        <mxCell id="BoIPkWmvHt83xHEc8Gby-18" style="edgeStyle=orthogonalEdgeStyle;rounded=0;orthogonalLoop=1;jettySize=auto;html=1;entryX=0;entryY=0.5;entryDx=0;entryDy=0;entryPerimeter=0;" edge="1" parent="2WbLnz13VIGS7mHN6lZm-1" source="zZvPMjRC7SIyRexWA7pL-3" target="jqw6pK_EsgJJOOHi4d5Q-1">
          <mxGeometry relative="1" as="geometry"/>
        </mxCell>
        <mxCell id="zZvPMjRC7SIyRexWA7pL-3" value="Parexel&lt;br&gt;support" style="html=1;outlineConnect=0;whiteSpace=wrap;fillColor=#ffff99;shape=mxgraph.archimate3.application;appType=actor;archiType=square;" vertex="1" parent="2WbLnz13VIGS7mHN6lZm-1">
          <mxGeometry x="30" y="670" width="150" height="75" as="geometry"/>
        </mxCell>
        <mxCell id="BoIPkWmvHt83xHEc8Gby-22" style="edgeStyle=orthogonalEdgeStyle;rounded=0;orthogonalLoop=1;jettySize=auto;html=1;entryX=0;entryY=0.5;entryDx=0;entryDy=0;entryPerimeter=0;" edge="1" parent="2WbLnz13VIGS7mHN6lZm-1" source="zZvPMjRC7SIyRexWA7pL-4" target="BoIPkWmvHt83xHEc8Gby-1">
          <mxGeometry relative="1" as="geometry"/>
        </mxCell>
        <mxCell id="zZvPMjRC7SIyRexWA7pL-4" value="Application team" style="html=1;outlineConnect=0;whiteSpace=wrap;fillColor=#ffff99;shape=mxgraph.archimate3.application;appType=actor;archiType=square;" vertex="1" parent="2WbLnz13VIGS7mHN6lZm-1">
          <mxGeometry x="30" y="800" width="150" height="75" as="geometry"/>
        </mxCell>
        <mxCell id="BoIPkWmvHt83xHEc8Gby-6" style="edgeStyle=orthogonalEdgeStyle;rounded=0;orthogonalLoop=1;jettySize=auto;html=1;entryX=0;entryY=0.75;entryDx=0;entryDy=0;entryPerimeter=0;" edge="1" parent="2WbLnz13VIGS7mHN6lZm-1" source="zZvPMjRC7SIyRexWA7pL-5" target="BoIPkWmvHt83xHEc8Gby-0">
          <mxGeometry relative="1" as="geometry">
            <Array as="points">
              <mxPoint x="250" y="308"/>
              <mxPoint x="250" y="177"/>
            </Array>
          </mxGeometry>
        </mxCell>
        <mxCell id="BoIPkWmvHt83xHEc8Gby-8" style="edgeStyle=orthogonalEdgeStyle;rounded=0;orthogonalLoop=1;jettySize=auto;html=1;" edge="1" parent="2WbLnz13VIGS7mHN6lZm-1" source="zZvPMjRC7SIyRexWA7pL-5" target="BoIPkWmvHt83xHEc8Gby-7">
          <mxGeometry relative="1" as="geometry">
            <Array as="points">
              <mxPoint x="223" y="320"/>
              <mxPoint x="223" y="345"/>
            </Array>
          </mxGeometry>
        </mxCell>
        <mxCell id="zZvPMjRC7SIyRexWA7pL-5" value="&amp;nbsp;Existing Enterprise Actor" style="html=1;outlineConnect=0;whiteSpace=wrap;fillColor=#ffff99;shape=mxgraph.archimate3.application;appType=actor;archiType=square;" vertex="1" parent="2WbLnz13VIGS7mHN6lZm-1">
          <mxGeometry x="30" y="270" width="150" height="75" as="geometry"/>
        </mxCell>
        <mxCell id="BoIPkWmvHt83xHEc8Gby-16" style="edgeStyle=orthogonalEdgeStyle;rounded=0;orthogonalLoop=1;jettySize=auto;html=1;exitX=1;exitY=0.5;exitDx=0;exitDy=0;exitPerimeter=0;" edge="1" parent="2WbLnz13VIGS7mHN6lZm-1" source="BoIPkWmvHt83xHEc8Gby-0">
          <mxGeometry relative="1" as="geometry">
            <mxPoint x="598" y="210" as="targetPoint"/>
            <Array as="points">
              <mxPoint x="520" y="157"/>
              <mxPoint x="520" y="210"/>
              <mxPoint x="598" y="210"/>
            </Array>
          </mxGeometry>
        </mxCell>
        <mxCell id="BoIPkWmvHt83xHEc8Gby-0" value="Customer on-Boarding" style="html=1;outlineConnect=0;whiteSpace=wrap;fillColor=#ffff99;shape=mxgraph.archimate3.application;appType=serv;archiType=rounded;" vertex="1" parent="2WbLnz13VIGS7mHN6lZm-1">
          <mxGeometry x="290" y="120" width="150" height="75" as="geometry"/>
        </mxCell>
        <mxCell id="BoIPkWmvHt83xHEc8Gby-23" style="edgeStyle=orthogonalEdgeStyle;rounded=0;orthogonalLoop=1;jettySize=auto;html=1;entryX=0.474;entryY=0.999;entryDx=0;entryDy=0;entryPerimeter=0;exitX=0.5;exitY=0;exitDx=0;exitDy=0;exitPerimeter=0;" edge="1" parent="2WbLnz13VIGS7mHN6lZm-1" source="BoIPkWmvHt83xHEc8Gby-26" target="BoIPkWmvHt83xHEc8Gby-11">
          <mxGeometry relative="1" as="geometry">
            <Array as="points">
              <mxPoint x="728" y="650"/>
            </Array>
          </mxGeometry>
        </mxCell>
        <mxCell id="BoIPkWmvHt83xHEc8Gby-25" style="edgeStyle=orthogonalEdgeStyle;rounded=0;orthogonalLoop=1;jettySize=auto;html=1;entryX=0;entryY=0.5;entryDx=0;entryDy=0;entryPerimeter=0;" edge="1" parent="2WbLnz13VIGS7mHN6lZm-1" source="BoIPkWmvHt83xHEc8Gby-1" target="BoIPkWmvHt83xHEc8Gby-24">
          <mxGeometry relative="1" as="geometry"/>
        </mxCell>
        <mxCell id="BoIPkWmvHt83xHEc8Gby-1" value="Application on-Boarding" style="html=1;outlineConnect=0;whiteSpace=wrap;fillColor=#ffff99;shape=mxgraph.archimate3.application;appType=serv;archiType=rounded;" vertex="1" parent="2WbLnz13VIGS7mHN6lZm-1">
          <mxGeometry x="290" y="800" width="150" height="75" as="geometry"/>
        </mxCell>
        <mxCell id="BoIPkWmvHt83xHEc8Gby-29" style="edgeStyle=orthogonalEdgeStyle;rounded=0;orthogonalLoop=1;jettySize=auto;html=1;entryX=0.004;entryY=0.557;entryDx=0;entryDy=0;entryPerimeter=0;" edge="1" parent="2WbLnz13VIGS7mHN6lZm-1" source="BoIPkWmvHt83xHEc8Gby-7" target="BoIPkWmvHt83xHEc8Gby-11">
          <mxGeometry relative="1" as="geometry"/>
        </mxCell>
        <mxCell id="BoIPkWmvHt83xHEc8Gby-7" value="User Migration" style="html=1;outlineConnect=0;whiteSpace=wrap;fillColor=#ffff99;shape=mxgraph.archimate3.application;appType=serv;archiType=rounded;" vertex="1" parent="2WbLnz13VIGS7mHN6lZm-1">
          <mxGeometry x="290" y="300" width="150" height="75" as="geometry"/>
        </mxCell>
        <mxCell id="BoIPkWmvHt83xHEc8Gby-31" style="edgeStyle=orthogonalEdgeStyle;rounded=0;orthogonalLoop=1;jettySize=auto;html=1;entryX=0;entryY=0.5;entryDx=0;entryDy=0;entryPerimeter=0;" edge="1" parent="2WbLnz13VIGS7mHN6lZm-1" source="BoIPkWmvHt83xHEc8Gby-9" target="BoIPkWmvHt83xHEc8Gby-30">
          <mxGeometry relative="1" as="geometry"/>
        </mxCell>
        <mxCell id="BoIPkWmvHt83xHEc8Gby-9" value="&lt;br&gt;User Entitlement&lt;br&gt;JML" style="html=1;outlineConnect=0;whiteSpace=wrap;fillColor=#ffff99;shape=mxgraph.archimate3.application;appType=serv;archiType=rounded;" vertex="1" parent="2WbLnz13VIGS7mHN6lZm-1">
          <mxGeometry x="290" y="482" width="150" height="75" as="geometry"/>
        </mxCell>
        <mxCell id="BoIPkWmvHt83xHEc8Gby-11" value="Know you customer" style="whiteSpace=wrap;html=1;comic=1;labelPosition=center;verticalLabelPosition=top;align=center;verticalAlign=bottom;" vertex="1" parent="2WbLnz13VIGS7mHN6lZm-1">
          <mxGeometry x="600" y="69" width="270" height="371" as="geometry"/>
        </mxCell>
        <mxCell id="BoIPkWmvHt83xHEc8Gby-14" value="Customer Guidance&lt;br&gt;standards and patterns" style="html=1;outlineConnect=0;whiteSpace=wrap;fillColor=#ffff99;shape=mxgraph.archimate3.application;appType=serv;archiType=rounded;" vertex="1" parent="2WbLnz13VIGS7mHN6lZm-1">
          <mxGeometry x="650" y="210" width="150" height="75" as="geometry"/>
        </mxCell>
        <mxCell id="BoIPkWmvHt83xHEc8Gby-15" value="Contracts" style="html=1;outlineConnect=0;whiteSpace=wrap;fillColor=#ffff99;shape=mxgraph.archimate3.application;appType=serv;archiType=rounded;" vertex="1" parent="2WbLnz13VIGS7mHN6lZm-1">
          <mxGeometry x="650" y="300" width="150" height="75" as="geometry"/>
        </mxCell>
        <mxCell id="BoIPkWmvHt83xHEc8Gby-17" value="Privileged Access Management" style="html=1;outlineConnect=0;whiteSpace=wrap;fillColor=#ffff99;shape=mxgraph.archimate3.application;appType=serv;archiType=rounded;" vertex="1" parent="2WbLnz13VIGS7mHN6lZm-1">
          <mxGeometry x="480" y="670" width="150" height="75" as="geometry"/>
        </mxCell>
        <mxCell id="BoIPkWmvHt83xHEc8Gby-24" value="Customer Guidance&lt;br&gt;standards and patterns" style="html=1;outlineConnect=0;whiteSpace=wrap;fillColor=#ffff99;shape=mxgraph.archimate3.application;appType=serv;archiType=rounded;" vertex="1" parent="2WbLnz13VIGS7mHN6lZm-1">
          <mxGeometry x="525" y="800" width="150" height="75" as="geometry"/>
        </mxCell>
        <mxCell id="BoIPkWmvHt83xHEc8Gby-26" value="IAM Team" style="html=1;outlineConnect=0;whiteSpace=wrap;fillColor=#ffff99;shape=mxgraph.archimate3.application;appType=role;archiType=square;comic=1;" vertex="1" parent="2WbLnz13VIGS7mHN6lZm-1">
          <mxGeometry x="650" y="650" width="150" height="75" as="geometry"/>
        </mxCell>
        <mxCell id="BoIPkWmvHt83xHEc8Gby-27" style="edgeStyle=orthogonalEdgeStyle;rounded=0;orthogonalLoop=1;jettySize=auto;html=1;entryX=0.474;entryY=0.999;entryDx=0;entryDy=0;entryPerimeter=0;exitX=1;exitY=0.5;exitDx=0;exitDy=0;exitPerimeter=0;" edge="1" parent="2WbLnz13VIGS7mHN6lZm-1" source="BoIPkWmvHt83xHEc8Gby-24" target="BoIPkWmvHt83xHEc8Gby-26">
          <mxGeometry relative="1" as="geometry">
            <mxPoint x="675.2857142857142" y="836.8571428571429" as="sourcePoint"/>
            <mxPoint x="698.1428571428573" y="391.14285714285734" as="targetPoint"/>
          </mxGeometry>
        </mxCell>
        <mxCell id="BoIPkWmvHt83xHEc8Gby-28" value="Know your customer" style="html=1;outlineConnect=0;whiteSpace=wrap;fillColor=#ffff99;shape=mxgraph.archimate3.application;appType=role;archiType=square;comic=1;" vertex="1" parent="2WbLnz13VIGS7mHN6lZm-1">
          <mxGeometry x="650" y="120" width="150" height="75" as="geometry"/>
        </mxCell>
        <mxCell id="BoIPkWmvHt83xHEc8Gby-30" value="Parexel Support team" style="html=1;outlineConnect=0;whiteSpace=wrap;fillColor=#ffff99;shape=mxgraph.archimate3.application;appType=role;archiType=square;comic=1;" vertex="1" parent="2WbLnz13VIGS7mHN6lZm-1">
          <mxGeometry x="500" y="482" width="150" height="75" as="geometry"/>
        </mxCell>
        <mxCell id="BoIPkWmvHt83xHEc8Gby-32" value="User Authenticated&lt;br&gt;Is this business event?" style="html=1;outlineConnect=0;whiteSpace=wrap;fillColor=#ffff99;shape=mxgraph.archimate3.application;appType=serv;archiType=rounded;" vertex="1" parent="2WbLnz13VIGS7mHN6lZm-1">
          <mxGeometry x="290" y="576" width="150" height="75" as="geometry"/>
        </mxCell>
        <mxCell id="jqw6pK_EsgJJOOHi4d5Q-4" style="edgeStyle=orthogonalEdgeStyle;rounded=0;orthogonalLoop=1;jettySize=auto;html=1;entryX=0;entryY=0;entryDx=31.499999999999996;entryDy=31.499999999999996;entryPerimeter=0;" edge="1" parent="2WbLnz13VIGS7mHN6lZm-1" source="jqw6pK_EsgJJOOHi4d5Q-0" target="jqw6pK_EsgJJOOHi4d5Q-3">
          <mxGeometry relative="1" as="geometry"/>
        </mxCell>
        <mxCell id="jqw6pK_EsgJJOOHi4d5Q-0" value="Application User" style="html=1;outlineConnect=0;whiteSpace=wrap;fillColor=#ffff99;verticalLabelPosition=bottom;verticalAlign=top;align=center;shape=mxgraph.archimate3.actor;comic=1;" vertex="1" parent="2WbLnz13VIGS7mHN6lZm-1">
          <mxGeometry x="70" y="1120" width="50" height="95" as="geometry"/>
        </mxCell>
        <mxCell id="jqw6pK_EsgJJOOHi4d5Q-2" style="edgeStyle=orthogonalEdgeStyle;rounded=0;orthogonalLoop=1;jettySize=auto;html=1;entryX=0;entryY=0.5;entryDx=0;entryDy=0;entryPerimeter=0;" edge="1" parent="2WbLnz13VIGS7mHN6lZm-1" source="jqw6pK_EsgJJOOHi4d5Q-1" target="BoIPkWmvHt83xHEc8Gby-17">
          <mxGeometry relative="1" as="geometry"/>
        </mxCell>
        <mxCell id="jqw6pK_EsgJJOOHi4d5Q-1" value="Support User" style="html=1;outlineConnect=0;whiteSpace=wrap;fillColor=#ffff99;shape=mxgraph.archimate3.application;appType=role;archiType=square;comic=1;" vertex="1" parent="2WbLnz13VIGS7mHN6lZm-1">
          <mxGeometry x="290" y="670" width="150" height="75" as="geometry"/>
        </mxCell>
        <mxCell id="jqw6pK_EsgJJOOHi4d5Q-6" style="edgeStyle=orthogonalEdgeStyle;rounded=0;orthogonalLoop=1;jettySize=auto;html=1;entryX=0;entryY=0.5;entryDx=0;entryDy=0;entryPerimeter=0;" edge="1" parent="2WbLnz13VIGS7mHN6lZm-1" source="jqw6pK_EsgJJOOHi4d5Q-3" target="jqw6pK_EsgJJOOHi4d5Q-5">
          <mxGeometry relative="1" as="geometry"/>
        </mxCell>
        <mxCell id="jqw6pK_EsgJJOOHi4d5Q-3" value="Access Parexel&lt;br&gt;Services" style="html=1;outlineConnect=0;whiteSpace=wrap;fillColor=#ffff99;shape=mxgraph.archimate3.event;comic=1;" vertex="1" parent="2WbLnz13VIGS7mHN6lZm-1">
          <mxGeometry x="300" y="1136" width="150" height="63" as="geometry"/>
        </mxCell>
        <mxCell id="jqw6pK_EsgJJOOHi4d5Q-5" value="Authenticate user" style="html=1;outlineConnect=0;whiteSpace=wrap;fillColor=#ffff99;shape=mxgraph.archimate3.application;appType=event;archiType=rounded;comic=1;" vertex="1" parent="2WbLnz13VIGS7mHN6lZm-1">
          <mxGeometry x="585" y="1136" width="150" height="75" as="geometry"/>
        </mxCell>
        <mxCell id="ZxhzauB60mHvr-tTXVz7-0" value="Development Team&lt;br&gt;&amp;nbsp;on-Boarding" style="html=1;outlineConnect=0;whiteSpace=wrap;fillColor=#ffff99;shape=mxgraph.archimate3.application;appType=serv;archiType=rounded;" vertex="1" parent="2WbLnz13VIGS7mHN6lZm-1">
          <mxGeometry x="290" y="895" width="150" height="75" as="geometry"/>
        </mxCell>
        <mxCell id="ZxhzauB60mHvr-tTXVz7-3" style="edgeStyle=orthogonalEdgeStyle;rounded=0;orthogonalLoop=1;jettySize=auto;html=1;entryX=0;entryY=0.5;entryDx=0;entryDy=0;entryPerimeter=0;" edge="1" parent="2WbLnz13VIGS7mHN6lZm-1" source="ZxhzauB60mHvr-tTXVz7-1" target="ZxhzauB60mHvr-tTXVz7-0">
          <mxGeometry relative="1" as="geometry"/>
        </mxCell>
        <mxCell id="ZxhzauB60mHvr-tTXVz7-4" style="edgeStyle=orthogonalEdgeStyle;rounded=0;orthogonalLoop=1;jettySize=auto;html=1;entryX=0;entryY=0.5;entryDx=0;entryDy=0;entryPerimeter=0;" edge="1" parent="2WbLnz13VIGS7mHN6lZm-1" source="ZxhzauB60mHvr-tTXVz7-1" target="ZxhzauB60mHvr-tTXVz7-2">
          <mxGeometry relative="1" as="geometry"/>
        </mxCell>
        <mxCell id="ZxhzauB60mHvr-tTXVz7-1" value="Parexel&lt;br&gt;Development team" style="html=1;outlineConnect=0;whiteSpace=wrap;fillColor=#ffff99;shape=mxgraph.archimate3.application;appType=actor;archiType=square;" vertex="1" parent="2WbLnz13VIGS7mHN6lZm-1">
          <mxGeometry x="30" y="895" width="150" height="75" as="geometry"/>
        </mxCell>
        <mxCell id="ZxhzauB60mHvr-tTXVz7-2" value="Development new access requests" style="html=1;outlineConnect=0;whiteSpace=wrap;fillColor=#ffff99;shape=mxgraph.archimate3.application;appType=serv;archiType=rounded;" vertex="1" parent="2WbLnz13VIGS7mHN6lZm-1">
          <mxGeometry x="290" y="990" width="150" height="75" as="geometry"/>
        </mxCell>
      </root>
    </mxGraphModel>
  </diagram>
  <diagram id="xG0aZBbCKBfZezsNlzG2" name="Application-architecture">
    <mxGraphModel dx="1422" dy="762" grid="1" gridSize="10" guides="1" tooltips="1" connect="1" arrows="1" fold="1" page="1" pageScale="1" pageWidth="850" pageHeight="1100" math="0" shadow="0">
      <root>
        <mxCell id="7wGMAS5hYCVpe6CcnB-i-0"/>
        <mxCell id="7wGMAS5hYCVpe6CcnB-i-1" parent="7wGMAS5hYCVpe6CcnB-i-0"/>
        <mxCell id="7wGMAS5hYCVpe6CcnB-i-2" value="Application Registration" style="html=1;outlineConnect=0;whiteSpace=wrap;fillColor=#99ffff;shape=mxgraph.archimate3.application;appType=serv;archiType=rounded;comic=1;" vertex="1" parent="7wGMAS5hYCVpe6CcnB-i-1">
          <mxGeometry x="330" y="230" width="150" height="75" as="geometry"/>
        </mxCell>
        <mxCell id="7wGMAS5hYCVpe6CcnB-i-3" value="Customer Registration" style="html=1;outlineConnect=0;whiteSpace=wrap;fillColor=#99ffff;shape=mxgraph.archimate3.application;appType=serv;archiType=rounded;comic=1;" vertex="1" parent="7wGMAS5hYCVpe6CcnB-i-1">
          <mxGeometry x="330" y="350" width="150" height="75" as="geometry"/>
        </mxCell>
        <mxCell id="H-eFvXZpFNpSkIfGzSu3-0" value="Customer Registration" style="html=1;outlineConnect=0;whiteSpace=wrap;fillColor=#99ffff;shape=mxgraph.archimate3.application;appType=serv;archiType=rounded;comic=1;" vertex="1" parent="7wGMAS5hYCVpe6CcnB-i-1">
          <mxGeometry x="330" y="460" width="150" height="75" as="geometry"/>
        </mxCell>
        <mxCell id="6H-T6UUNqyEEc-Umkyla-1" value="Privileged Access" style="html=1;outlineConnect=0;whiteSpace=wrap;fillColor=#99ffff;shape=mxgraph.archimate3.application;appType=serv;archiType=rounded;comic=1;" vertex="1" parent="7wGMAS5hYCVpe6CcnB-i-1">
          <mxGeometry x="330" y="580" width="150" height="75" as="geometry"/>
        </mxCell>
      </root>
    </mxGraphModel>
  </diagram>
  <diagram id="KrMsK-e_mOcalAsRYQQs" name="Physical technology architecture">
    <mxGraphModel dx="1422" dy="762" grid="1" gridSize="10" guides="1" tooltips="1" connect="1" arrows="1" fold="1" page="1" pageScale="1" pageWidth="850" pageHeight="1100" math="0" shadow="0">
      <root>
        <mxCell id="0fuqiXBLW33nLdIrVPlQ-0"/>
        <mxCell id="0fuqiXBLW33nLdIrVPlQ-1" parent="0fuqiXBLW33nLdIrVPlQ-0"/>
        <mxCell id="0fuqiXBLW33nLdIrVPlQ-2" value="Gluu Server" style="shadow=0;dashed=0;html=1;strokeColor=none;fillColor=#4495D1;labelPosition=center;verticalLabelPosition=bottom;verticalAlign=top;align=center;outlineConnect=0;shape=mxgraph.veeam.vm_linux;comic=1;" vertex="1" parent="0fuqiXBLW33nLdIrVPlQ-1">
          <mxGeometry x="321.5" y="220" width="57.2" height="55.2" as="geometry"/>
        </mxCell>
        <mxCell id="0fuqiXBLW33nLdIrVPlQ-3" value="OXD Server" style="shadow=0;dashed=0;html=1;strokeColor=none;fillColor=#4495D1;labelPosition=center;verticalLabelPosition=bottom;verticalAlign=top;align=center;outlineConnect=0;shape=mxgraph.veeam.vm_linux;comic=1;" vertex="1" parent="0fuqiXBLW33nLdIrVPlQ-1">
          <mxGeometry x="321.5" y="375" width="57.2" height="55.2" as="geometry"/>
        </mxCell>
        <mxCell id="0fuqiXBLW33nLdIrVPlQ-4" value="Gluu-Gateway" style="shadow=0;dashed=0;html=1;strokeColor=none;fillColor=#4495D1;labelPosition=center;verticalLabelPosition=bottom;verticalAlign=top;align=center;outlineConnect=0;shape=mxgraph.veeam.vm_linux;comic=1;" vertex="1" parent="0fuqiXBLW33nLdIrVPlQ-1">
          <mxGeometry x="500" y="375" width="57.2" height="55.2" as="geometry"/>
        </mxCell>
        <mxCell id="0fuqiXBLW33nLdIrVPlQ-5" value="Reference App" style="shadow=0;dashed=0;html=1;strokeColor=none;fillColor=#4495D1;labelPosition=center;verticalLabelPosition=bottom;verticalAlign=top;align=center;outlineConnect=0;shape=mxgraph.veeam.vm_linux;comic=1;" vertex="1" parent="0fuqiXBLW33nLdIrVPlQ-1">
          <mxGeometry x="321.5" y="530" width="57.2" height="55.2" as="geometry"/>
        </mxCell>
        <mxCell id="0fuqiXBLW33nLdIrVPlQ-6" value="Reference App" style="aspect=fixed;perimeter=ellipsePerimeter;html=1;align=center;shadow=0;dashed=0;spacingTop=3;image;image=img/lib/active_directory/windows_server_2.svg;comic=1;" vertex="1" parent="0fuqiXBLW33nLdIrVPlQ-1">
          <mxGeometry x="492" y="522.5" width="56" height="70" as="geometry"/>
        </mxCell>
        <mxCell id="0fuqiXBLW33nLdIrVPlQ-7" value="Azure AAD&lt;br&gt;Enterprise Tenant" style="verticalLabelPosition=bottom;html=1;verticalAlign=top;align=center;strokeColor=none;fillColor=#00BEF2;shape=mxgraph.azure.azure_active_directory;comic=1;" vertex="1" parent="0fuqiXBLW33nLdIrVPlQ-1">
          <mxGeometry x="150" y="30" width="60" height="60" as="geometry"/>
        </mxCell>
        <mxCell id="0fuqiXBLW33nLdIrVPlQ-8" value="Azure B2B&lt;br&gt;Tenant" style="verticalLabelPosition=bottom;html=1;verticalAlign=top;align=center;strokeColor=none;fillColor=#00BEF2;shape=mxgraph.azure.azure_active_directory;comic=1;" vertex="1" parent="0fuqiXBLW33nLdIrVPlQ-1">
          <mxGeometry x="490" y="50" width="60" height="60" as="geometry"/>
        </mxCell>
      </root>
    </mxGraphModel>
  </diagram>
  <diagram id="MDOnW80EfgeSYJg3Ggy-" name="Page-6">
    <mxGraphModel dx="1422" dy="-387" grid="1" gridSize="10" guides="1" tooltips="1" connect="1" arrows="1" fold="1" page="1" pageScale="1" pageWidth="850" pageHeight="1100" math="0" shadow="0">
      <root>
        <mxCell id="1JuLaVUi7zTH-Um1_Kfr-0"/>
        <mxCell id="1JuLaVUi7zTH-Um1_Kfr-1" parent="1JuLaVUi7zTH-Um1_Kfr-0"/>
        <mxCell id="1JuLaVUi7zTH-Um1_Kfr-2" value="Contract non-MSA" style="html=1;outlineConnect=0;whiteSpace=wrap;fillColor=#ffff99;verticalLabelPosition=bottom;verticalAlign=top;align=center;shape=mxgraph.archimate3.actor;comic=1;" vertex="1" parent="1JuLaVUi7zTH-Um1_Kfr-1">
          <mxGeometry x="80" y="1310" width="50" height="95" as="geometry"/>
        </mxCell>
        <mxCell id="1JuLaVUi7zTH-Um1_Kfr-3" value="Enterprise Customer" style="html=1;outlineConnect=0;whiteSpace=wrap;fillColor=#ffff99;verticalLabelPosition=bottom;verticalAlign=top;align=center;shape=mxgraph.archimate3.actor;comic=1;" vertex="1" parent="1JuLaVUi7zTH-Um1_Kfr-1">
          <mxGeometry x="80" y="1130" width="50" height="95" as="geometry"/>
        </mxCell>
        <mxCell id="1JuLaVUi7zTH-Um1_Kfr-4" value="MSA with O365" style="html=1;outlineConnect=0;whiteSpace=wrap;fillColor=#ffff99;verticalLabelPosition=bottom;verticalAlign=top;align=center;shape=mxgraph.archimate3.actor;comic=1;" vertex="1" parent="1JuLaVUi7zTH-Um1_Kfr-1">
          <mxGeometry x="90" y="1520" width="50" height="95" as="geometry"/>
        </mxCell>
        <mxCell id="1JuLaVUi7zTH-Um1_Kfr-15" value="MSA no O365" style="html=1;outlineConnect=0;whiteSpace=wrap;fillColor=#ffff99;verticalLabelPosition=bottom;verticalAlign=top;align=center;shape=mxgraph.archimate3.actor;comic=1;" vertex="1" parent="1JuLaVUi7zTH-Um1_Kfr-1">
          <mxGeometry x="90" y="1695" width="50" height="95" as="geometry"/>
        </mxCell>
        <mxCell id="1JuLaVUi7zTH-Um1_Kfr-8" value="AzureAD" style="verticalLabelPosition=bottom;html=1;verticalAlign=top;align=center;strokeColor=none;fillColor=#00BEF2;shape=mxgraph.azure.azure_active_directory;comic=1;" vertex="1" parent="1JuLaVUi7zTH-Um1_Kfr-1">
          <mxGeometry x="425" y="1177.5" width="47.5" height="50" as="geometry"/>
        </mxCell>
        <mxCell id="1JuLaVUi7zTH-Um1_Kfr-9" value="Azure B2B" style="verticalLabelPosition=bottom;html=1;verticalAlign=top;align=center;strokeColor=none;fillColor=#00BEF2;shape=mxgraph.azure.azure_active_directory;comic=1;" vertex="1" parent="1JuLaVUi7zTH-Um1_Kfr-1">
          <mxGeometry x="440" y="1350" width="47.5" height="50" as="geometry"/>
        </mxCell>
        <mxCell id="1JuLaVUi7zTH-Um1_Kfr-10" value="Azure B2B" style="verticalLabelPosition=bottom;html=1;verticalAlign=top;align=center;strokeColor=none;fillColor=#00BEF2;shape=mxgraph.azure.azure_active_directory;comic=1;" vertex="1" parent="1JuLaVUi7zTH-Um1_Kfr-1">
          <mxGeometry x="449" y="1542.5" width="47.5" height="50" as="geometry"/>
        </mxCell>
        <mxCell id="1JuLaVUi7zTH-Um1_Kfr-12" value="" style="shape=image;verticalLabelPosition=bottom;verticalAlign=top;aspect=fixed;image=data:image/png,iVBORw0KGgoAAAANSUhEUgAAASwAAADBCAYAAAB10I2dAAAACXBIWXMAAA7EAAAOxAGVKw4bAAAgAElEQVR4nOx9d7geRfX/Z/Yt970tjRCSACEJLUKEEECkSu+g0pSviAV+CAKCYkFEigiIgIqgKF0BC1V6ERBCCL0lIZQkJIRU0m5ue+vu/P5435k9c3Zm971JbnLhufM89+7uzJnzmXLmnDNnywuYyav9ua5dyWPHeul7s04SfRKPetu1Jjx6A4POWb3zR/nw+v0Y6xdjbZZ9JjA8x5+rHJZzDpLUEFddG4aLv42up+1b3T7E0fYFjKSFFHfukoV6xrgfY+1gJMl5Eobrup629WkMwQqD2nVgaYQrz1af09PEF6mLzkabhGm7dmG4eNtoAnJtG4e+iuEaB9f80Tzb0ahbmfNOi+xqHxUsXwjZ3Q3Z1Q14HsSAFnitg+EN3qiQ3mqHD9cEY130o49hwJHH+SbJi03OeiJ7fRJD1FGxHmBOo+joJAL1T3oSZpzC5O3gGHHt7UlyCWhfwIhbPLZ2OOdWzpnaUnhzyvjC03ePR3fH1tIPRslC1zjZtXKQLOTTIiVaZKUMBLL6JwB4AkilAJGuQMpO0ToYXq5lhmgdsCzo7pqW/dzOMxoOPHZWducD36uz32vcj08Zho1vHE4SJix5rvXWpzGowuKA9TBJAutpmQvDtUjXFINe4zOCESf8tjHVeflHbmuqTHtxZNDduZc/Z8Y+spifGKxYNE52t3uQEsIDpKMhQgBShkegKlycXshaeToNb/DwTm/g0JdEY/MrmfG7/s9vW/pG7rAT2xt23C9Yk37UmdZorNYDxtrKX5u81jmGzcNS14jJcy2+ehvhKl8djKRUj5D1VBB7qx3rHKP88pNDOm69dJyolI/wly/cV3asnCC7VmXV6AtCq5SPiLnmSsp1bfCQALw0vEHDForGlpe8jUY9kNpki1cGnPsXlwe2NlKfnI91xOtTi2GLYXGmLu+rHq/HZUHAzvm1rYzzcFkjF896+ufqV73JNT7rCwOWvKD84dR0/t6/TqjMfPvoYPFHh8vOleNloRMQVQ9JJaVMbHkAtPah3hVNPM9KwzCkBCA8iOYh7V7rkGe8Tcbc23jQN5/MHXLCMke/12RsEsdqPWDE4fL6SW2wpSSvqE9juLaE9Jwvel5ma6Brclx84/jUu+hdyqweXJqShChpwtY3hlOpy6UfN626+qx9/Y8++HmweM52stTdAsiqwkHUmxIwlQxVLrzceiR80FMMdZ7KBKJp0NzUyDH/aTzoG1c2fu2sxTHjoFKS7CaOVR/DoDyTDH49CjTOUejTGIJnWK5pSrI6PfGA6vG2XLx64pnZFFZcn3oqYEnKe11jGP2Xc6Z63U/dO6D83uvHVT585yfBJx9tAQRVhSCi2zvAVCprmiLbv9XAkLJaWTS0FFKjt3kws/XEK7Pb7zG14ZATSoTMNc/1GEEgOp6uur2NQfNca8XFt551mGTQ+zRGT+SmJw3l5y4eayvfJkhxQsR5qFQvNsfqkxj5e/88tDj54aMqs6aeE6xYsJXypgC7RwSgui0ErNs3lSQ5MTwjntcbGBIQ2ZZSasTY/2Qm7H51y3cueEtsOKKSMFZ0bHhyWfyeylVvYbiMMSz5cQbbdf2pwojbEroY1qtA6lFmLs0b1544Le1qAy+ztSeujxyP99uVtz4wguLzD2Tz995waGXujF/KZR9PhKxA1mY6sgWjSqPmDjnLYdKpc+WpGaGtXsZAAIjmQZ3e8DG3Nexy4DUtZ1wxC/UrBDjKreNpyVvXGDa8eg24rR00faowuMKygcRZk6SG9ERZcH40j9K5tG8SHufH+1RvilPGPVE6vYLRdcuvxhWe+NflweLZh8tKMW3zYLQukLVzYSlDJLZuvWPIg/LrFKPG2GsZOj+97Rcvb/jigX9pPPZMVeyy9IB7PpLkmtL0Jgani0tJOLa2JhnJPothc8jrGWhKV48iqYe+3tSTeq42xdG5hMZ1Hke7zjDaL/te1l/44SmV9167XOZXNqlAt5EcXstaTesDAwCkQGrjraakd/jS6U3Hnjo1s+VERd0Tq6/OgWQDW48srw5GnDFek3Igvo2fCgwBE4wmW77LlXOlOB5x5/Wmetre0/M1TesUI1j4odd52+Xjym9PvtZfMHNfyEqoIOKi3UqZsIepZE0ZuDwevd3rgxgSgGga3J4eO/4nucO+9Y/GI0/uRH2LjKa4eXLJ/9rEiMNyKYM4nnEy+KnDSDJ+9TTERh/nJtN817XLw+AYcRbQhmFrky2trnJx9bvXMNp+ePhR5RkvXys7l44EyCMHbCtGFQGUErEFxFkdsHxN34cxhJepeMPH3pfd77iftJ56yXzUb3i5/CXJO6+zNjBsvJJSPUo2rk2fGgyXwuKKJ06B1NtIl1ud1Nie8qZ5rvbWQ1OP8ukJzVrFKL87Jdf5h3Mvrrz/6g9kOZ8TNXfFWNzS4BMqDeKRhIXEo7EpAbYF6+sYUgLe4E1mNOxz9Pdaz7lmMuwyDbjlK2nBxcnwmmAkLf56vDzXOktqc5/H4FtCl0ubtLA4SE8mO86Ls2G42snbFmfJ4lJPrcXqWMU1wuj4/dnDy68/c3NlzvRDgcD5dLrhjcCeVy0gOywWH7I+JPppwQAgMs3LMl848IfpkaP+0XL2NUleUE9kEZY6LtqeYrjW4Zpi1LPW+zSGx4jBCSygnD4u2WgUX847rj4/8k4HMNtdDwbPt9ElCZOLptcw2n5+zNji/+67t/Lh1EOFCPTipWEiw4tR+bVM9fKxEOEfpRUsSM5jTJ8qDAHIctfQ8iuP31x64/kfFJ9/IIdoqmeOuPzVQ7smGEnGj69b23qIW1ufWgybUrIR88Vfj7JyNc6F55rU1RGAejHi0poo5F7BaL/i9ImV6S89Fyyftxv1qtTiVl6FfuaKHKXaOtHFDaIsaEyJMBbs+lOHIQBZyWf9ue/8vvvvV/5ezplKlRY3dPRayZDNYNOjbV3wOj3FcHngHMPmzXiOOlwhfioxXDEsnupx5Wiy7Ul7wpMrN6486+UZd52EYWsPL7Pl9wrGqgtPmFB66fF7Zeey0cYnXFjw2vayseuJcptnY5SzuBJ/4PPThiGRRmr0+D+3XnjzOdktdywxMttWxKVIkgy8K60pRhzPejF60t4+hyEQXVRJYC6NaVMMLg2b1JGkttgUGC+Lw4hTIHF1aHm9bVwjjPLMqV73P383ofT8A/fL7pWjXK+y6ET3huraVUcHgmJoPkMY1dhZCqnRn/9L0wnnnNN48De7a0WuOaVpdZSJqtdTjJ6U9bTOpxrD5alwl5ef84VJ812egsvTCRBtQ5yidPHsKYaLB6Xn9TzLuc2zWmsYhYdumVh68bGHXMpK8gwS/KHB7Qgdwi2X+c7LZxejuv304c+ddmr+nut/33XTxVnYFUnSbiKu3EbfUwxbeZKB5+e2nYjNqH6qMNIxlSlz3jDeKF5my1fntkbFbZNcCoG2yYXJMeKUXVy+rW+28rWK0f6rbw4rPnvf7bJ9yUjbt6b0uYDxPBIAHRtSW0WQO28q8ccGuDPD78A5X2L+lGFA+vA/eO2UYrH4DoA/ktK4ueMyaluslNZVnoRRj/xwDBtf15rkvD9VGB7PIEy4MnB5AbYG1usy00byuvTI89Q5b68NN86icX49cfXjvMA1xsg/dPOg0tsv3h0snzdOABHPQd1p03fcBMsH9GsxNEZEA9gGr5pWMHZVrL74LGEEJfgfTb+y7bzjvk2GNUmGeEpaiK78OIw4+eBl9Xj1tjXTk3b3KQyq3eLcOArCmdu2SXHJNmE2hVOPpal3a0ppeR06wPXg1KMA1wij/NrTue47r7o6WDx7L6C6YCXZ7qg7ZfpP5atz5anA1HM6zCPI3TZCo7+IIBnP2onG/axg+MVs+cVHr27/1Xf2Qrxcu7btLtnnc13P2nHVUec274vvdHi9pPSpw7B5OLZtn83FDRLq0qON3tVwW56tYy7vL4Abw9UvnuKUMK/v8rRWC6P42N+8jut/cYo/f+YJgDSeWTKcLBl6E3oLRRRa5ChDpadjQtJCa2mo4a581jBKnUNKLz76p44rTh2N5LmqZ4uj6G3GN2kbSc9ta8flrdu2Ua4yWvdTh2HbbnFvhyorGwivazva+Nv2rRzXpZ1tbbS137U3jkt0kPk5z1N81xpG/pn79vbnTL9UyEpWb2kku/klwu1NZCsowvLItlESWumgUTwZv88yRtC+ZHz5zUlXd133Mx6EB+wyyOcNFlqeZ1trSSEUm+KzKUJK6zlobWvyU4eRJsRxe0iXprQ1jpbbeLo66eLhSlwD83ouDJdnZsN1eYiuOkneXyxGecqDTasuO/VGWexs4QoKIDEYhFsl4zUV6o3VMgXnoeI7IvRGKA+tEFQe8eSkMHl+VjAAoDL//cPFO8NOBfAHRHcSel6Lk+7fovi/+0eV33lxE6916JbS94fKzvYmGZS2Q3c7ZKUcNgiASKWBXCNE48B24WVmiCFDEaxcPM0bOmJxbt9jZqVHjnkv84WDSohfR7QdNrmqR3nyenFeTZ/FEKzAppxsjXJ5CC5QnuJo6qnP6WnbkvhwzW0boMBx5PWSxqxujMIzd6HrLxdc689/7/vKs7A+QIlwodLEHyStp8y20I0ytqhVDOiziCElIDLNhYYDj9txwHm3zsjfc53X/Z8bsg27HrJX8fkHdoePbYLOFbuhu32A9P0sEGQh/UgbBcVAOF8GjRCQSAVCeAVkGgrekJEfiqamN7wRo5/LbLvLJNm29JOGI75VyYzZDkiWnXrKbIpjdfisdwxhAUraEsUpLJsbF8fXpQz5tc1r6okyWVOMpHqudtSN0XbWwUeW3njmbiFLaeeDkDQfrEyR0JgWQq8C/EgTV458tVkUxGcRAwC8IRu/lBox9n5/8dw9ZaHrYNmxIs234L3RDwlUJSGbQ2qDjWcg1/RMZssJj4kNNnoju8sBnzTschAsKU6+eyKXLl59DkMgupBcLtnqeFG0nk2BuDw510DEtTGOV1wb4xRyUj/rwUnEWHXJt4eWXnz8ablq8XhVyfkKCtkKaUFnwk+9M1UHPE/xJAtOwFy8xvNNguiIzzAGZDg766MfmocE4KXgDR6+WLQOeTK16Zb3Nh10/KTsvse2w76mkhyDJG/GldenMISlgko98axcqd6G0jKOnaSI1hSj3nbz8jgedWMEC+ek235+zMWV2W+eJ2QQGmyyAIzYC7PU0kGL8BAmS32+h5Hk2hYfQj/GOsUAavOaaaiI5sEzvJGbP9h0+Lf+lvvKKbNqxXGyWs8arYeuz2BQhQWs3vbGBpakbTnfeuralBmvS/NdGPUOXJKX5VLkPcJov+z/bVV85u6XZb5tgJZZanWpNQbZgRCTbCwUtkisW8raufG9dWlZUBacfozexaBKThcTZQgIiIaW9tSoz/0nu+sBV3iNA95rOvFn9YZFXOuMlrl2BPx6vWAIBxAHtKV6NWu9ydVhnremGHEuJz2vp+/1urLW885rf+QVn3voVn/hzBONO2OwbAnpCmEelTWmoui41RaRUyeGUpI0zmIsvn6MtY/B61p4QwAyAES2qeSNGHtXZpudr2z99nkzxKZbBnDvSAC7rPIyfu4qXy8YcR4WYC7IOKar7WE4GufCcF33hI+tjT1xV5P41o3RfsWpuxUeve0FUSmEgl6bEcFWSaxAM3pJKnCDrhLnZdxNUx4Es/i8Pf0YvYDBlZkySqSSEb+UgGgc0J3a7HP/yu7wpStbzvzte4hfD65U766JXq9zDGEhjNse8nwOlOT6JW2x6uWd5I4mYcSletocd103xvLjt33Mn/fOwdw74j8hb1h3theJPHsFYoiFma+SLaCv+UmCR60/2bL0Y/Qehu0xjJCxiUGNlYSAaBmyOL3ZuCubT77gluwXDmpDfXIZt754eZIu6HUMOi6ciANyBjY6JJQllbu8pjjNa2t3klfVo30z49+TwXdidFx15sTCQzc+j0ohF5FOyx6EeliJ9NJcIPUmCxv3dT9Gr2EQ5wqARXm56klAiFTgDRs9NXfQ8Selxmz7Vu7A4+OquOR8bdGvdQzPwYTmu0ACRkvrBJY8F05cOwJy5DQub43zSeoHx4pLlFecwo3FKM+ZitIr/z1NVgq2b4yHiVhiQa+lnQYS4dZDsDzJrnldmAusH2P9YajfcRTk3EiOvCqG7/lLZk/o/ufvX8w/cNOF3Xf9cQCjjIs/JSXbWrKtg17DcAEnNYJ7EPzPVc/Gky5+Xj9JQcTxqief08QpxHr6WBdG/s6rRwfLFhwOIGqWpXkJwHixuSrFDIVuKWxmvrZ10F9AYPwptiR1XDD9GL2IQd0r4qbZdJRqgyE2NcUly13Z8tvPXpD/97X3dvzm1HEI5ZbLuG03EFjOXXk09ToGX8i8Ath53HbQs5zb9ra8EUlbPtfRtU2tB4N7h7Y6Nk3PrYXNy0zEqMx+9xhZ7BwWecUECAVYCbOynERRSb5gqHBTySb01MLrO4uKF8GmcZbIAgL6MXobo5YnCb1mxedZhF6YoIRQ4uLDXzxz38Kz9z296pffOBKhfLo8IFe4gyfXzomugV7B4F6FbRvHt3fcG+H5KsV5bLaFb1v0NhxaP86jcSkXnpfUbpcSt/FJxOi+97oWf8m8o5Ukc+WjlZA68EWBUIGpu0fqZV5qZfniUvWMX6IRRPZr2PwVEilCHtyS92P0DoaeW+pBKYUmTB4Rj41g6MdeOj4ZXpr8n3+v/P6+ZwQrFtIwBFUutrVA6epxItTRpqDWCgb3ZGlllbgSsC1KqrCStm5cISmMJB6ueFUSrUu5rZe08vT9ditPe/4F+OxHWwTCXzEmllkJML+zxMicBU4aSu7gb/UQLN5DP8baxbDx1g6ZjOZLwPgFbKXYIkAig9TobW/I7X/cT5q/fV67A82224lbOz1Zl2uM4dJ0XBvaAtk2pZbkSSka2zbMxiNu22fDS8JIatvaTgZG8fn7vWDFom+hUoKoWVGhhJFaaxABpSaF1NGxE8JDHxHykrQOYOAqHOU1ACYNbZO67sfoXQzYymF6UBRD6yRCzz21UEbK8Oe8fUrxf/fd23X7b4fBvT6B+gx9PWtorWJ4lj+wc1scioPExXtsys6Gb2sP3xrW473Vs8111bVdu5R1XF+tGPnH7szKro4jlcdkxCRqp5BM2FQeWRSRmAqLa9CtgaHvBKGHKdxq+2DQUMuOfox1gkHnWJjbQcDE4ApR5evtKPGwlLwJIVGZ+dr+hcf+fnfHjRcNhXvd21KSA2Kjd4WQVgvDpYSoV0I9riQwSsPjOnFxJ5uX5VKUKs/WFpenR9vv8uTi4mE2Xi6Pz4mRHjlmq2DZguHU8lEPyhD42okR81B0yoLTeiTWYRCD5SNcKBRLLx5Ow1ZDP0bvYhieUu3S4E/5KAzFT5hkVk+wRuB/9M5epafvurvzpouG1nJtcSeebLFlWofXjdtxrRaGzZOhxHEeVxxw3PYtLu5ku7bFtXqiNFypXo8qjk+PMApP33s0EIQuPlCNPXDTS5KgQkktMKPXFpcJrT538Sf142IrfIvRj9E7GCrZMLhei2w5aRvjGghAQML/eMZexWfvv7/zll8Ps5DE7b5Uigugc1pb6jGGxzN6kLhC4WW2uwUuF5Hz5HXoeT1btSQMl3vq2pom/dWLsbeonWnhEqHg6biU4kKuKT3YOQQi1rSnycAgeZymH2PdYiSliJdXB6be3grAn/P2bqWn7/5T/pFb4x5i5g4N6rx25a02BvecXK5cvcm1xaTXNk+NbiHj+HCviionm9flwuD8bH823LibBLZ26LrFFx4cLtsWTwRYfIHEN/Ttb2Yd6S10I4+cc5NsbBUYPcDOJcF2Jcna3Y/RaxiaB8GJiEUMhs5OcgVrZZW5047K33P91YjeoEoK13BZp3R8Ddrq9xiDx6doslWyldk0aNze1LW1o7xc2zqbcrXhxWHYks3L4orIxt91jKT8g7duI0ulHBAJdcCIR4nqdk8SgaV3ikDo9CscxOSrRWHEMYgUazy68Ignx+XbiLWgH6O3MUKXicgJqc8xDM8aYbuox64wNPsIRoDKrLdOXnnmAWcged3Fbd2S1gWtv1oYHJAebVs+lyKy1Y1zD10xrKROc48pLiV5iS6FF6dse5p0PX/WO9sBlbQhPNQ6sjxDqVFrSgTP+H2+WjJ+HcaygKhHR+RWYwjaPpAFJgh9P0avYig5oNfqxMDgBDUMFRc17kSrtjgwEJTSlelTLl91/vEHqhzYk2234aJLKusxhk2xuLyNpOCaTdtyXjatGhf7ScKIq+fCWD/J83YEoD89QmMU+menRGgx6fM6NOaghFzXr+VrZSdMnkCo3LRFprxqybgmGCA8tYXvx+g1DGHJFwxLY9B8ikFlh/DSysmBIUtdLaXXn/5T+2UnjQ5761x/rrx6aF06JxHDpkR66nnY4k+u+rzBSdtOFwZNLs/MtX2MC5IneYZxPGLLg5WLtlPn1MpB1Cwfs4jGW/qSLADDDId/WgAJPVlj1WxizVU7KI2w0REvAP0YvY5BMxIxLDIiCD1loj1AVW7BEAKQ7Z+MLU976U8dvz3N9qOygD3uzdcPz6e0lB8vT8RwLV7AVDA8cYa2IDjn2xOePM+2r7W12XXN22DLsyk21xbWpRytGIVHbhkFKYcIwHzuqmbpIOwelY5xEPoaeSidhvYLrTcQCq7gC8msYk2CXxDifoxexqAMlSKh2aw+OIaItld7gIDpIXIMAfgfv3eov2juqYh3IlzJtia4fuD0dWMkeQ6umFScV0Z5xe1Rk7ZpXCEG7Jxj29rek62gCy+pjrOfxefuz3bdeH5TYfITw1CpNHETLYGocMOyOATxvoSdRm0JI4tHFSq3nylBKtw6NkMFnrevH6NXMYxzaRo4fgeZXlJlRmF0LAvQL04nY/goT5tyefs1P9wGZqKybgsB9WR35kqxGALxC5wu3rhjEi1tjC0lKRdebsNN4kMHwTWAtnbblLfRx+J/78wWX3xieHnalCHpzSfsVJn3wabB0o82SQ0evl2Q7/JkMT8c3SuGRyU4dMXDDIQWlO8hLDSS0KrtgPbaYli4WLowjCb2Y6xTDGXYhAVDAmH4wIYRYRRex2IASA3f4qmmE396ROOXTynUyJLWRdJ1PYorFoMqLJDCJOXEaSlTWOhdPFzKbHUUkivZ2mU7d2HzcgAI2q/58bjK609NRCXYx186fxshxFay0DFUVqpfYYgEStU5T8RSR4q4MgMTyBhhtPGxCShEtIprYenF0Y+x7jB6ouVc7UhiZSuQgPQylewuh5426KoHbiEl9eoB2zqvdx07MZTC4prPlWdrXJzCcvF0nXMsnurV5vViJLXZKOv83Vnji688dZRctewwme/cApX8EBkEUSGjFkyScxFaXOM36CyJWjyLYxaPAftisSlAw6OrtYsG/GUNS5PIfozexNBklC/1qKhS4zQEw9r+pPqMBhLwBg6fnt3nmH0G/OS6ZYxVnDOzOusybo3qo01hua7rdelc4K7ynioT17bNlVdvnUhZ/v7r0+WpLw6rzJt5cvDJx1+VKxZtA/hZw2oJizByb8dWblNENmGTq48R8dwYDd2uGFi0nLQJFn79GGsfQ/O11SG0Lgyd75AJ1PpRF4YUSG+7268bj/zuhY1HnAT0XDfUu+ZUeSwGb2aSInGl1VFqcZj1aNs1xXCW5f95da70xuQ9Kh9O/U7QtvQomW83ftlGC64kMkEsL2zXLHFSpcDWFMPQY6w+FUyr14aojNvK+jF6GYN5cZSJ8biLQ2YiDx9zQ2jxFJ0YANCywYrsroduO/Ci2xc7urvOUpzCisvrzbQmimmNsLr+fG62+PJT+wfLFpwlO1bsL/2iZ/NquCAYxTIqhNRiUs9KWnisDQzDytZo9FalVpd7cQpLyzIT2n6MdYPBFReNd1HjFKcADSXGeSBsV70YMgBSY3e4bIM73vwl3J5RUuwqLnzkoo1g2AxEXHTfFUynyRWAs+13bQrJ1XnK38YzqR+cvzGwbT84+ODKrLd/JjuW7SaDcjYiqLVks6pWzygmGXeOegGDCp5aPEY8pVZOf2Wa3m1Uef0Y6wfD1EBhvbjElRTHFzbaejEkgMZBba1n/X7L3BHf4bEsW4pb35yuR05Juo6KNqXgOue81PnqeExJ8Sh13VMvTNN33XgBgpWfjC9OefyS8htPHSplJS1gsXQ24aQutCENFkQmMYay6gUMaqEjeIKREwutvYYaf65M6XU/Ri9h0ApMgbkwIls9Vk5lTD2grFO9GPlVg7ofvvksAL9EHfFfhEqr3ptbSbFzD6i+/OwxorjEGSbRU7q4W5lewjGJN/9LwvDaLz5xUOGpey4sPPr354Olc48EKumI21y71hZShuX6vS1NwJIkR4vFW1cY+poKIhF0MIGm3oKgjGQEoh+jNzCkWYleGk/IU4VIZYgDchlZTQxAwp/73nH5B24YgqjC6YnTEOcYJV7bPKd6HjHgXo4tUd6uI0/10PEtJW9HoufVdtaBu5VefOK//sczLkCle4Dh/RDrFrF63Esi+ZIXsGNEKHoJQyvD2gJQitC4JoIOIPrTUaRtKklC14/RixhUXgQijypQDH1eU5CcJzWIhve0GhgAILtXbZF/+Db1NQfuVXHHxxancjkVrvIIhi3WZItJ2bQdZ8zjWjbF5/KcuMKx0fFgXpKHF8HovPXXA1acuOOl5bcnPxZ0LJkoPERmRQmUtnbcWnLTiSiNzVKuKwxl6fVCYRaU4sran/7siKE92Zrk+f0YvYJhsCYKjoNYH0PgfGHhrfqyOhhB2QuWLz6pNOOVLOyOAz23Bd9tDgYYHedlYKQJcVJ0P86bcim0OHCabDiuTrvaGEvfee1PRxUf+dud/uLZe0AG0du7taO2QEow2aTRLYFESE/v/FmftVlXGDUGmq8kNKQe5aWFV4S0mhXHIY3sxw+xvOUAACAASURBVOgFDKoIhQFjlRUqC9Sj4q8I8TqRttWDIQHZvmK37lsv3QrAdMTf+UvafdEUF9MyMPgC53fnXKBcGcXdzXM11hWU4xiKV71xLYO3XDov3Xb2YXvnH775BX/RTFNZIRQUgFgkcq3PZXwZkbGQbj1gKP7G1kAJtCAYzAug9agQ61Uq7bT9GL2AIVm9Gk/qkatr/TVUEAzWDkOuavmrhSEA2d3WhEL3sWFrY2+68UTj2fWEniIYrm0V33LVFRCrI9nu7rniTy6Mejy9AADKUx712i448eTy1En3y87lmwAwV72ybjAVAggJVBmzWIaQ1jJcPyO+LjEEXRCkqsIweNdo6YODgvEC++vHWA8Ygp0LRisQfi6bMFSf2qZ4Wm+tLoYAKgtmHdp913VNNVZxTxDwa5eiojusuJg50jEAfIvleszAyTymbHXr113e/c8/5jpuvOjsyqw3L0RQzimBUBaIC5NOVKJYmfH+H1Eu+ij7EAarZ329B8RLEGaeuvMkyDVgx+nHWHsYmobmSzumKtOPKhAFZLB2yd9qYshVyyeUp00ZBmAu4WDb5rm2fjze7aoTCd7bgub02gaadAeA09oabEtJdw5sPKxuZOeff+YVJ917bWXWG5dqZQXi4RBFoN3g2rly0/VtZpgWkk6i4smv1ycG58fpqauvkk3X0ZgKP/Zj9C6GydxeV9NTo0boDBHiGBYF1hMM2d2eDtqWHVzLsgXUk+7a24L0tMzltQVeTCVbENyWeIA9zj10BejivCYeeIsLxHud15+bLb05+a/lt587WciKR11caoVoUhbJcIsd1k/v77kV7SMYNnaCXxAvweUF8HJ67MfoPYzItLL8CAYc9Sh9gtz0FEN4QLBozn61S9tzkLa7+66nCjgNzzMwbCC2RxRcdxBdj0XYvCW+pXQpL1s9m1cX6VDnP3+XK7323DWV9176LpUKY464onBNvEPY1H7eJSDrG0P/kg7FYiC0LGLZmRLlAeF+jN7FiDz2UEtadhxGztBFFgYag7VntTAEILva90LUUaF/3NmxeVVJMfKIM6SalRQXsqWe1HFtI5PuMNhiXh6AoPzyM+ny/PfGFp+5d3TlvdeGpMd+fvegbclof8lHhwq/pF9a1ntxOgm1c5uHTIVGUB62XtnK+xAGdfW5DFqGI4zREL7GQ4X9GOsEQ+fVJlYkENI4msbQDSVtsvBbXQzAC1p/+pftG798ygzW7KR1zp0hrrhcedV2MrCkRwZs+0uuTHra6Dj8AAAKD93kBcViOvhk/k6FJ+7cSWQadw/aP9kLhe4mBEETUEnL2sjrOeJurlXqTNpIUsJIBc02wQZQ38NwGMzk1IOK/RhrByMy97HEiHwJRPMQcAb1ufJcLYxAID1+99OG3DD5LzVK15qOS3G6xJbnpRlQPUHxpNuWHMTWoLh4FQB45SkPpTtuvWyol2naq/PmS74quzv2lh0rhkEAgqs1aS5W/T0fmk+Ugp4AEVpL7unQl0QN3obvjVBZ9EUMxZt7AVDM2DCSxWK7SWC0rx+j1zCsXrcMD/qmDeFF5cIw1oQHvwO9JhgQEiiVdoyOjJFsIaN6nB6+FdQpDdPlint0oSegPd1e6tR1w4XDi689vXf7lT84Puhs27/StbIJtUkQqRoRnXBAexkgg2zcWatZm0gQ0WVliHWSNnoiXFo2qTCsTwyjQljPypfXo1UEdf9N/H6M3sOIbMVEyIobMqOM1mGKi7eVV1gdDACQnW0TyWVSeIfSJB1t/ADYv4cVB1hP3urEw9B27lFb+PNmnRksW3AkuttGS+nrEdLfIAKMBasHURJvAyGdzSthJOFkEOXBPTZNJ0N+uszh1aw3DISCz4XY5omp+jT2YdsC2NrZj7H2MQw5iFudFqC4ur2C0Thw/qBr/7tl5nNfKKD+eBQQDf3QMhCaiJPk+h6W6/aizbNyAXNPzKrYOv/00wnF5x/+RXnKw/tLvzQIMAdRLV5DaYFYNGal9MASAVGWg0+Q8d0pSsyS4RKTa22RFF0fwKCKXVtHusBgHy+6dQapQ41CP0bvY0RuxpB8WDCobAMwv3clw/ogNFyGVgsDACrlFn/Ou6MBvId4L6keh8a1ozP4pJGsWJLA6t0eakXWdc2PUVm1bGJlxis/7/7X749EUNYfzgOgR9CYfKFlICwj9FyIqJwJImjGXUNYaFURKad6UbvtMtqGvoJhWHZY6JUgKv7SFEq1VeF3WGm8ox+jlzCUIiPnEe+aYxCZl7R9BEvJEhGXNccIZFPx5SeHo6qw4pLzbj85xukgndIWQlgqxN0BSFJiRnnbT7+6SWHyQz8Jls47UZbzA/Q+ni9eusK1yg8nwhhkMMtE6LmrrpUgLyaa0BAu2hbJK5HURzB4zEyNjaDjx8YqLjajMIwF2I/RexiwYxiyTTDUKz5aqUhGzzHg7kePMWQlW5755hDEB9dpvm1LmBQbN+jTrMB45oEB0gc4bQqO8zB45R+4san41N2nlt/831myq22U8NhEEoHQi1mwNcusByuK5FPLYLgwlIZOJLcyPDElaoubrW8MQ6kxGj2mlvGjdfQWxzIHPDDcj7GWMWx1JKFhGIKdUE+JB9MliLFn/VgdDMgKvHSWfoHU5S3BUk6vAYdHBab06JbQlerZm8YG3Dr+8KNxXbdddm2wdN6+kL6nqcji498xV0rLWLB0Ikl9nS2jdOZeq3o0ZCJOyJQlITQ8xtAXMbRQMmVN+anx5Rgub0K3TWjSfoxewKD16ZxH4pa0DbQuVSpsfWh4h1z1FENKCW/oxlsDb7mC6LZnNF3nLiVn1E/Drh05MS3n55xO53X84Zxc5YO3Tig8eOPVsthhbv/oOWCsaOuvIrPBtw2iYT3iMKSZxb0zY6JouyxKVZ3wvf76xKBdplqNLhwDl44VwTPaRIv6MXoNQ1IaweRbhkeVR5tAsV20EjCf/VoDDACQXR2AWym5nqdKUmbOO4x0S9iTRxHiYlnVu3+/O3tkccqjl/oLPzhRSN9TGl/Pl4S+o0GDgqiV6cFTeeSajpnmqxQcrccw+A9EGpaH4RsCBrPdgGkNtbD1AQw1Dnx9qQtKYzCQ5rgawBS7H6NXMWzyoWXHhiFCphqD8iPrI5LWEAMSkIVuwB7jTnpMgefTY6yH5YrcJ4HyRALrX55QeObuW4OVCycAMpwkYm1UEE+qfDJyehIR5gFRC6D4cuulLRbDsA46mPUBm1zSHt1EwkNV6jMYZBxVPo+V0MWjWOoxllEaQ/hZxX6MtYzBFCTVlVQ2jCTCo+JNlZbxiI8027kmGJAA/AoQVUQ2zyrO2wKiesV6bdsS8gYkBcWMtOr84w8tvfTY32S+bYjh4oIMBlmsxvtOZOa0YEgyQLAMtFJKZPKVsuIYKl9NIBU+6r3Rhc+3YcY8KkVB2re+MagypIo7IqhUoGv19OMfioc06SleP0YvYVD5ZtrMKGeKDYQfj5Eaa4bI3RpjhInHsFwxbRc9p7E5TdrDgqXAeVuRlWna7tuvTJdefvyE4nP3/QlBsSkSjJSWwURYRl0l/TVGMvGmNooOpK5umEJGoywPiBAxfhRL8vbUzqnLbPQB6x+Del4GNh0bNj60rm18FZYgdfsxeg/DmmfBiJCL8KhZ2wjXFobUlWw6wRVAdz33GUevMVyakZ9TBpHUee2Ps8WXHruwPO2FG0VQrH7rmSzImu6JKBYJmHcsBFm4avHJkJeiUV4XnRRNIpIx9CmzJrTdVNlqRVI7FyATptrRVzBA6lClSMdLhnmKlzFPlA9Mmn6MXsYgtJLVjyg41Q5p4QNHGa27phgCkJXi0I4bL8rBjD3Vq4TA6Pk110eeSKjgKtPAndf+2CtPf/nC8rsvnwu/pH89mW5Z1IAohQKSp7PURJKFbI3/qIEyWYWxLUs+xeAemI4nKHqKQdohhMmPtot7f+sdozb2ql6EhysxnpHifox1jhH3c10Kh64P1STNmmHwNbVGGBIQ6YbA22jsHbldDz6n+Ye/X0aq1fsKjsoD3FvBwEaorpP2n8aesvzBtF+WZ7x0HvyS3l5GlIO6NDQJwsCyCGm0s0DLOV+Q/Jq2F2D5DgxKJDkGsRyaTE2WTYkgpJd9CUMpfcLH8EgVT36tBz+sw8v7MdYtBpdnfm4oP7oOLApVZzGFudoYAOAXPX/Beyfm//vP5zt+c+p2iI9b8TuBnoPedhPQ6WG53DHKNChPetDreuDGH5VeefwKBOXwsQViVUxXh10nJFn7Z1u4sZViymUSvx620YbdJzB4HUTLE4eSYyS1qx+jVzF6mtY2vyQMKQGRaW7PjN/19PQW4//VcvYfKkgOrvc4nz/z4HLXjFuRctEcr/Oua44pvfrkhQjKYX2irY0vK3BrogvMo5TEUhFNrvbNiqcOVHN+glk6CwbFkTDxDOMiGY6tPs3rIxjWMbHUBW+bAWLi8fhGP0YvYnAIvjbYkZa72sZTb2AIAchy14DS1Em3Fl955tzCfder3y0MwPQHy1N/HiuDpY7WCYm3E0lZ0Hb2IV8oT3/xIZlvG0ZdXBpDkoARx6KxGqXYFG1kAER4af3qY62i1dNQBxdGjUCPNfUIFT1zmSVlojBZXgRkfWGQfH73CrCMF7umY0frRuKD/Ri9gwFCK81zHgKg7aL8ODavZ2D3Cka6khr9+buaT7vk/zXsfnihRuV6et327BYstDoTrAJPhnbsuvGXwyqzp90t823DlCLindBHNiBcwfCJ1nEBScq560wtEaGlg+bCACVlSkSfCmJVKB8FSjpI77pw67M+MTQ9wj8hkhcgBOGnsqmQ92OsEwyqPBQ/LeaS5QnNXmMYnhFbCzre2asYlXRlztv/13nNOTeX33gmh/iHR7n3BZIPRmP94qhzW9j553Ozxf/95wF/4XsHU2Wi2yzJOV10QPRDdmRB2u6aSGkqLIphKCpCAwnzsQgLhhps+ixTBJOwp7E5kLocv09iWIxEJEmzHfXGY/oxegkDoWGKeNnuZhk7kb6DIeBtNOZfTced+b2mr/+wE/ZXc1Sq61UeL+EYgi/9OF16/bmf+gs/OFh5U0rLqid3+bYksjIBY2BobEcJgx5IsGul0WmbKA3l5cIwi+xzpBQs7YtuTGiltDdY400VTF/D0EmSP3UQpsXlQigRk/ox1j4GTAztmTEazYIaK4rB1pbGUGt2nWBIBEvmfj1/3w1/zf/7mgE1apeHxXUOvTsY62FZU/v5X9+3+MLDD8hSZ0tEs0qYjyyoTpC8SLFamIDeTjrpbN6Gg97mpWkMImSajNLTPIJjGyS6PTO2w30AI8LHVo8vOIui5xhxVrUfY+1hSCDyE13WOXckZ7lSTrXjusKQIoXUqG1+6226+c8HX/GfpBgWTVYPy+aeGXcOu/5y3tDStClXUmWlvBrtCRAtK0C8B4nQAyNkQiD8/rQ06TStJMqsRq+w1Klui0rCjRGJL1gUiZSADEw6yl7rmVoDuCDXhQHa+LWPoY6ajzTzNW91TaVPhuWSXEe2o/0YvYNRk21qdDUtlUkmMGT5GUlyLEnW5jrCEPDhz3v3R2hf9QPEx7D4nUPA4mHFPhbfcdUZXnnqlIsrs988X9A3ivVIw5moh2NsF1V9Xpfn2a4pJitPsoRq0AWrU+WZgjdkBLJ7fQXZPQ6HP2saSi88gsrMNyDz1e23nmQmtIbQOTAisSfeD3rN295DDF2ewNM2NgaGiJmOfozewSBHrsziEg2lxLpGRqV1iwEv293wxYOPHXjlg49bKPldQgDRO4WCFUYYrLrwhO1Kkx98URbac7qS1kKWDlP1SzQ4p5G8jm2xgc2jxQpFeIPxcWDKmhb1Woci/fnd0XDQ8ch+8WCIplaIGpGUEsHShSi//TxKLz2BytTnESxbCFnOa0wevOSKxBAKx3hJxovyi/QxAYPi0G2wYS0pHlloPH4YW78fo1cwrMYUdlp1brTHYsRomaveusIQjYM/zO56yJcHXvKP6XZkI0VuACbqyeXHbv20v/D9fflemy5CmgwFU7M8YBPBk8WARRwZI9/CT+G5eqTbIwGRzSG1xQ5o2OcYZHc/DKlNNgdSaSKMEkIIyNpIq3PZvgKV2VNRfu1/KL/5LCqzp0F2tYHuT13drCemwWkjAoyeYUT4MOttbQ8HYZPRj9G7GFwxRnBci4NjKDILFoSl+jrCkAC8YWOeadjvqK+2nnG1unNYz3NZAHs1B4QQALDq/K8dWnz23oeErHj0kyeAfSLUudMSCdLB6DjQflktjW4CUw5OzQ/z2ttoNBr2+jKy+xyD9JYTIBqbASFqbZKGZ1XlFyotda3KZTGPYPFHKL/9AkqvPIHK1CkIVi50Wk/rOMFubUHGyei36nMMBpeSiHDVaFxtMuYJIU/Kox+j9zDoRHMFJ0klZzggChnFIETrB8ML0p/b5bLW7//mwszEL9X1nT2VqMIyNFrx9adaOi45+blg6dyJtu2W0qBgjVGdsymtiKJhnab8Y62awgOZXzrYig4CIteCzIQvoeHw7yI7cW+IloGasVJINm/KGCSiqGzlCHzIzlXouORbKL/0SORZsMiPuoLk075yYaWDBTbGcGA4B5U3ICqESfSxef0Yaw0jMs894Qe2/ujao/KC9YchJSAyTZXs3kftOfCiO16ysHd+scH2M18AgO47rj4qWL5gAtf89Jdl9YKi2pl3iiQ9BrX8iFegjsIygISJNUYgQ1qRbUZq7Hg07Ps1NOxzFLzho2p4pmKiR37OU0RJUfxUGmLgBhAtA01FohtndM3IB8+jp0wxC8bLhgGFD3NYIcJ8Xaj7ZscFmWtpMOvH6DUMNd82cSMCRLdhETsNYgh5fXK6vjCEAFDuTpffeO6v+Xuu26XxmDNKsLw3aLvmCssDgMJDNw3ovOXSMxGUo1tB2hHeAdpRWLwkSSZLVawNkMsVVaB0e6SUI13EECmkRmyO7K6HILvP0ch8bmcg2wC65ePKSjfL4mXx5CqPeGM6H4a1VP3j/TAGkFslMhZUqekFYMFw1ZUGkzCTKj8pa/VSaQh4gPQhfR+ithjpPOt+pDLVykEFkEEihm2s9DXDWN1+fKoxhKEzjF2DYQepolT82NqJSnEfwhBAsHz++OKkB88G8Bsk3yHUHhYlDAAg/9idO8kVCyeqBhmLSJ2rBYhwgoy4DMJy3UnVcRlOqLIohofFjraFqLV300BkJu6HhoP+D5nt94Q3aCjgeVpJQUoiPOZ2TuqRBGSpAH/+LJTffR3egMHI7nFEOCm2bSBLRjlR8tZYHO2TNLtLeejndWQ4psbL4BYMMHrjmipPUq96mapunfc/DunNPw9kspBdHSg8cguKT95hCqbXgOyeX0bDnl+u3bBIIWhbivztv0X57WcNBQzPVIi8rbat7+r247OAoYeOYRhemyD0SqGQ9ahoBEwMIRD5isp6xYD0yu++elrHVWfc0frj6+Yj+QulHv+pehSevDPbecNF58hK0dOLxBBs0zqQeTR/adZCS685nb6jWONDBySKn0J6yx3QcPAJaNjzSHjDNoFIZ8igVEfJCKJTrygIgHIR/sezUJ7+YvWO33tvIFg6H7KUR+PXfojsHkfEbheVVxbZWtKJNrseUfp8LLiV04IBQEoPIpuDaN0AItNYzasUITuWQxa7IWo2x+CtWFrGH5IslGwTms+4CrlDvwU0NBp99ee9i9KTd0JpVm/gRmj5xS3IfuGAyJiXXngE5beeRcOB30Tj0acjWLYQXX/9BfyP39Xm1hgTtggEQiXd435QhbK2MLSG8YBMI8SAoRDphqoR7F6JoLMNkBWjbt0Yal4DAZFpgBg4FCJT+7p4qQtoXw5ZLgGiOq/aKajx1sYK4bk2/oiWK+NorCW2vrmjoZehiPZDyS2vR4cwCQMAZPfKUeWpU37Z/citpzUd9h3bZ2XodRD55efSmy9sIZcv3JsqEt4Q3RpmTQSidNzg0EAxVXJasFQlrtFqdWUAtPz4T8h95WQILwV+d08pEQ0jJVApI+hsQzB/FsrvvILy28+jMuNVBMsXAEEA4RE8S79sKT7eVZ0Y4zPIutAUnogFpzy8DFJjxiO755HI7Lw/0qO2hmgdBHieJpKdbajMeRelFx9DadJ/4M//AJC+ud0kwhKuKNR0kIfms65B7ssnV7MCH/7KZUChCyLXBFn9Gadqe5oGoeVX/0R24t6AEJCVMoK2pUCpANE0AAgkUpt+Di3n/BFe80BIIYBcI9rP/QqEXySdC9tEF3hE2cAct7h+RCdhzTAgBLwhm6Bhn6OR3fNIpMeOhxgwOJyoYgH+gtkoPnMPCo/chmD5x3VjSAAi3YDMNrsid/i3kNlxP3gbbAR4qSqN7yNoW4bKe6+i66/nw587XcuTlEDjyRcjtdEoS6fdqfTS4yg+/W9zrVlEWP9IBj/W2u4Se/7rOz3B8BfO/nr5hceuBaCezXJ9hibgMSxU3n35G7LYlRNqTSgPgCgTbomgyokiimhpEPdQTRrR0ryMLmyuCb2hwyFqk2tTHLJSRrBsEfx576M8/WVU3n0ZlVnTIJcvgPQr4fZUAEgxj6aHKS7uZfO2+FHRGfMtBVKjx6Ppmz9Ddq+vQOSanBhi4FBkJ+yJ7IQ9EZzwExQfvxPdt1+OYMVCjW20V+HUxjm93Z7IHfatapvKJXTfeRUK9/8VsmslRPNAiNaBUO5Cw0HfQHbCXgAEZEcbuq4/D6Xn7ocsdsEbtBEgJMSgjYB0Vk+eN2gohJcBagorsp1ic2uMFVHqSf2gxWuKISWQ2fEAtJ53E1IbbVrLI4YRAHJNSG3+eTRt/nk0HPJNdP7+bJRffQzqbRAXBgB4QzdF8ymXomG/Y4BszgAWQgBeCqkNR8IbeiSKT90Lf+50I3id3e1wZLaeGGlXpJ2kUrByKYpP/RuSbNFVX3ky1jeVTVJHWOpr+RU9w5DdqwZUPnrvrPwjt57WeNh3Koj53EyaFwYrlp4YiZeANLD2j7p5upysRlXfuN2OsB59v1DAnFCVrPvfmKQ8q8KDN6P7tl9DrloKWSkZSlYpK6NeDE9XQJ4KBlckNn62BaXHkAq08NCw/zfQ/P3L4W040hiYoG0Z/MVzIbvaqx5A62B4I8ZAtAyEkBJe62Dkjjkd6Ql7ovO3p6Hy7osEtNYIujh9IHfwN4FUGhJA6cXHkb/tEqBSqNIVOyCXz6+2P9uEhv2OA1IpQErkH7gBhQf+AuHV2ra4o4qzYjHKrz+D7G6HQeY7UXjgJshyl+6jwwYZ7TS2D1z5WPpBDerawkiN2hresE0gpUSwYjEqM6ciWDwXkAG8ISOQ3nJ7eCM2gxAeUptuidbzb0H7ecegMn1yZPtlKKthm2HA5fchs9UOAKryGnwyH5UP3kSwbEGVZsNNkd5sa3gjxoCaUb5G4pRVWEc1whwLyefDZRiIo0Lr0TbVhiwaG60TAwIIlsw7oTL7nSsBfFDLtf2yjnmXsP2q0w8v3Hf9JlTpKA1rdEKVW9zACB2idFwD085pLBuGQW9/0BNSIli2AMGKBVVyj9ZhbeTXamRpljCf1bJtQY0+14FhKHBBBFECuSNOQfNZV1e9KimBwEf57cko3PUnlKdPhuxcVb0jB1F9On/gEGR22BeNX/sB0ltNACCQ3mI7DLjsbrSfd2xVaYmokEkJiHQG6XE76oYXJz0AWVNWfMvltQ5BapMtqxX9CkrP3AcIaQRaBQBZ7ELHBV9HavT2kF0r4C+cCb0nlmH/leGLaBNhnlIhtxnJiHysBQyVgmUL0X3Lr1F6/j+QHSuAoFybsxRE00A0HPRNNH//MohsDt7gYWj+/hVoP3NfyKAYwQAA0TwEAy65C+mtd4CUgOxahe7bLkPh0VshO9sgavEwKdIQuWakt94RctVysz80+RV0/OZ0+PPe5yWRFCyfD3hsONRYEUUTwRDm8PEwBh1jVbY6GLK7LVd+a9L3AJyjmsy7AJgKyyu/PukgiCDi1WjlQhoTkQOmVbWHJmAE0XXjhdkpWifyQCVJWuFblEZ4LkKPimFE+sUtCBslmydlwwyVZjIGXVR0IDO7HIKWH10DpDNQ8amua3+KwqO3AagYW0gAQFBEsLQLxSf/htIz/0buuLPR9J3zIXJNSG24MQZcdDvaztgfwdK59phKQyO81kHVjEoJwSdzjS0MGTqIpmaIppZqX/0KgqXzDbnQix5VpeW/P0WPR0RxMEusx4oaNVKFe6GRfmAtYwigMnUy2r59F4JVS3Q/wx1BBehajsLdf4BIp9F8xm8hhEBm/BeR2mIC/A9ejmDAS6P59CuQ3mZnAALBJx+j/ZfHo/LOC2FoRPVPloF8GypvPm2sgYjSkgH8OW+j8v4r1gHhb5YYyobQ2nwCqyfEx5QpKlW2WhgeECyae2L+7mt/0XjsmeqzyjR5AAJ9u7D06pM5ueqTgxUj3X+lcBSoRUOqa5uXRM/pgpMy/FN0hiIkClBhRDQzQiXCz1VdA0M3lLSTtpEB2DwoGw7HTMSg/a+dextsgpYf/hHIVOM/QfsKdFx0IgqP3ASgYvJiGAAAv4D8nVeg648/hqxUPQFv483RfPoVADxjexIxmapdAbkjJZme1fNRmwn6zJVaaBYMvqVQ5xEMriC5dK9jDH/2m5CrlkRjNYSHSAGFx/+OYNXyqqx4XtXLlVGMzIR90LD/16v53R3ovPoMVGa8EN7wAXMOSB8MfEtSckHbFvn1cGGhZ+PC1z3N055sL2IEq5YOLUx+5DhEfxgHqHlY+qLw37u3k13tI4UaJMsAUbdcnWurSr0kQN96pTJkaFliVUB4cDx9rkcBgO8bAUX6UKj57p+JEekPw+EfIYw8t0UwXJj1YFAvQdT+5445A6mNx1YLyyV0/+V8lF5+xLRgSf3wJAoP34jCQ7dUFxCAhi99Benxe+iFa2uqEQdhfKNzQmiV0qX9Y3WU73xDdwAAIABJREFUrFCr6sLgvLTCWV8YRr/tGLKzHcHCOWHooHVg6Lkp4nQDGo89A6KpBQBQfOrfKL34iOZDMahBkrwTJNlkzugH65vqlKDy5MDgZZSkVzGEhL9g9rdgeSVHJb0l9BfN3Vv6hSalGPT6IGCSHa2JTzzVwKpcIPLL0IZHIk3tTbeTVePux2zJRFiFY9D2q3YhVCA27zHuqXh6tAxDLIbumgS8oZsgd8DX9SCVXn0Kxcf/FlLV+l9PPwAf+TuuQHaPI5AatjGQzqDx2NPRMW1SKCx+rY4Ps8OBBHwYHrU++mH/AUCynw7QH1cUVVrNluaDHKnASgCZHNKjtoW38RiIhmZASgRtn8CfOwPB0o8BSFMJ6P5W2yEaW5DaYmL1dr+Xgsy3w//wHfgLZ0HKwKA3Ximh7WKyq+sIMr6sH0LK6vNSqFaUq1YYGACQ3nQcMjvtCwEgKBWQv+O3ENI3ZCCyA6FtQ9g2TSKEfR3SuSNGzjB4SjHGYBhKRjK63sIAIFcumdh122Xjm7993gzWM/OxhmDxvH3CVcXapyaHcdD9kOQozDKrEqj9s/2Ely6zdJQ7GNzDMbwrCwYN/OlGwmwzT3HekxO3Dgyq0DM7HwSvdvscpQK6/3E1ZDlvxhDIYorrhwQQfPIRSk/9C43H/wgQApmJ+8AbNhpy6Vykxu2K1gv/VqP3qnciASCTQetFd0AW89a+inQGItdcvcjmMPjGyZCBr8tLz96HruvPhUgJtP7mXqTGjAcAdF37E5SmPGB4JqEge0htNh6NR38fDXsfBTF4w5piIGPuV1CZ+TY6rzwN/gevRcbOG745Go8/B7n9j4MYMCQ0IhCQ0kdl5lvI33EVis/fD1SKkXiQoX+IgPGxpV4x7QcaGpDaaGOotyoqs6aZGBLI7HEERK4ZUkqU3/gf/PkzIVKmsdYYFi9O73oULp8bx7mRKaN9cGHw5NBXvYIhi52DilMe2R8AV1hA7Ul35P/7zyGdV50x2sZLkJnV2z+QgSVlgGm9qNKytU5/K6uWZ/2EDdXWbLLiPBwNRTFUnjQVqRZaZsVsyfYog8s9j8PQE+ulkN1lf01R+Xgm/OlTDG/TOck2jFql0ouPInfM6fCyOXitg5AeNxGlpXMhsjmkN93S0i8P3oYb1zWmgEBq47GGV1sZvKEu9TbcBOlNt6zyaawpOcnamc4hd8yZaDrxXIjWweYYhY2CTKWRHrcjUmO3hT/zNcPzz+56ZPUh1eGbmYOimXhIbzURrRf+Hen7/4LuP/8MqOT1uHFrr5QWNcTakyIKTM+2BDIT94U3bBQgBCofToc/Z3rITwBACtkv7K+bV3r+IQhyt057mIb7ZMq65ELEkvZ0ePcpATXenK8FgypT4WhP72AECJYuPKz87ivXZT73BfXr0eaT7oXH7xiJSnlkZIEQayjI4mDGx/BmjNdzyDXf1kGVU0Zc09X4UssTCli4WGzfrNLXFIMoL5vF5LG7uE/OGBg82JaAoV9eFoBoaEFq88/rGSu/+RxkqRBaYMuCicNQtP5H70Ou/ATYaBSQSiO95Q4oTboPMt+B8ju1u0peCunNx0NkGyCDoFqnu8PeyWwO6bHbQqRSkIGPygdTAb+si/2Fc53jo8Yl7EIKzadcisbjfgCRrjr5QecqFF9+svpdsfZlEJkGpMZsi8zO+yE9ZttQZmp9zux0MFovugOiuRUCEv7KZSg9ex8q774GWSkiNWI0snsfjfSW20OkM2g8+vsIli9B/vZLIUhIV3B5U6dc0AmdeoYwPXYCms+8qqpYSwXkb7scstRleBKisaX6lLwQ1XF79/UaTwFvxOZIb7cbUsO3ADwPsqsNlQ/fRuWdV4DuVUY7QZpiXnsQIrzZL4MK6QTMc6p4YgyhsTUWjJY6KHS9rC0MCciuVeMLj/xtEwBzYXuX0GtsmSCLXS1AVJvSx+slWWjGwlYkxupkp2oClRKzaGntaal6MiozNMV9x0opTFuzlNKIxLfcOikkkfbnvyLYcRhqgiQgWgYitcFwPfeVd1+vTg8VBEvnXRjaancsR7BiCVIbjYIQAqmRYwABVGa9gVVn7FOlzbVi0K2vVLejlTI6rzkblbcmWy25t8kWGPTXyRBNrUC5hPZzj4ZctSQkCCr6OR/ruKl/EsgdcRIajzsTIp2ubpPeeh6dv/sBgo/eCRdcrTeicSCyux2GoH2ZZu5tNAYtP7seorkVkBKlaVPQefn3EMx/V8erACB/z3VoPu0K5L58MuB5aDrhxyg9ey/8Be+FtpMvKmqkgWq8TxtbAdHQhNSmn0N232PQePi3IQYPgywX0X3jxShOusfYLQhU45PKg5Rd7QiWfgQ0DULzyRcjd8DxEAOH6FfMAADlEvyFc9D9j6tQfPzv+tkvQzmgJnupDFp/cRNkuVztROAjaF8Gf867KL34KMpvTQIqBcOb5DcujPVOFIe6aabqUA8Uio/SB1TZrAUMme8Y7i+cOx7APLAfYU0DQLB86dYI/KjlqaHq+aSuHJlkQ0iVFRJGFcNIWbUPSVyQdD1qBcnWjD7QGflqAm0aFU6mSHjMgvI22saC/eq8RxgIlX6qZYi+ewQAwaK55qDxfoh4DM2/XESwbJFupxgwCELUvOtKd1WA0mmzw5USUOkOMRS2BHm1piZllUKVVrVTsP7xcasJpjdyczSddGH16XopUXrxMXRc9A3I7rYwzKCFXwL5NhSfvlOPn4SH5m/9Aqnhm6EaM5qKjvO/Fj4oTD25rpXouu4cpEZticwOX4JoHojcV09F1x/Ptv9WFJFLIQBZAVp+fjMy2+wEpDO1l5Q3qCptISAL3Si/OQndN12E8tRnjblSht4bsVmVVsrqe5ciiwFX3I3MhD2rhH6l+hiKlwJSaSDbgNRmW6P1Z39FetyO6L7ux5Cl7nC7SuXT85Aas405zkJA7nwAGo89E/7HH6D7hgtQev4/AMoRWZT0nCkkutaZg0mYGAervK8OBvwyguVLvgTgUbD3CtMAPH/J3K2AcCEYSoZYG8MQMYWiKhgxL4QeQMiQeAFE22qPiAoM6WCMfrPGW2wYmidro22fHseb5vN4Tz0YxtazqUXZjSq/ro5w/MlY0bpJGACAQELmu0PFnmuqLgo/MD7CqPqimkOciTADdlqjgs2bNCpWaXKHfgfe0BGAEPAXz0PnH35YVVaWfuqqBCO18ZbI7nlElaBURPdNFyNYscDA0LInAFnoQOHBm5HZfg/ASyGz834QuRbIYqfVs9L9qHUyNWIM0ltsF+mO9CuoTH8JhYdugb9gFgABUXMXqMfgDRoaykq+C00nXYDMhD0RLF2A4tP3oPzWs5CdKyBaBiOz/V5oOODr8IaOhEil0PiVUxAsXYj87ZfW5KyG3bUKwbKFQKUEWSrWgFLwmgcAA4cAqQyEJ5DebBxaL7od3bf/Ft23XgwBX68JwfoMLlMI+6HGlq5z4+Fulc3W9ppgyM4VXyxOeSTbsNth9CHSIF1667mmjktPHkuDvNxKGIF0pQBCzLCRtfqGe8d5kTqGN0MGw+g8UTg01RPD4hi0jXTwJEh7TRhnANr2Hle9GLpxEhApz+ycJDNpkurKcRhGXRmEnme5BNS2S9Si0bZrCLLorFsRmmyKxZKkRG17d4jOKD5xJ4IFH2jPPjL+zFJKAJkJe1WVAIDyxzNRevUJE4Mav1qqvP86ZFc7ROtgpDYYAW/DjeEveN+KwfvhL5qDyqwhVe8nnYFoGgCvdTCQbUBmp32R2XEfBIs/qr5bec+1kMUu07NoadVzkBo5BqnNxqHy7qvouPRk+B9NByD1eilNfhCFh25F66//ifTY8YBIoekb56D4339CLpmtB6nz0u9A+hIoF6vvykoJeB685oFIbTYODfsdh4b9jgVyTUA6i6YTz4U/fzaKT/wtNMyCjBVxEuicsktjrNTapGuM0q8phiwWxxWe/FcTgAJoDKvywVueLBSawMBd2w4lVNavOFBrzxqk20O8pjAzHAiaZ7xzKKPKhN/RiltMNqUX6adqiy6zf++dfwfLfH2nDgyERkCWS0AQQNY+GSOaWvQYGeNElF0chjEfucZwy5zvhgyktm6URcTDYnProqVjZlhKMi76GoA3bGOkNt68mlEqoPTc/abVJX2OeLs1oUpvsxNQ9WVQeedVoFSB8Bqi4yHCMZSdnZCFbngDhgC5JngbbIRg/vuJ/RApoOv3Z1Y9YCGAlAeRbYAYPByZbb6IhsNOrL6OM3IMmk+5BOmx49Fx+cmAXwjnqvalDQAQLYMQtC1D+4UnIFg0Mxp28QD/43fQedn/w8DrnoLINVe3sQd/E923XqQnIvjko2o16q0IIOhaAX/JHJRffRKFp+9B6wW3whs4FEin0XTSBSi/+CiCjqXOPmuHhYwBx9DVmH7QcyQQO671YsjOFUNRLg4BsIKySpffmtyEwB8djqrJjDYk0lDSVv6dq4imYgJp483pDa1LOwwYCgMsL5IcGFwhRMpjMOK+1pCIQSe+cxVkpQSvoRESqH6M8B2ElkHj1tcPveC9BogNhuvKcsUS6NdpGG/OS89xDJ1uP0IF55zLWlFqxOb6dx/9rg7482cZGHQrQfuklYiXhTdycy2AuQOORXaPw+IbWOu/N6Aa+EY6A9HYovvKMajRhkA1TkflvwsIVi6G/+FbKDxyM3JHn6FfgG448P9Q+XAG8ndcFn5ptVQK5UNK5O+6BsHCmeZ8kjEQACofvI7S5IfRcMDXASmR2eUA4NaLDIMUURiEl5Q+yq88gs7ffh8DLrq9+rN2w0chs+shKD75d1O/MGzUgSEJna0f1i1fTzGKeXgDNtgOwKxaaQDA8/xFH6ZlOd+kYqnWZLPotEwPlOldKZ5SkgayRSDZiZYV5YHQiVC8y0UW6I5fVdp7kKSNfHEJRF7NobzpqzhxZfVg0IUp25dX38ivVU7V3uTX7SYTS79+EYsBwGsZjNSQ4VAPNPofzzTqmtaSjCXgjOdFaCVZaxJO8dFNGzC0qjxl9cVuWSCPUCiBJspCzb+WYy8Fr6mlplRk9en2IcOQGjIM3uAN4Q3e0HqeGrxh+HE8o0FRDN0PYY6VHnNBDXYZhXuuQf7u6/SANR53RvWrsGreuju0fMjAR+mFx0LDa8MQAGQF5Vef1jxTI8ZANLaaoQCYi572A6i2sfzSoyi/93rVuKbSyHx+d6idi+4zXWfkmIghiZyw8ZFrAQMAyjPfHE9mq/qku798CVC2vRwdaj/DZaeWnCeBSCBO5WkPgC0Ww/mgC1UQIQIlAuCXI16N9S4hw1DndJANC8GqRgPq9nMbXt0YXe3wF8yGN2wTAKgFh9MALM/T0HF0YCj2qVFbQQwZDiEEgmIelQ/eqI6pMeAxbbc3113HNl88ZcjHQWoSruuQ9tMvdRD9ZWIKgcq8DxAs+shSGpOC6tc8VRM4Br/RUSUk5UyWJQIUH74FjUd8F96AIfAGDkV63E4ov/YEBIBgxdJQLot5yJULkzEA+Is/AgIfIpUGGnIQDU1AsSPEJ4qD1gNCnrLYjcqM15D5/G4AAG9E9bUl44u0hF6d9wSDx6gUYWQn1lMMDwg62jYFS+nGPY4cnn/oRiNQDj6YiiGTCyVcRgOFWV93UNW3LTCFSxc265wQlJ/7B06NdwlhYpgjQiaWtKGeBcpTRHklYBjeTaWA8puTkNnhSwCA9Objkd5ie1Rmvm4oOrrfj8NQ45XZ9VCIhhwkgGDFJ6jMnhZ130n7Xf22KQoutAo8Irg8FfKah2huhcg2AqVOwyvQVlwJMx2rIIAsdGv84jP3ovvmi+2PKMSl2rNNNgyjH3Ss1DywMYcEgmWLECxdWI2RpVJIjRiDcq2Kv+gjSBlACA/wUrVvwrsx9Pz6JTbZ5lkk/kPKaJ5sXxmGLrKNEMKDlOErVbb56gmG1SDz5bA6GBLwmgeMg/mku+eJEWNG68+KRPmGTJ2FZFxVYuA2RUYBqWLTR2nS27YoibEjhsG9REpi66OLv/1VHGnwjsWQMCa2NPlByK5VVbrGFuSOOQP66WVugRP6ISXgDR2FhgOP1wNXeuFhyI7lJr+YRDFi6ckwGHUcKVg6D6h9I140D4Q3bFRke0qngYcPEJTgfzJfX3ojNgP8IkTA/mx59A+BE8PV90geVVxBUPuoYrQfwZK5CNSWvyEHMXSTWAydn2sNt7HFPGSxO1kZkDZpA9ncqsVNdrdDMu9KF9LrHmDwdaZo1hhDALJ9FcB+RcejP8FBeVraaFxQTL0YgYgA8sQbZriWxMPjrqZbmUa/BGokbqX54MUxh6mc4j4pwz+7EochybUQgD/7bZRefVqXN+x7LDK7HmYqadZGJ4ZIofGEn4XfIi92o3Dvn6PKhNR1xQBtGDzeVS9PAcBfOAfBiiXVeW1oRHbXQyLCHN1yUf4B/FnTobaTmW12rv74BcG3yR/vRyyGrWNssdH6UqL6YcPWIdWMIIC/9GM9x7LQicqMV6rjITxkd96v+nSJC6N2TG+9Q/V1HQD+wtmQ+Y7Q2NF+kHNDXCSqD6FuvYMeL3/+h1XlKlk/6Hj1FMO2dohRXjMMuQXIIw36n3XCBDvl3ilbTBLMFVUk0myQLpPhkbIzPm1C68Z4P/QxgzgMpbwohrS0z4bDH2Xgj1JI0pEkDMEmVPpl5G+/ArKjDRACIteE5rN+h/SWO4bBTFlPPwRyh52Exi+frNtXeOgW+PNmmJ+rVuNrGUs6gFZX3hh3c57oTQvbNjlYsQjl6bVfJhceGo74LrwhI61etWojxQCA8tRJkIUuCCHgjdgM2b2+Eo5NbWEY80llUiZj6AUj2VjFYKQn7KW/eiHznfBnvk0wAhSfuU/TNhx6IkTjQPt81PiL3EA07H2UJii/+gx4UsadxhvplloCyGzzRWQ+t1N1Lvwyym9P0muV9oOPSb0Yut30WpWvDYxKcSiqHpZ+PceTK5cuFsIzvBkwBoYCU/m0YSrZ3DLi5lIlZri/EsZjEepa09DOSlR/aQRESZDzyAf8mIKVNd7cm4t2xp5cD6pyDysOgy8WAaDy/qvovv03mldq5BgMuPRuZCbsVx0PRMdC/5CHBESmEY3fOA/NZ10NpDOQUqLy/hvovvXXEF44j8axzuQaFoWt7pwl8gwqKDx4M2Sh+kpPerNxaPr+5RDZpuhYUQx4QENTzRudisqM2mdm0lk0ffeXSG0avp7CjbnqgBRpNOz79WoQ24ZBFG5mwj7wRmwZyiLhbWBIwNtoLJpP+VX4Qx4v/1f/mITCKL/0KPwF1Qc/UyPHoOm7FwDSs86H9FH9IZEttqsuh3wXio/frhe+GLE5pPR0LNS1e/A22BTNZ14F0TwAEkDl41kov/Z0xNGxjheI7LowlIdK26/klAjMGmGU9M1A/XqO5y+cuwJeKuJFGQpJEKEVBlnYEGYp6OKijdMLT/GgPZLhtW2R6HrkJ74MpVUpw1/wISofTovWE2a/BMUjfasnxX56pV4MOkkCEJDI/+vq6k9s1T5QmBo5BgOvfgitP78Fqa13AbItkCIDKVKASAOpBniDhqPhgBMx8M+T0Py9X+lnjPyPZ6LjV9+GbP+kOjaA8ZE92yMcik61Sc197LBQQYN93iht+fX/ovjEP/TA5A46Aa2X3ovU6O0BLxvKoRQQqQakxmyP1gv/gcxOB1UxSt3o/vvlCPLVYH1q480x4KqHkd39q0C6CbLWsaqX4QENrUhPPBADf/c4ms+8EoCIyh/rR2b8rhh4wwto+s5FEBuOhvSy1d9Y1G3zgIYWZHb/KgZe9zRSm2wBoPpTWt03/BIQ4Ws0QgBB22J033ElUC4BQqDx2NPRdMrlQPMQDSwhgNwANH7jp2g+6UIIz4MMAuTvugb+otl6fTSddBEG/OZBpLfbG8i0wHzj3IPINCGz8yEYeO1T4Q+MVCrovv48yPyqUAYQzq9NIwtOx8sRelNcK60tDEjjY6PVdwnLc95uRyYLFIuhFleDLYnQWrSq8ZUADszyrDEUoQ+a3gjKMwyjOlFUwarlKL/5HAqP34Hya09B5juqr3twDAoGmLeXeeNrGLYvM9CySPynDgytzOlRAAI+uv54NmRnWzXwnmuqPpB42LfRcMg34S/+CMGijyALXdV3xwZvhNQmm0O0DKSNRnnaFHT+5nvw570TYguzbdQKWmNYtH2OcTfmCeYc28alWu6j67ofwxs+CtkvHAAIgewXD/r/7X15mF3Fdeev7nuvV0kIrUhIQiBAIIMssRMQq2wcSIxxwMbbYA/ExuMl4XPGDrOEkAzGfCbBQxbHk9hAiIF4ASa2M8ZgtgFsCxCLhSyDwLIEUktobam3t9yaP+6tur86Vfe9btFP/Zjv1fd1v3urTp3fqVOnTp2qu6Fj+VmorH0a1fXPQw/uQ9Q7JXkP1tHLoTq6MPLw9207Ks8+iME7voLeq64DiiUU5i7ElBu/h+pvXkJ17SrEO/qgogjR3MNRXHwiCnOPSPaDdm61TXMiJ9EOAChMnYGeK/8M3R/+AqrrX0DttTXQe7YDSiGafRiKx5yEwvwjYZ4r0jv7sO/GT6L2xq8ztdEkXf7xHRh+x6nouujjyeMyH/vP6Dr/UpRXP4x4Rx+iqTNRWnYWCgsWA0pBxzFGHrsPQ9++Cak7S9ofFdBxxoXoOP09qL2+Pvk82JbfAFpDzZiD0jEno3D4sYAqJAKUhzFw2w0oP/m/M0fj9EfWx84+MtkL2y8vr+sdjwdGKBULsw5Dbc8e6JHsJj4NuPfCGDDQWDSOxITSqXCKztnB8VLSZIqx7ZUbYbTIApC8ifK1l1B+5F6MPH4vaht/ZT2yfetEAEO2Sb4OuF7KezRHpoYY3MEgPQJQlWEM/uN/Q2XNz9FzxbXJLKkKQFRE8dBFwKGLHOfpOO6dWzH8g29h6J6/Sh6oNUrTvlGZIsuH5deuTJ4OTFQgDM+ZbALJ7lcM7cG+P/8Ieq6+EV0XfBjo7AY6u1FafhY6Tjib6FP0WhVI34SaYOhkINeq6PnYF6GmTAOUQmnR8SgtOt6ta3gND2D40XuBOHt/szeZpO2Id2+HrowApS6o7l50LD0DWHqG15hkUMaovPQLDPzdn6K65gkqFxjVEQzceg1Qq6Drok8kjvbQI9Cdvggx0WtaqTyC4f9zJwb+4b8km+1W+bBXWRFFKB62GMXDFjuTZ/KbCBBv2YDB227A8AN3eAONHaocX9Kh60C+Y0vCrsYLI30pgPu2htIR7xiu/WbdZq0x14ZowqDBAoKMWcHuXdhBSV7cmaBZspAzCnhiuZzSKZ/KL59CZdVPUX76weRSebWaRSnCWUoM7+OwObRJef7oC0Vcpp2jwjAzC+nN8o6rKD95PyrPPYLSiSvRed6lKC45GYWZhwKlzgyzVoXesxPVV3+J8lP/jvIT/4Za32vWccuImVMS7FRR/sVDiKbOTHntyAYu3IlGD+1D+ckfJy/7q5aTAZ2DUXnuCcTbtgAA4jc3Z+2j2TTeux0Dt3wGIw/dja7fuxKlE85GNG128pBx2rZ417bkjQj/ficqqx9yl3KoYuier6Ly9IPouviT6Dj1XYhmzU++1Wj0MzyA2huvobL6UYw8eDdqv34GyT1Roi+oHQAw8sA/o7ZlQ/Kl66W/k9zUm+pda53cfLrrTVTXPYuRn9yN8s9/BD24J+s/IIwx1I+BWz6P8s8eQPf7P4XiklNtdKzjGHrvTlTW/ALD3/97VJ59CLpW9rYTBm//H4h3v4mOU9+dvOOssxtAKpfWiAf6UdvwK4w8eh9GHv5XxNs2glxh1lemvQreOPcuBMik4I9bSuOFkbTN/QiFGnnsvin7bv2TJ+O+V49zXgPDFQHP39hfHS6US0TnwWivhb5jkl6ZHSVUhGjOkSidcRE6Tj4fqtSJ2vYtiLf+FvGWjaj1bUL85iboPdugBweSdw7FNSjUPHypcB0D3R/6Ano/89W0XDgk+JGNOd97/Ucx8tBdtoOCkSFjiagzqFsAQATV0QU1ZTqiKeljJjqGHtqLeHcf9NAgoOk+IIFP2X5/gR9ZqfmTjBOiFqiwloX+HgZ9u0rFFMIIOex5AejuQTRtLlR3cpuCHupHvHNzskFvv5oRaIdO9dPZjWjaHKieqYBS0NUR6N3boPftSt5oQNO5bT4NJs8uUztTpVTvk2ekzlQnr3fZvRUYHoTW9EQC6SoXw/R5VISafDCiaYcChRJ0ZRh6xxvQA/0JT6kvrguVONBJB0NNmQlVSh7+1uUh6N190Pv6oeNyoGPy2ysxQkYbcg9OxjhjFGYdtWb6va+8M81KPqTaseCYQV0ub9DAcSpUM61tZw06lvtNdraVQoqOdKI0+Dy8D60Sn+Q3Rrz5ZQx/52WM3Pf3KC45DZ0XfARdF3wE0cx52Sw9tA96zw7EO7Yi3rEZtS0bEG99PXFoO9+A3vUm9MDe5Ka8yhB0rZLIQJrOu7/LDcHZefn9B7i64gsQUuXsH2y5iqHLg9DbB6F3bGJVubgWLDwDanGe9FfNNUQx4bhCug7fW+ZbDPejvRrInq0jnlm9GjC8F/HmXzt8OeW2QwFADD0ygHjLeqfc6DwvCjDEQV0pQCEGKoPQOwZR27HJsW2WIayrBhi6irj/Teh+8fYEw0ZEf8rhr4HqMPTuLclfA325jNND7o8ght+W3MleDtTxwih17Ea2HEyWhOrwY6s7rjipDzs2ZQ4nMHKywUPZTK9cY2QhzC9v5psRq7jc1En/SQdp5SI5dHUElRcfQ+WFxxAdfAhKJ5yLznPej9IJZ0MdNAOqe1LykQK5gVOrQg8NQA/sge7fhdrOLYj7NiHethmFo5am7ct/42i9PJ5deWlrZ1vRLqkr32P5BpiH4SQtJhUuosEccjwh2iBNG2NcMVIyp74XiQseDj8a9JLOs68Wx1A9vea+BueNoyjOW/RS7RX6hJJxKBw1BZSpq9DMAAAa70lEQVQP6kTbSXC9pIk45MzEwmvCcWTQCG6MWgxxrPf0YeThu1F+9LuIDjkcpdN+F53nX4bSsScnX1RG5lx0oZh8pn3yVOjZC1BUy9zmiT0qc5x3tVDqxUlCR86kQNUcWqNM+LoKzlIBDJufkiuhZ6cPSS62gXpRQhuj+RimjimGwGCb4HHHY8oZb4TT0hgaiPu3ryE4++XnqLZ5/SrV0W1XQ2aD1L4tVCqVBaZjM4b44w8OjRGQHSDRKuGADC9ng87ogvEYQAE6rqK2+RUM33sr+j+/EruuPAWDd96E2huvQlerwahJ3ngq8+QVQk2N0HEMPTJkv+nnck8yHB1yEedJJ4SsM12B8zHcdsEuPa3uzKBAZkwhH+s4TpKtjdFcDDs+BC+kZTLfOg3GDDnSNJ9xWxkDGijOO4rXyzbCijvP/UDf0Jabt2Hv0Cz2AsbhGEU7AEZwZDMCSOjQU+3K1NduPWdZSFgGw+n3AB8QjXPHvAIQj6C24UUMfuNFDN32FygefyY633U5Ok55F6IZc+jOZ2V/c29d4CXiyBBq27egunYVKs/8FJXnHkfc96ojrCJd8rldwnEZdzznI1CHksRgPWZKJJUE+o95OXWFDJzaGM3DCH4o13g6wvAidmFLIdvA2wRDQ6F49PIXgQcA8ZkvdJx09uah7//t63ovZnm8ZceQUKF8TeXCp7h1NHWSyvCcGczQU+uYzhzYT10ZviGMCNCVIVRWP4jKsw8imnYoSiefj85z/wClpb8DNWV6qjyVKk/c2xLHiHdtQ+21NSg/9ziqLzyO6vpfQu/b6TgkL2IiR+S0i9tJ7eOlolw6mrbUwyBW4XyeLDjf6DLEp15ZG2P8MXgQEs+8XyXzOQVsxXHALYqheqegtuW3vCQEkO5hlZacNrzrk2etirdvOkHiB/deQA4ICH5k1fIhr+q0UzRc3nDqeHSdKkEJfJIhpDsPw/CNgHjXGxj5yT+j/NN7EM05Ah2nX4jOlR9A8ejlQLEEKAVdGUFt4yuoPP84ys88guqvn4be2Zfcg5TKoiJk4TBhZNMHdZ4OnIuk6YBnrzFhwO0LSc+TQGgfxZmEBL82RnMxeLIySQHZcoyg5Dc+LUszJsTYNdhW3BbGiCZP2xzNPWx3SmY23ZMvPwOAjtQjKHRcjVrZgmrmbCVwmSsF54X/RkgWWonGWCfH+awI4cmtHOacPTIXsfICGBafHUWtjPj1dRj67joM3/91FBa+Ax1nX4J4xxZUnn0Ecd8G6MqgU8k4KYMBo/QcDKdzbIOytnoyMQ81NgzLnnSoiV7xMU0kDr8AjtGjamM0HyNkE9JmiK9mGrYbGjOOk9SBdrQaBvTqnnMu3gd8BaC73e07a3sv/fQT/V9evV3XyjOcKIaAPQeBzNF40ReygWbrcLmg5eQMcEU0po7OqWMEU/UxnGhHE0Z1CLX1z2Dw5WeyzpC8iYdmLIGTi4GMr+N0HevefwyrH2E0TjukTtj4SC4Nd+BxpTZG8zDYJqw5mPpayAOBSY7UMxpyHq2MoTVQPGzJ84Ulp5u7oe2NfcZzxZ0rL98czVn0shWEPBIzDviKTFCvdfAe2fEY8Uxl/vIwmL/Bo3qOAhtg2HyS2yo6ypwwuMx6Z3IQAZ6jwUDgfDwwWH/yg6lSL7a+It1rZEtz2RG6jdFsDPmniCZU126bEAbLyRgKGY9WxlCdvUBP72M+lXgbdjR99netol05HIGsY5CzSFrGncvLGW4ER0NGCY5HFoPQUQAyJWhWEBpgGJmM7DRLchjuOJEQhuGhs+Ng+QRgWH+niTEyfbBTNPyNkXGERl3YxjiAGMzfTlZw8S09yCGqDIP5aIkl+LccBgD0TN7YsezMtRBvGwUQs8OKei77T/errklV9oByLe7M6to9tEIYAci5OJ+3Mg2gwWs7lTuROxykJGQy8BpZIRMkhEHieZGOyXeWoIBzv5eh86IbNsIJxrA8hDNTglZGCDrFUZKHqRfAaWOMP4Y9t//8xBje9gKda/gyMt9WxNAAooNmPtV9+oV9gjwCENlndADEnSsu3hDNWvBDb9li/jneAo7yOV96V9tgUddcXWR2Ni80QEk7VnGsRAX3xXQCg4sQyLMKZHnJIRoaJXUgneYEYmhzIgaUc9MfsmM7GaT1TH1LRrqVEV4bY/wxjBnwmLLOTfl/3nIrO0zqsSyBibHVMFRUigvzj3hQzT8KItk73Z1UOGzxt80T/HbgKOoo8ohK1NXwZwpuhBK0zkCV0YjK/kzF4IdE2Rg03BfTSYwAnkaG4TkCOcMI+azRGvoWwOCIU0I5RiWsSks5GFe75W2M5mHILYO8p004OpHseetByTxqQ8thaACdvX2dZ73/hylFLH6dl2MlX6WYOuOhaNqcDaxQb5AZRROoArL3sFMDQHwkPZhe0LCGdF4d1iIrJo8emZe356wsS+DPFN6yTGfkQi0TimHpjcEwe55MeGDRgPFwtYvbxmgyhrFXHns8jiSGgvfNT1tEdmbzhDNtJQwAKMw5/NHui67YBvoWIf3GXoTVfenn+gsLFt+rSYGO59TCgRAYTDnEOXUKOzNNv6Y9dhNPdrD03IDjCE0Zi+NhpEqXG4UchzMf5PEng3X+WgDDHFu9hfqLktURwv3MvNge2hjNwXBwtK0SxjD5fC7xHcY0HloQAyjEHSeff6dQhxNlRXQSA0DpqKWIZs39OzV5+nbDh9fWNjlTPXUklwHu54x4sJL3ZV7OAFfIQmdutMp4WXrGzMNQvozmWAXqs5GxbNq0i/6cfbQJxJDJ20M09VlnrH9Bx/nOhmsboykYzjgz9gB4e7PSpmQ9thW2GQe/hTAAoDDrsLWTPn/zT4gioj8g3XQHxF7WQdfduaEwZ9E9QPaFEadPVHLMM4ViQU3LVJYPUVfygoaz4Z6LAaI3POzohbMszcUA/RKGFvmWp4J3MYBlcGx5gjHsvoLhRRjB+ggc0+wjebUxmothxwz9gcaEw4vsxMqT2pHFJwxjRBotiKEVCkce/4+ZZrJ7RCH2sADx3mQAKJ109tdV1+Ttzjqbks1KpWE66+Q0+a5UMA3iRx3No5I9urOxyY5JZcpy6NAAA5kchqcnb1rHmSVk+1knmto/wRimWDOPwEDh/nNejU0WZjeNSYw2RnMxnKc4UloDY+ycx5Tpf2sLAt9JKU3LYQCIZszbXDr2xLvg+qJIHnt7WCZN/uxX1xbmHX0XCy0dA/kYPwzUcF6+52zKGYdEQgd8YpLPHWycIwnAymQ+QQwyMsU8dA5flk10DLdXXtadUAzSl7PPwjTI+iUDhxOu2xA+nRRA522MJmKwvabljsNgDJ31P9u491Vpz8u0FobWCsUjl95TOuH8nfCDKGfbSi4JOQxDz1V/dqOaMrvfUSoLyQ3RmVMzgjkdLTs4FTgUjVkeVNX0O2Pb+uz5WZECw8FXgobonHISnSMliymFnWCMUJL3uxlARYq1OIDXv6acxl4bo1kYxIPtRgtaZ6wFsNi5yAIzPlsFI5o5v69w1Dv/pmOZ+JRakvyvqcK/3yECgK4V791WWnLKdUDkBjlmZldZHr+xgd8SaveTzLnpLPa06bmpZ/m4bcvwDT/t5hll5WHw/piRTUY6vP8ljYr38+yvcvlNNIZT5nh6oQfGJFk04Tn6V8SujXHAMMyEJG3Fib51JocJFBTVkX/eBDqBGFDFuHDokTdN/vSXNyALlsxGu1weRnlLQuvAus655PbCIUesDnlR+vHzVOBcwfuoKEcTRhGea+dE9eWsZmHzMLg+OzthMJLGaSIBWTElXYtgmPcMadatTJTpbKCaYkXYgcigjTHOGNTPPOmzLTvbK5I2dYT2qiPzIx6tghFNm7um+6L/cJenBzdZ5xW8SsjnXb//H/tLx5/xJdV9UNlRpnFI6Z/sOCd8JudlGsB+ytKy10mdW3B5lGJYTJq1eCB7GCyvcGoQtGx4di+C5LdthZCjFTBI7wpUOUCr3WrBAiV028ZoIgaNFR42zrEYTybPYpDhs32EZJ5IDESluHTiuTd0XfTx7VTL22gHfTUndJWQQ7EIAArHLHu4sODYW7UqJJ6VBpcNdUX7gmv0lNQ0nL8S7bSTMNiJqbSOJp48zvl9W0EMdqAZC88Q7RetrcBuXV62GQwrRwthJEpxjcgbS2kl3kg1DLT2z9sYTcZI8wyGAvEKYaQMmE9ofEjMicbQMVBcfMq/9bzvqu8hcJdCmtgPZV/NySG2qffya+LuCz9+UzRr4VOpjNYpsPTSR3GU43lrKrN8jFLMYIZfP/RmAxXIz8NwZg7iKes55wF+EoP10SoY1oooXxG9MUTDL6+vuG4bo8kY2rV/D48xcsaJwdaa7EmL8gnGiKYesrnznIv/qPTOFYYr71s5916BXpEsN7a40Lli2H3p1du73v2Ba9Sk6cl7lpWVzfGy1Cbn1x6bDPbe0hmRV7cdHNIm8QLXy8GwZcJBejNLCIPp5dRJjW0JDKEXy0rkyz0XmBlQCXxkM2Ubo7kY4DKd8dai3JGFz8kmePXj/U4kRqm7Wlp+zn/vuegTr4OcEdUK3b0A5N3pjpwQbdLVN64qLTv7WkQddlCxjDLicoS20mbnihun3Wq8QefEoTnHxngszwCG1xlmJkhpOPw1NM4SFFkdJ1HGRGPwRqhclgSdPohOYPAVIsO/jdFcDDOurD3nOEQVOPcwtFtX7plOCIaOUJi3+PbC/EX/og6eGQqW+BcQ21Z5e1gyz6ae933qn4pLV/ytudWBPafjODQNLAX3Fcmmc0WevfzJsxMl5+qfosnLKIRoghjMMmdmkJvYitsl5Tc8RflEYhhfLUN57ifmyTJJI7U0YvJoYzQPg28NMH1ul1JaYKTH5o8xnEmRMGy1CcAAgOiQI1Z1f+BzX5p09Q1lhC/2eW8ZBTkyuYcVWiI6jDpOvyAuLT/z2uLCpfdrFXmRkKKOAGCft1LIGmdaZ08D+TwOzWAOjH3XaLRbJ4ihRL526WUYbJvGs4jEMB3YAhhmT0EzDicqd1hpMi4hn3JP2xhNxJDOiz0B+UyPBwIYzMO8HkZG9wcSQ02a0de54r1/2P3eK3cK7rwsDEVZNuUtBetuxE+66vp9Xb//iWsKs49YFZppMq1nA8yJxFJP4yknzbO0xJhnJcbgPMebhzCE4+Qw19RnPKddyj9UKpA/wRjOPkhqKN44MTMfyePIZYxY5LUxDgAG8xX1nCy2ixCtItlk/gHG0BpQ3VPLHSsuvmLyH//1i/CDJHlnQm7klRdRhdaWzuZYzwf/aGP3uy+/LJo693nHaSm4r0UBnZs2aV85rAtPRwFDMctGhwcpK4ShzT+aDa0hKtfAtOBpRZFCazg8JxxD8lD5vL09x4BsvDfTxpgADHOo3Lpa0igXgyMh62hB6UBhaECVusulpWd8prR4+UNUGnpm0LulimhiAJGiwtDDhnnMbRr411uPHrrrrx6It/92oZFYpcLy/hE7Fw6pIRqqidhzNqDBKX6NUvmejzwMKU8oSbzQLCJ5NDo/EBjSISpH8eE+cSIBouFIQOq0jXGAMDhfYMhycywnQFl+IDFQ6ok7Tlx5bWH23Jsnf/EfDHmeb5F+yPNJ0mE1rIBA2nfHV04YvudrX4/7t54Cpd2GUYucGYmckqc80dn2F74xAPA0bWjrYZBYWbnhBeJNeWFPCRsWy1l1ojAAX9dB50f6Czk9py73XxujaRiyvsw3vPKO6/E50Bgo9sSl0y782kHX3Xat6p5cRWMfU+84+HqZEJHcDON6EQBMuuJPV3eed9kHo1kLV0ErGyoqwD6k7DRKOhJRZA54fexsfBoFquTYeYf0KDCgqQOE05B7YgrUDmQOR3EdwLsaOVEYhpdZEjuOXNtqHr5xhhZf8mKjbWM0DcNW0m6+cQKMYSorovHGi8CwY6qZGABQ6C6XTv+9v06dVTktYr8R2o7yHsWBcHLCNzZMeXteAIDBu25ZMPSDb36j9ts177GeWFEjUgUpqazU6ZAeg1EEK8ZxcmklbyYQGFbx1BGOEyAZnCjHFJMTlBGQlp07QRh50amnR1Mm9GN0nxeRGhnbGE3CYBppG+6p5U8iuctPuLzsOGHa8cYAoLomDxePOfUzU6771r8UZi3gz8070ZJIec6Ly4Nvawg9fNgoRQDQ8+FrNpaWn3VJ6eT3fEdHpdg6Cx5wxqk4Hic7N3XYk9vEilVUTB7f0IUwlMFPaTUDpvW4MzTo2JsGMwwL1SIYjuEL3prOlXL1yL8yupWytTGahMH9KHjUwwCy+tKRmKpmknP4jjdG7/TtnSs/dGXpxBW3F2YtMJGVdFJ860Le6i14i4MShKE15FhSBCCu/OoXxYFvfvnqyvOPXa+Hdk+z63XpmMzgoxQa4LZAZR3unKf03v6BwPD0z/Xgd0AAPjm2xNlvS2IA7tP/yteV1GlwNg7gtzGagyFtlyNsuxJR4TIrg+CnBU1oHI0HRjTz8NVdKz/46Umf/cqqtEbeEs+Uhfa06tHnLgnzdu5D5Xkp2nvzZ88b+dkDt8RbXjlOkX/lmYYVpAB31MJViM0mZWqhwHoYTl1qvYBMjNCQkLN16PJkmmAMY1BhL+jSGxnk7O8tFaheG6O5GLYvRb87S0kt8jEKPpLHOGFoDahiJwoLj7u/810f/HTvR7/YB98ZhX5NGk25SRGJn2UGCLmsUeTlgA3cdsOM8lM/urG6/oWrdHnAeneTvPUv4BIAmXLoWIliNgzpHDynV8d4NNXLjf5ohrLVWwSDw/jcvRKQcwzgK4ml/LI2RnMw7OTKDkdOSNzXZiyEZGQ+Rp4UC3jrGFoDqufg3aUlp13fec77/lf3JZ8aTDnXi5oa3S4VirxsWZ7DGstysN7jPDGAaOj+b0SVtc++r/zzB66Pd2xcAmi30aaGyhQE0dFW9zorYkdHLJCSeRiWtXKNyZuBtHtuDUo4HnYarYLhGC1hOPqhPBkhyH0LJfLbGM3FMJlykso7Ng6G5XMudBGuOZblY8VI8guI5h71cHHZis/1XPKH60rHngKRGm2uBzfVc+htvpG53v7VeJwDQDzysx9NG7zj5i9U1z93tR7aPY07lD27Mzsp6viAsXiznhZ5NCvwWt76RO4IOP2a6zQ1EXqT5gRjMK8QhheVCT2GNn+l0bYxmovhRWKinjNemEcO/XhhJDYZIZp6yLbS0jNuPOjL3/0aVR+LA+IU2rfKox+XCCsEGvq1ad/Xr11afvrh62sb171HD+7pUhG8DpbLqKDxKPidL+k56UC+4BdcbuXIFJo9WwHDqoBoPEcu6wXyHWzm0cY4sBh5uEzCjqaeI8sra4ChY0BNnt5fWLjkno7l59w46eq/3JAWyX2nRg6pUSRV9+ZRhTFESKOglYLmlpV/9uPi0AN3nVRd//wX4i0b3q+H+qFCzchLIccVGMx8dUaZegjQqECfUYadbch5ePc+YeIxgsuJ0ICScgTqh8rQxmg6Rihyk1hyq0Hmh2QL4TfE0IDqPXi4MO/o75SWnXlL78e+tCaaNivvVgSgvuPhVO9iHvNyykbjsDgveKkxh3m93X9LO/LYfcXKi08tq7z09H+tvvrCeXpg9xSzK2g7gyKTvI7gZMNZc46ww5AbiowBwH3uS+DJzVXHCCYSI6CT4ExuCf0IYBQTehvjQGFowhllvXrLPsOLl36MQVJCTZq+u3jk0u+V3nnm33QuP2tt6eSV7KjqRUtA/XHfaK8qF0M2aTS7+3kOru7u/ihoUH7yh/MG7v6fH629sf5DetfWY3RlsAMQM5GIQOqGtiEDo47y9sHSiMZ2tozWAnChyG7CMfL4hFIdQlkklzFtjCZgvIXkTWLmXIyH4P6Voe/oHY6mz11fmH/0t7sv//y3Ok+9YLtPbdNYN9D3JzW8D2sse1hjudl01MvJ2oaXJu27/abTapvWXxRv27hSD/Uv0YP9EVR4kHshrnAItpMCVsPht9ys5442kZGdkPJmsQnGcJaK7OjgHmv4ZY4o0rGiDr82xrhhqPTEeQuEoHcmPyqS/HLzSERoQPUcVFbdvWsKc4/8SWH+UT/o/t2Pri6deO4wwgGMSXX3mpDvtHKfExwNhpIZOedjSaO510LS5eKNPPGjqSOPfX9pvHPb+bXX15+mhwdPinf1TUOlnEivkDtjmA4L+IXsmB1FgEheqURaRzrBVsGQZcjJDy45Rb6X2hgHBCPIrs7EJfuf6wCZDdk9qa4eqKmH9KnOztWFhUv+ryp1Ptz97svXdax4b39atZ7jkKne9tBYb2toWEc6rNHemQqql5c/2qVk3jlEGSovPlkc+sE3JxUPXXRc5aVnjqxuWneiKpaOiwcHTtK7tnboylCEWgwoI5cOsDLWUsc62qmd3pZJA0AMBahCESh2xmrSVKjuyeuiyQf1xcMDq0tLTv1l1NOzWhc6Nneed9m+juNOrWJ0V/kbbRHtT/mYMfIirLGkRiFho/2sEJ/R0Dm4tV89XazufnNZ7eUXUXn1hWW1vg0det9u6OGhbGYqdUBNPhjR9LlQpc4kLyfSScJtDaWUFxnZyCfLSmYuuLwaRVPNw0gKvAlZJ1j2mNc2FkPQUGhhZG1jNA/DqdcAwwu3o0K5dPg71kazF5QLc+ZVi9Nnr1Pzjx1G/eWbOQYaj0emaXQLQjMxvDCs3obZWMr2d+NtvDbs3gpuIxnGQnsgMSKizTvO49/GmHgMWS7zQvzlb558eXhvG4z9WRcxg0b3V+RFbqPJD3nkRvXHQjNW2eqVv5V2NhMDyN/YDPGX9NKwRlOnjfHWMUIDut4mdqhOoz2htyWGnDXqJePtDIMQgOy8egOsEV6cg2HK6tXPwwg52zyv32hGkDStgsHH9QaB5Js3wEJlbYzmYRjbHS1GSLZ644Md5tsOIxRhjcU5hPauQsKEaBrte0leeXShlIchy6WcjQwvLzUyyAONIcuYZjSzZL2BtT+RQBtj/6OQsTjHRnXGmt+qGHVTvehgPFK9KK9R9DEeGJyfRxeqE4p83k4Yo9Up90HouI3RXAw5Bhr95tX//wJDRlj1opc8rxeqv7+pEUZelFHvfH8xmCZqcBySoVUwGkVkEmu0crUxmoOBnHJOIRlGU563wnnbYBSpkBU8Fmcl670Vh1Fv8IXWw6HUKJyuZ3yyHfVSvZmgVTDq8ZBlki5UlqfbNsb4YYxmmSgdXSM7qifb2wrj/wEWWWKQ12wnJAAAAABJRU5ErkJggg==" vertex="1" parent="1JuLaVUi7zTH-Um1_Kfr-1">
          <mxGeometry x="630" y="1160" width="180" height="116" as="geometry"/>
        </mxCell>
        <mxCell id="1JuLaVUi7zTH-Um1_Kfr-13" value="" style="shape=image;verticalLabelPosition=bottom;verticalAlign=top;aspect=fixed;image=data:image/png,iVBORw0KGgoAAAANSUhEUgAAASwAAADBCAYAAAB10I2dAAAACXBIWXMAAA7EAAAOxAGVKw4bAAAgAElEQVR4nOx9d7geRfX/Z/Yt970tjRCSACEJLUKEEECkSu+g0pSviAV+CAKCYkFEigiIgIqgKF0BC1V6ERBCCL0lIZQkJIRU0m5ue+vu/P5435k9c3Zm971JbnLhufM89+7uzJnzmXLmnDNnywuYyav9ua5dyWPHeul7s04SfRKPetu1Jjx6A4POWb3zR/nw+v0Y6xdjbZZ9JjA8x5+rHJZzDpLUEFddG4aLv42up+1b3T7E0fYFjKSFFHfukoV6xrgfY+1gJMl5Eobrup629WkMwQqD2nVgaYQrz1af09PEF6mLzkabhGm7dmG4eNtoAnJtG4e+iuEaB9f80Tzb0ahbmfNOi+xqHxUsXwjZ3Q3Z1Q14HsSAFnitg+EN3qiQ3mqHD9cEY130o49hwJHH+SbJi03OeiJ7fRJD1FGxHmBOo+joJAL1T3oSZpzC5O3gGHHt7UlyCWhfwIhbPLZ2OOdWzpnaUnhzyvjC03ePR3fH1tIPRslC1zjZtXKQLOTTIiVaZKUMBLL6JwB4AkilAJGuQMpO0ToYXq5lhmgdsCzo7pqW/dzOMxoOPHZWducD36uz32vcj08Zho1vHE4SJix5rvXWpzGowuKA9TBJAutpmQvDtUjXFINe4zOCESf8tjHVeflHbmuqTHtxZNDduZc/Z8Y+spifGKxYNE52t3uQEsIDpKMhQgBShkegKlycXshaeToNb/DwTm/g0JdEY/MrmfG7/s9vW/pG7rAT2xt23C9Yk37UmdZorNYDxtrKX5u81jmGzcNS14jJcy2+ehvhKl8djKRUj5D1VBB7qx3rHKP88pNDOm69dJyolI/wly/cV3asnCC7VmXV6AtCq5SPiLnmSsp1bfCQALw0vEHDForGlpe8jUY9kNpki1cGnPsXlwe2NlKfnI91xOtTi2GLYXGmLu+rHq/HZUHAzvm1rYzzcFkjF896+ufqV73JNT7rCwOWvKD84dR0/t6/TqjMfPvoYPFHh8vOleNloRMQVQ9JJaVMbHkAtPah3hVNPM9KwzCkBCA8iOYh7V7rkGe8Tcbc23jQN5/MHXLCMke/12RsEsdqPWDE4fL6SW2wpSSvqE9juLaE9Jwvel5ma6Brclx84/jUu+hdyqweXJqShChpwtY3hlOpy6UfN626+qx9/Y8++HmweM52stTdAsiqwkHUmxIwlQxVLrzceiR80FMMdZ7KBKJp0NzUyDH/aTzoG1c2fu2sxTHjoFKS7CaOVR/DoDyTDH49CjTOUejTGIJnWK5pSrI6PfGA6vG2XLx64pnZFFZcn3oqYEnKe11jGP2Xc6Z63U/dO6D83uvHVT585yfBJx9tAQRVhSCi2zvAVCprmiLbv9XAkLJaWTS0FFKjt3kws/XEK7Pb7zG14ZATSoTMNc/1GEEgOp6uur2NQfNca8XFt551mGTQ+zRGT+SmJw3l5y4eayvfJkhxQsR5qFQvNsfqkxj5e/88tDj54aMqs6aeE6xYsJXypgC7RwSgui0ErNs3lSQ5MTwjntcbGBIQ2ZZSasTY/2Qm7H51y3cueEtsOKKSMFZ0bHhyWfyeylVvYbiMMSz5cQbbdf2pwojbEroY1qtA6lFmLs0b1544Le1qAy+ztSeujxyP99uVtz4wguLzD2Tz995waGXujF/KZR9PhKxA1mY6sgWjSqPmDjnLYdKpc+WpGaGtXsZAAIjmQZ3e8DG3Nexy4DUtZ1wxC/UrBDjKreNpyVvXGDa8eg24rR00faowuMKygcRZk6SG9ERZcH40j9K5tG8SHufH+1RvilPGPVE6vYLRdcuvxhWe+NflweLZh8tKMW3zYLQukLVzYSlDJLZuvWPIg/LrFKPG2GsZOj+97Rcvb/jigX9pPPZMVeyy9IB7PpLkmtL0Jgani0tJOLa2JhnJPothc8jrGWhKV48iqYe+3tSTeq42xdG5hMZ1Hke7zjDaL/te1l/44SmV9167XOZXNqlAt5EcXstaTesDAwCkQGrjraakd/jS6U3Hnjo1s+VERd0Tq6/OgWQDW48srw5GnDFek3Igvo2fCgwBE4wmW77LlXOlOB5x5/Wmetre0/M1TesUI1j4odd52+Xjym9PvtZfMHNfyEqoIOKi3UqZsIepZE0ZuDwevd3rgxgSgGga3J4eO/4nucO+9Y/GI0/uRH2LjKa4eXLJ/9rEiMNyKYM4nnEy+KnDSDJ+9TTERh/nJtN817XLw+AYcRbQhmFrky2trnJx9bvXMNp+ePhR5RkvXys7l44EyCMHbCtGFQGUErEFxFkdsHxN34cxhJepeMPH3pfd77iftJ56yXzUb3i5/CXJO6+zNjBsvJJSPUo2rk2fGgyXwuKKJ06B1NtIl1ud1Nie8qZ5rvbWQ1OP8ukJzVrFKL87Jdf5h3Mvrrz/6g9kOZ8TNXfFWNzS4BMqDeKRhIXEo7EpAbYF6+sYUgLe4E1mNOxz9Pdaz7lmMuwyDbjlK2nBxcnwmmAkLf56vDzXOktqc5/H4FtCl0ubtLA4SE8mO86Ls2G42snbFmfJ4lJPrcXqWMU1wuj4/dnDy68/c3NlzvRDgcD5dLrhjcCeVy0gOywWH7I+JPppwQAgMs3LMl848IfpkaP+0XL2NUleUE9kEZY6LtqeYrjW4Zpi1LPW+zSGx4jBCSygnD4u2WgUX847rj4/8k4HMNtdDwbPt9ElCZOLptcw2n5+zNji/+67t/Lh1EOFCPTipWEiw4tR+bVM9fKxEOEfpRUsSM5jTJ8qDAHIctfQ8iuP31x64/kfFJ9/IIdoqmeOuPzVQ7smGEnGj69b23qIW1ufWgybUrIR88Vfj7JyNc6F55rU1RGAejHi0poo5F7BaL/i9ImV6S89Fyyftxv1qtTiVl6FfuaKHKXaOtHFDaIsaEyJMBbs+lOHIQBZyWf9ue/8vvvvV/5ezplKlRY3dPRayZDNYNOjbV3wOj3FcHngHMPmzXiOOlwhfioxXDEsnupx5Wiy7Ul7wpMrN6486+UZd52EYWsPL7Pl9wrGqgtPmFB66fF7Zeey0cYnXFjw2vayseuJcptnY5SzuBJ/4PPThiGRRmr0+D+3XnjzOdktdywxMttWxKVIkgy8K60pRhzPejF60t4+hyEQXVRJYC6NaVMMLg2b1JGkttgUGC+Lw4hTIHF1aHm9bVwjjPLMqV73P383ofT8A/fL7pWjXK+y6ET3huraVUcHgmJoPkMY1dhZCqnRn/9L0wnnnNN48De7a0WuOaVpdZSJqtdTjJ6U9bTOpxrD5alwl5ef84VJ812egsvTCRBtQ5yidPHsKYaLB6Xn9TzLuc2zWmsYhYdumVh68bGHXMpK8gwS/KHB7Qgdwi2X+c7LZxejuv304c+ddmr+nut/33XTxVnYFUnSbiKu3EbfUwxbeZKB5+e2nYjNqH6qMNIxlSlz3jDeKF5my1fntkbFbZNcCoG2yYXJMeKUXVy+rW+28rWK0f6rbw4rPnvf7bJ9yUjbt6b0uYDxPBIAHRtSW0WQO28q8ccGuDPD78A5X2L+lGFA+vA/eO2UYrH4DoA/ktK4ueMyaluslNZVnoRRj/xwDBtf15rkvD9VGB7PIEy4MnB5AbYG1usy00byuvTI89Q5b68NN86icX49cfXjvMA1xsg/dPOg0tsv3h0snzdOABHPQd1p03fcBMsH9GsxNEZEA9gGr5pWMHZVrL74LGEEJfgfTb+y7bzjvk2GNUmGeEpaiK78OIw4+eBl9Xj1tjXTk3b3KQyq3eLcOArCmdu2SXHJNmE2hVOPpal3a0ppeR06wPXg1KMA1wij/NrTue47r7o6WDx7L6C6YCXZ7qg7ZfpP5atz5anA1HM6zCPI3TZCo7+IIBnP2onG/axg+MVs+cVHr27/1Xf2Qrxcu7btLtnnc13P2nHVUec274vvdHi9pPSpw7B5OLZtn83FDRLq0qON3tVwW56tYy7vL4Abw9UvnuKUMK/v8rRWC6P42N+8jut/cYo/f+YJgDSeWTKcLBl6E3oLRRRa5ChDpadjQtJCa2mo4a581jBKnUNKLz76p44rTh2N5LmqZ4uj6G3GN2kbSc9ta8flrdu2Ua4yWvdTh2HbbnFvhyorGwivazva+Nv2rRzXpZ1tbbS137U3jkt0kPk5z1N81xpG/pn79vbnTL9UyEpWb2kku/klwu1NZCsowvLItlESWumgUTwZv88yRtC+ZHz5zUlXd133Mx6EB+wyyOcNFlqeZ1trSSEUm+KzKUJK6zlobWvyU4eRJsRxe0iXprQ1jpbbeLo66eLhSlwD83ouDJdnZsN1eYiuOkneXyxGecqDTasuO/VGWexs4QoKIDEYhFsl4zUV6o3VMgXnoeI7IvRGKA+tEFQe8eSkMHl+VjAAoDL//cPFO8NOBfAHRHcSel6Lk+7fovi/+0eV33lxE6916JbS94fKzvYmGZS2Q3c7ZKUcNgiASKWBXCNE48B24WVmiCFDEaxcPM0bOmJxbt9jZqVHjnkv84WDSohfR7QdNrmqR3nyenFeTZ/FEKzAppxsjXJ5CC5QnuJo6qnP6WnbkvhwzW0boMBx5PWSxqxujMIzd6HrLxdc689/7/vKs7A+QIlwodLEHyStp8y20I0ytqhVDOiziCElIDLNhYYDj9txwHm3zsjfc53X/Z8bsg27HrJX8fkHdoePbYLOFbuhu32A9P0sEGQh/UgbBcVAOF8GjRCQSAVCeAVkGgrekJEfiqamN7wRo5/LbLvLJNm29JOGI75VyYzZDkiWnXrKbIpjdfisdwxhAUraEsUpLJsbF8fXpQz5tc1r6okyWVOMpHqudtSN0XbWwUeW3njmbiFLaeeDkDQfrEyR0JgWQq8C/EgTV458tVkUxGcRAwC8IRu/lBox9n5/8dw9ZaHrYNmxIs234L3RDwlUJSGbQ2qDjWcg1/RMZssJj4kNNnoju8sBnzTschAsKU6+eyKXLl59DkMgupBcLtnqeFG0nk2BuDw510DEtTGOV1wb4xRyUj/rwUnEWHXJt4eWXnz8ablq8XhVyfkKCtkKaUFnwk+9M1UHPE/xJAtOwFy8xvNNguiIzzAGZDg766MfmocE4KXgDR6+WLQOeTK16Zb3Nh10/KTsvse2w76mkhyDJG/GldenMISlgko98axcqd6G0jKOnaSI1hSj3nbz8jgedWMEC+ek235+zMWV2W+eJ2QQGmyyAIzYC7PU0kGL8BAmS32+h5Hk2hYfQj/GOsUAavOaaaiI5sEzvJGbP9h0+Lf+lvvKKbNqxXGyWs8arYeuz2BQhQWs3vbGBpakbTnfeuralBmvS/NdGPUOXJKX5VLkPcJov+z/bVV85u6XZb5tgJZZanWpNQbZgRCTbCwUtkisW8raufG9dWlZUBacfozexaBKThcTZQgIiIaW9tSoz/0nu+sBV3iNA95rOvFn9YZFXOuMlrl2BPx6vWAIBxAHtKV6NWu9ydVhnremGHEuJz2vp+/1urLW885rf+QVn3voVn/hzBONO2OwbAnpCmEelTWmoui41RaRUyeGUpI0zmIsvn6MtY/B61p4QwAyAES2qeSNGHtXZpudr2z99nkzxKZbBnDvSAC7rPIyfu4qXy8YcR4WYC7IOKar7WE4GufCcF33hI+tjT1xV5P41o3RfsWpuxUeve0FUSmEgl6bEcFWSaxAM3pJKnCDrhLnZdxNUx4Es/i8Pf0YvYDBlZkySqSSEb+UgGgc0J3a7HP/yu7wpStbzvzte4hfD65U766JXq9zDGEhjNse8nwOlOT6JW2x6uWd5I4mYcSletocd103xvLjt33Mn/fOwdw74j8hb1h3theJPHsFYoiFma+SLaCv+UmCR60/2bL0Y/Qehu0xjJCxiUGNlYSAaBmyOL3ZuCubT77gluwXDmpDfXIZt754eZIu6HUMOi6ciANyBjY6JJQllbu8pjjNa2t3klfVo30z49+TwXdidFx15sTCQzc+j0ohF5FOyx6EeliJ9NJcIPUmCxv3dT9Gr2EQ5wqARXm56klAiFTgDRs9NXfQ8Selxmz7Vu7A4+OquOR8bdGvdQzPwYTmu0ACRkvrBJY8F05cOwJy5DQub43zSeoHx4pLlFecwo3FKM+ZitIr/z1NVgq2b4yHiVhiQa+lnQYS4dZDsDzJrnldmAusH2P9YajfcRTk3EiOvCqG7/lLZk/o/ufvX8w/cNOF3Xf9cQCjjIs/JSXbWrKtg17DcAEnNYJ7EPzPVc/Gky5+Xj9JQcTxqief08QpxHr6WBdG/s6rRwfLFhwOIGqWpXkJwHixuSrFDIVuKWxmvrZ10F9AYPwptiR1XDD9GL2IQd0r4qbZdJRqgyE2NcUly13Z8tvPXpD/97X3dvzm1HEI5ZbLuG03EFjOXXk09ToGX8i8Ath53HbQs5zb9ra8EUlbPtfRtU2tB4N7h7Y6Nk3PrYXNy0zEqMx+9xhZ7BwWecUECAVYCbOynERRSb5gqHBTySb01MLrO4uKF8GmcZbIAgL6MXobo5YnCb1mxedZhF6YoIRQ4uLDXzxz38Kz9z296pffOBKhfLo8IFe4gyfXzomugV7B4F6FbRvHt3fcG+H5KsV5bLaFb1v0NhxaP86jcSkXnpfUbpcSt/FJxOi+97oWf8m8o5Ukc+WjlZA68EWBUIGpu0fqZV5qZfniUvWMX6IRRPZr2PwVEilCHtyS92P0DoaeW+pBKYUmTB4Rj41g6MdeOj4ZXpr8n3+v/P6+ZwQrFtIwBFUutrVA6epxItTRpqDWCgb3ZGlllbgSsC1KqrCStm5cISmMJB6ueFUSrUu5rZe08vT9ditPe/4F+OxHWwTCXzEmllkJML+zxMicBU4aSu7gb/UQLN5DP8baxbDx1g6ZjOZLwPgFbKXYIkAig9TobW/I7X/cT5q/fV67A82224lbOz1Zl2uM4dJ0XBvaAtk2pZbkSSka2zbMxiNu22fDS8JIatvaTgZG8fn7vWDFom+hUoKoWVGhhJFaaxABpSaF1NGxE8JDHxHykrQOYOAqHOU1ACYNbZO67sfoXQzYymF6UBRD6yRCzz21UEbK8Oe8fUrxf/fd23X7b4fBvT6B+gx9PWtorWJ4lj+wc1scioPExXtsys6Gb2sP3xrW473Vs8111bVdu5R1XF+tGPnH7szKro4jlcdkxCRqp5BM2FQeWRSRmAqLa9CtgaHvBKGHKdxq+2DQUMuOfox1gkHnWJjbQcDE4ApR5evtKPGwlLwJIVGZ+dr+hcf+fnfHjRcNhXvd21KSA2Kjd4WQVgvDpYSoV0I9riQwSsPjOnFxJ5uX5VKUKs/WFpenR9vv8uTi4mE2Xi6Pz4mRHjlmq2DZguHU8lEPyhD42okR81B0yoLTeiTWYRCD5SNcKBRLLx5Ow1ZDP0bvYhieUu3S4E/5KAzFT5hkVk+wRuB/9M5epafvurvzpouG1nJtcSeebLFlWofXjdtxrRaGzZOhxHEeVxxw3PYtLu5ku7bFtXqiNFypXo8qjk+PMApP33s0EIQuPlCNPXDTS5KgQkktMKPXFpcJrT538Sf142IrfIvRj9E7GCrZMLhei2w5aRvjGghAQML/eMZexWfvv7/zll8Ps5DE7b5Uigugc1pb6jGGxzN6kLhC4WW2uwUuF5Hz5HXoeT1btSQMl3vq2pom/dWLsbeonWnhEqHg6biU4kKuKT3YOQQi1rSnycAgeZymH2PdYiSliJdXB6be3grAn/P2bqWn7/5T/pFb4x5i5g4N6rx25a02BvecXK5cvcm1xaTXNk+NbiHj+HCviionm9flwuD8bH823LibBLZ26LrFFx4cLtsWTwRYfIHEN/Ttb2Yd6S10I4+cc5NsbBUYPcDOJcF2Jcna3Y/RaxiaB8GJiEUMhs5OcgVrZZW5047K33P91YjeoEoK13BZp3R8Ddrq9xiDx6doslWyldk0aNze1LW1o7xc2zqbcrXhxWHYks3L4orIxt91jKT8g7duI0ulHBAJdcCIR4nqdk8SgaV3ikDo9CscxOSrRWHEMYgUazy68Ignx+XbiLWgH6O3MUKXicgJqc8xDM8aYbuox64wNPsIRoDKrLdOXnnmAWcged3Fbd2S1gWtv1oYHJAebVs+lyKy1Y1zD10xrKROc48pLiV5iS6FF6dse5p0PX/WO9sBlbQhPNQ6sjxDqVFrSgTP+H2+WjJ+HcaygKhHR+RWYwjaPpAFJgh9P0avYig5oNfqxMDgBDUMFRc17kSrtjgwEJTSlelTLl91/vEHqhzYk2234aJLKusxhk2xuLyNpOCaTdtyXjatGhf7ScKIq+fCWD/J83YEoD89QmMU+menRGgx6fM6NOaghFzXr+VrZSdMnkCo3LRFprxqybgmGCA8tYXvx+g1DGHJFwxLY9B8ikFlh/DSysmBIUtdLaXXn/5T+2UnjQ5761x/rrx6aF06JxHDpkR66nnY4k+u+rzBSdtOFwZNLs/MtX2MC5IneYZxPGLLg5WLtlPn1MpB1Cwfs4jGW/qSLADDDId/WgAJPVlj1WxizVU7KI2w0REvAP0YvY5BMxIxLDIiCD1loj1AVW7BEAKQ7Z+MLU976U8dvz3N9qOygD3uzdcPz6e0lB8vT8RwLV7AVDA8cYa2IDjn2xOePM+2r7W12XXN22DLsyk21xbWpRytGIVHbhkFKYcIwHzuqmbpIOwelY5xEPoaeSidhvYLrTcQCq7gC8msYk2CXxDifoxexqAMlSKh2aw+OIaItld7gIDpIXIMAfgfv3eov2juqYh3IlzJtia4fuD0dWMkeQ6umFScV0Z5xe1Rk7ZpXCEG7Jxj29rek62gCy+pjrOfxefuz3bdeH5TYfITw1CpNHETLYGocMOyOATxvoSdRm0JI4tHFSq3nylBKtw6NkMFnrevH6NXMYxzaRo4fgeZXlJlRmF0LAvQL04nY/goT5tyefs1P9wGZqKybgsB9WR35kqxGALxC5wu3rhjEi1tjC0lKRdebsNN4kMHwTWAtnbblLfRx+J/78wWX3xieHnalCHpzSfsVJn3wabB0o82SQ0evl2Q7/JkMT8c3SuGRyU4dMXDDIQWlO8hLDSS0KrtgPbaYli4WLowjCb2Y6xTDGXYhAVDAmH4wIYRYRRex2IASA3f4qmmE396ROOXTynUyJLWRdJ1PYorFoMqLJDCJOXEaSlTWOhdPFzKbHUUkivZ2mU7d2HzcgAI2q/58bjK609NRCXYx186fxshxFay0DFUVqpfYYgEStU5T8RSR4q4MgMTyBhhtPGxCShEtIprYenF0Y+x7jB6ouVc7UhiZSuQgPQylewuh5426KoHbiEl9eoB2zqvdx07MZTC4prPlWdrXJzCcvF0nXMsnurV5vViJLXZKOv83Vnji688dZRctewwme/cApX8EBkEUSGjFkyScxFaXOM36CyJWjyLYxaPAftisSlAw6OrtYsG/GUNS5PIfozexNBklC/1qKhS4zQEw9r+pPqMBhLwBg6fnt3nmH0G/OS6ZYxVnDOzOusybo3qo01hua7rdelc4K7ynioT17bNlVdvnUhZ/v7r0+WpLw6rzJt5cvDJx1+VKxZtA/hZw2oJizByb8dWblNENmGTq48R8dwYDd2uGFi0nLQJFn79GGsfQ/O11SG0Lgyd75AJ1PpRF4YUSG+7268bj/zuhY1HnAT0XDfUu+ZUeSwGb2aSInGl1VFqcZj1aNs1xXCW5f95da70xuQ9Kh9O/U7QtvQomW83ftlGC64kMkEsL2zXLHFSpcDWFMPQY6w+FUyr14aojNvK+jF6GYN5cZSJ8biLQ2YiDx9zQ2jxFJ0YANCywYrsroduO/Ci2xc7urvOUpzCisvrzbQmimmNsLr+fG62+PJT+wfLFpwlO1bsL/2iZ/NquCAYxTIqhNRiUs9KWnisDQzDytZo9FalVpd7cQpLyzIT2n6MdYPBFReNd1HjFKcADSXGeSBsV70YMgBSY3e4bIM73vwl3J5RUuwqLnzkoo1g2AxEXHTfFUynyRWAs+13bQrJ1XnK38YzqR+cvzGwbT84+ODKrLd/JjuW7SaDcjYiqLVks6pWzygmGXeOegGDCp5aPEY8pVZOf2Wa3m1Uef0Y6wfD1EBhvbjElRTHFzbaejEkgMZBba1n/X7L3BHf4bEsW4pb35yuR05Juo6KNqXgOue81PnqeExJ8Sh13VMvTNN33XgBgpWfjC9OefyS8htPHSplJS1gsXQ24aQutCENFkQmMYay6gUMaqEjeIKREwutvYYaf65M6XU/Ri9h0ApMgbkwIls9Vk5lTD2grFO9GPlVg7ofvvksAL9EHfFfhEqr3ptbSbFzD6i+/OwxorjEGSbRU7q4W5lewjGJN/9LwvDaLz5xUOGpey4sPPr354Olc48EKumI21y71hZShuX6vS1NwJIkR4vFW1cY+poKIhF0MIGm3oKgjGQEoh+jNzCkWYleGk/IU4VIZYgDchlZTQxAwp/73nH5B24YgqjC6YnTEOcYJV7bPKd6HjHgXo4tUd6uI0/10PEtJW9HoufVdtaBu5VefOK//sczLkCle4Dh/RDrFrF63Esi+ZIXsGNEKHoJQyvD2gJQitC4JoIOIPrTUaRtKklC14/RixhUXgQijypQDH1eU5CcJzWIhve0GhgAILtXbZF/+Db1NQfuVXHHxxancjkVrvIIhi3WZItJ2bQdZ8zjWjbF5/KcuMKx0fFgXpKHF8HovPXXA1acuOOl5bcnPxZ0LJkoPERmRQmUtnbcWnLTiSiNzVKuKwxl6fVCYRaU4sran/7siKE92Zrk+f0YvYJhsCYKjoNYH0PgfGHhrfqyOhhB2QuWLz6pNOOVLOyOAz23Bd9tDgYYHedlYKQJcVJ0P86bcim0OHCabDiuTrvaGEvfee1PRxUf+dud/uLZe0AG0du7taO2QEow2aTRLYFESE/v/FmftVlXGDUGmq8kNKQe5aWFV4S0mhXHIY3sxw+xvOUAACAASURBVOgFDKoIhQFjlRUqC9Sj4q8I8TqRttWDIQHZvmK37lsv3QrAdMTf+UvafdEUF9MyMPgC53fnXKBcGcXdzXM11hWU4xiKV71xLYO3XDov3Xb2YXvnH775BX/RTFNZIRQUgFgkcq3PZXwZkbGQbj1gKP7G1kAJtCAYzAug9agQ61Uq7bT9GL2AIVm9Gk/qkatr/TVUEAzWDkOuavmrhSEA2d3WhEL3sWFrY2+68UTj2fWEniIYrm0V33LVFRCrI9nu7rniTy6Mejy9AADKUx712i448eTy1En3y87lmwAwV72ybjAVAggJVBmzWIaQ1jJcPyO+LjEEXRCkqsIweNdo6YODgvEC++vHWA8Ygp0LRisQfi6bMFSf2qZ4Wm+tLoYAKgtmHdp913VNNVZxTxDwa5eiojusuJg50jEAfIvleszAyTymbHXr113e/c8/5jpuvOjsyqw3L0RQzimBUBaIC5NOVKJYmfH+H1Eu+ij7EAarZ329B8RLEGaeuvMkyDVgx+nHWHsYmobmSzumKtOPKhAFZLB2yd9qYshVyyeUp00ZBmAu4WDb5rm2fjze7aoTCd7bgub02gaadAeA09oabEtJdw5sPKxuZOeff+YVJ917bWXWG5dqZQXi4RBFoN3g2rly0/VtZpgWkk6i4smv1ycG58fpqauvkk3X0ZgKP/Zj9C6GydxeV9NTo0boDBHiGBYF1hMM2d2eDtqWHVzLsgXUk+7a24L0tMzltQVeTCVbENyWeIA9zj10BejivCYeeIsLxHud15+bLb05+a/lt587WciKR11caoVoUhbJcIsd1k/v77kV7SMYNnaCXxAvweUF8HJ67MfoPYzItLL8CAYc9Sh9gtz0FEN4QLBozn61S9tzkLa7+66nCjgNzzMwbCC2RxRcdxBdj0XYvCW+pXQpL1s9m1cX6VDnP3+XK7323DWV9176LpUKY464onBNvEPY1H7eJSDrG0P/kg7FYiC0LGLZmRLlAeF+jN7FiDz2UEtadhxGztBFFgYag7VntTAEILva90LUUaF/3NmxeVVJMfKIM6SalRQXsqWe1HFtI5PuMNhiXh6AoPzyM+ny/PfGFp+5d3TlvdeGpMd+fvegbclof8lHhwq/pF9a1ntxOgm1c5uHTIVGUB62XtnK+xAGdfW5DFqGI4zREL7GQ4X9GOsEQ+fVJlYkENI4msbQDSVtsvBbXQzAC1p/+pftG798ygzW7KR1zp0hrrhcedV2MrCkRwZs+0uuTHra6Dj8AAAKD93kBcViOvhk/k6FJ+7cSWQadw/aP9kLhe4mBEETUEnL2sjrOeJurlXqTNpIUsJIBc02wQZQ38NwGMzk1IOK/RhrByMy97HEiHwJRPMQcAb1ufJcLYxAID1+99OG3DD5LzVK15qOS3G6xJbnpRlQPUHxpNuWHMTWoLh4FQB45SkPpTtuvWyol2naq/PmS74quzv2lh0rhkEAgqs1aS5W/T0fmk+Ugp4AEVpL7unQl0QN3obvjVBZ9EUMxZt7AVDM2DCSxWK7SWC0rx+j1zCsXrcMD/qmDeFF5cIw1oQHvwO9JhgQEiiVdoyOjJFsIaN6nB6+FdQpDdPlint0oSegPd1e6tR1w4XDi689vXf7lT84Puhs27/StbIJtUkQqRoRnXBAexkgg2zcWatZm0gQ0WVliHWSNnoiXFo2qTCsTwyjQljPypfXo1UEdf9N/H6M3sOIbMVEyIobMqOM1mGKi7eVV1gdDACQnW0TyWVSeIfSJB1t/ADYv4cVB1hP3urEw9B27lFb+PNmnRksW3AkuttGS+nrEdLfIAKMBasHURJvAyGdzSthJOFkEOXBPTZNJ0N+uszh1aw3DISCz4XY5omp+jT2YdsC2NrZj7H2MQw5iFudFqC4ur2C0Thw/qBr/7tl5nNfKKD+eBQQDf3QMhCaiJPk+h6W6/aizbNyAXNPzKrYOv/00wnF5x/+RXnKw/tLvzQIMAdRLV5DaYFYNGal9MASAVGWg0+Q8d0pSsyS4RKTa22RFF0fwKCKXVtHusBgHy+6dQapQ41CP0bvY0RuxpB8WDCobAMwv3clw/ogNFyGVgsDACrlFn/Ou6MBvId4L6keh8a1ozP4pJGsWJLA6t0eakXWdc2PUVm1bGJlxis/7/7X749EUNYfzgOgR9CYfKFlICwj9FyIqJwJImjGXUNYaFURKad6UbvtMtqGvoJhWHZY6JUgKv7SFEq1VeF3WGm8ox+jlzCUIiPnEe+aYxCZl7R9BEvJEhGXNccIZFPx5SeHo6qw4pLzbj85xukgndIWQlgqxN0BSFJiRnnbT7+6SWHyQz8Jls47UZbzA/Q+ni9eusK1yg8nwhhkMMtE6LmrrpUgLyaa0BAu2hbJK5HURzB4zEyNjaDjx8YqLjajMIwF2I/RexiwYxiyTTDUKz5aqUhGzzHg7kePMWQlW5755hDEB9dpvm1LmBQbN+jTrMB45oEB0gc4bQqO8zB45R+4san41N2nlt/831myq22U8NhEEoHQi1mwNcusByuK5FPLYLgwlIZOJLcyPDElaoubrW8MQ6kxGj2mlvGjdfQWxzIHPDDcj7GWMWx1JKFhGIKdUE+JB9MliLFn/VgdDMgKvHSWfoHU5S3BUk6vAYdHBab06JbQlerZm8YG3Dr+8KNxXbdddm2wdN6+kL6nqcji498xV0rLWLB0Ikl9nS2jdOZeq3o0ZCJOyJQlITQ8xtAXMbRQMmVN+anx5Rgub0K3TWjSfoxewKD16ZxH4pa0DbQuVSpsfWh4h1z1FENKCW/oxlsDb7mC6LZnNF3nLiVn1E/Drh05MS3n55xO53X84Zxc5YO3Tig8eOPVsthhbv/oOWCsaOuvIrPBtw2iYT3iMKSZxb0zY6JouyxKVZ3wvf76xKBdplqNLhwDl44VwTPaRIv6MXoNQ1IaweRbhkeVR5tAsV20EjCf/VoDDACQXR2AWym5nqdKUmbOO4x0S9iTRxHiYlnVu3+/O3tkccqjl/oLPzhRSN9TGl/Pl4S+o0GDgqiV6cFTeeSajpnmqxQcrccw+A9EGpaH4RsCBrPdgGkNtbD1AQw1Dnx9qQtKYzCQ5rgawBS7H6NXMWzyoWXHhiFCphqD8iPrI5LWEAMSkIVuwB7jTnpMgefTY6yH5YrcJ4HyRALrX55QeObuW4OVCycAMpwkYm1UEE+qfDJyehIR5gFRC6D4cuulLRbDsA46mPUBm1zSHt1EwkNV6jMYZBxVPo+V0MWjWOoxllEaQ/hZxX6MtYzBFCTVlVQ2jCTCo+JNlZbxiI8027kmGJAA/AoQVUQ2zyrO2wKiesV6bdsS8gYkBcWMtOr84w8tvfTY32S+bYjh4oIMBlmsxvtOZOa0YEgyQLAMtFJKZPKVsuIYKl9NIBU+6r3Rhc+3YcY8KkVB2re+MagypIo7IqhUoGv19OMfioc06SleP0YvYVD5ZtrMKGeKDYQfj5Eaa4bI3RpjhInHsFwxbRc9p7E5TdrDgqXAeVuRlWna7tuvTJdefvyE4nP3/QlBsSkSjJSWwURYRl0l/TVGMvGmNooOpK5umEJGoywPiBAxfhRL8vbUzqnLbPQB6x+Del4GNh0bNj60rm18FZYgdfsxeg/DmmfBiJCL8KhZ2wjXFobUlWw6wRVAdz33GUevMVyakZ9TBpHUee2Ps8WXHruwPO2FG0VQrH7rmSzImu6JKBYJmHcsBFm4avHJkJeiUV4XnRRNIpIx9CmzJrTdVNlqRVI7FyATptrRVzBA6lClSMdLhnmKlzFPlA9Mmn6MXsYgtJLVjyg41Q5p4QNHGa27phgCkJXi0I4bL8rBjD3Vq4TA6Pk110eeSKjgKtPAndf+2CtPf/nC8rsvnwu/pH89mW5Z1IAohQKSp7PURJKFbI3/qIEyWYWxLUs+xeAemI4nKHqKQdohhMmPtot7f+sdozb2ql6EhysxnpHifox1jhH3c10Kh64P1STNmmHwNbVGGBIQ6YbA22jsHbldDz6n+Ye/X0aq1fsKjsoD3FvBwEaorpP2n8aesvzBtF+WZ7x0HvyS3l5GlIO6NDQJwsCyCGm0s0DLOV+Q/Jq2F2D5DgxKJDkGsRyaTE2WTYkgpJd9CUMpfcLH8EgVT36tBz+sw8v7MdYtBpdnfm4oP7oOLApVZzGFudoYAOAXPX/Beyfm//vP5zt+c+p2iI9b8TuBnoPedhPQ6WG53DHKNChPetDreuDGH5VeefwKBOXwsQViVUxXh10nJFn7Z1u4sZViymUSvx620YbdJzB4HUTLE4eSYyS1qx+jVzF6mtY2vyQMKQGRaW7PjN/19PQW4//VcvYfKkgOrvc4nz/z4HLXjFuRctEcr/Oua44pvfrkhQjKYX2irY0vK3BrogvMo5TEUhFNrvbNiqcOVHN+glk6CwbFkTDxDOMiGY6tPs3rIxjWMbHUBW+bAWLi8fhGP0YvYnAIvjbYkZa72sZTb2AIAchy14DS1Em3Fl955tzCfder3y0MwPQHy1N/HiuDpY7WCYm3E0lZ0Hb2IV8oT3/xIZlvG0ZdXBpDkoARx6KxGqXYFG1kAER4af3qY62i1dNQBxdGjUCPNfUIFT1zmSVlojBZXgRkfWGQfH73CrCMF7umY0frRuKD/Ri9gwFCK81zHgKg7aL8ODavZ2D3Cka6khr9+buaT7vk/zXsfnihRuV6et327BYstDoTrAJPhnbsuvGXwyqzp90t823DlCLindBHNiBcwfCJ1nEBScq560wtEaGlg+bCACVlSkSfCmJVKB8FSjpI77pw67M+MTQ9wj8hkhcgBOGnsqmQ92OsEwyqPBQ/LeaS5QnNXmMYnhFbCzre2asYlXRlztv/13nNOTeX33gmh/iHR7n3BZIPRmP94qhzW9j553Ozxf/95wF/4XsHU2Wi2yzJOV10QPRDdmRB2u6aSGkqLIphKCpCAwnzsQgLhhps+ixTBJOwp7E5kLocv09iWIxEJEmzHfXGY/oxegkDoWGKeNnuZhk7kb6DIeBtNOZfTced+b2mr/+wE/ZXc1Sq61UeL+EYgi/9OF16/bmf+gs/OFh5U0rLqid3+bYksjIBY2BobEcJgx5IsGul0WmbKA3l5cIwi+xzpBQs7YtuTGiltDdY400VTF/D0EmSP3UQpsXlQigRk/ox1j4GTAztmTEazYIaK4rB1pbGUGt2nWBIBEvmfj1/3w1/zf/7mgE1apeHxXUOvTsY62FZU/v5X9+3+MLDD8hSZ0tEs0qYjyyoTpC8SLFamIDeTjrpbN6Gg97mpWkMImSajNLTPIJjGyS6PTO2w30AI8LHVo8vOIui5xhxVrUfY+1hSCDyE13WOXckZ7lSTrXjusKQIoXUqG1+6226+c8HX/GfpBgWTVYPy+aeGXcOu/5y3tDStClXUmWlvBrtCRAtK0C8B4nQAyNkQiD8/rQ06TStJMqsRq+w1Klui0rCjRGJL1gUiZSADEw6yl7rmVoDuCDXhQHa+LWPoY6ajzTzNW91TaVPhuWSXEe2o/0YvYNRk21qdDUtlUkmMGT5GUlyLEnW5jrCEPDhz3v3R2hf9QPEx7D4nUPA4mHFPhbfcdUZXnnqlIsrs988X9A3ivVIw5moh2NsF1V9Xpfn2a4pJitPsoRq0AWrU+WZgjdkBLJ7fQXZPQ6HP2saSi88gsrMNyDz1e23nmQmtIbQOTAisSfeD3rN295DDF2ewNM2NgaGiJmOfozewSBHrsziEg2lxLpGRqV1iwEv293wxYOPHXjlg49bKPldQgDRO4WCFUYYrLrwhO1Kkx98URbac7qS1kKWDlP1SzQ4p5G8jm2xgc2jxQpFeIPxcWDKmhb1Woci/fnd0XDQ8ch+8WCIplaIGpGUEsHShSi//TxKLz2BytTnESxbCFnOa0wevOSKxBAKx3hJxovyi/QxAYPi0G2wYS0pHlloPH4YW78fo1cwrMYUdlp1brTHYsRomaveusIQjYM/zO56yJcHXvKP6XZkI0VuACbqyeXHbv20v/D9fflemy5CmgwFU7M8YBPBk8WARRwZI9/CT+G5eqTbIwGRzSG1xQ5o2OcYZHc/DKlNNgdSaSKMEkIIyNpIq3PZvgKV2VNRfu1/KL/5LCqzp0F2tYHuT13drCemwWkjAoyeYUT4MOttbQ8HYZPRj9G7GFwxRnBci4NjKDILFoSl+jrCkAC8YWOeadjvqK+2nnG1unNYz3NZAHs1B4QQALDq/K8dWnz23oeErHj0kyeAfSLUudMSCdLB6DjQflktjW4CUw5OzQ/z2ttoNBr2+jKy+xyD9JYTIBqbASFqbZKGZ1XlFyotda3KZTGPYPFHKL/9AkqvPIHK1CkIVi50Wk/rOMFubUHGyei36nMMBpeSiHDVaFxtMuYJIU/Kox+j9zDoRHMFJ0klZzggChnFIETrB8ML0p/b5bLW7//mwszEL9X1nT2VqMIyNFrx9adaOi45+blg6dyJtu2W0qBgjVGdsymtiKJhnab8Y62awgOZXzrYig4CIteCzIQvoeHw7yI7cW+IloGasVJINm/KGCSiqGzlCHzIzlXouORbKL/0SORZsMiPuoLk075yYaWDBTbGcGA4B5U3ICqESfSxef0Yaw0jMs894Qe2/ujao/KC9YchJSAyTZXs3kftOfCiO16ysHd+scH2M18AgO47rj4qWL5gAtf89Jdl9YKi2pl3iiQ9BrX8iFegjsIygISJNUYgQ1qRbUZq7Hg07Ps1NOxzFLzho2p4pmKiR37OU0RJUfxUGmLgBhAtA01FohtndM3IB8+jp0wxC8bLhgGFD3NYIcJ8Xaj7ZscFmWtpMOvH6DUMNd82cSMCRLdhETsNYgh5fXK6vjCEAFDuTpffeO6v+Xuu26XxmDNKsLw3aLvmCssDgMJDNw3ovOXSMxGUo1tB2hHeAdpRWLwkSSZLVawNkMsVVaB0e6SUI13EECmkRmyO7K6HILvP0ch8bmcg2wC65ePKSjfL4mXx5CqPeGM6H4a1VP3j/TAGkFslMhZUqekFYMFw1ZUGkzCTKj8pa/VSaQh4gPQhfR+ithjpPOt+pDLVykEFkEEihm2s9DXDWN1+fKoxhKEzjF2DYQepolT82NqJSnEfwhBAsHz++OKkB88G8Bsk3yHUHhYlDAAg/9idO8kVCyeqBhmLSJ2rBYhwgoy4DMJy3UnVcRlOqLIohofFjraFqLV300BkJu6HhoP+D5nt94Q3aCjgeVpJQUoiPOZ2TuqRBGSpAH/+LJTffR3egMHI7nFEOCm2bSBLRjlR8tZYHO2TNLtLeejndWQ4psbL4BYMMHrjmipPUq96mapunfc/DunNPw9kspBdHSg8cguKT95hCqbXgOyeX0bDnl+u3bBIIWhbivztv0X57WcNBQzPVIi8rbat7+r247OAoYeOYRhemyD0SqGQ9ahoBEwMIRD5isp6xYD0yu++elrHVWfc0frj6+Yj+QulHv+pehSevDPbecNF58hK0dOLxBBs0zqQeTR/adZCS685nb6jWONDBySKn0J6yx3QcPAJaNjzSHjDNoFIZ8igVEfJCKJTrygIgHIR/sezUJ7+YvWO33tvIFg6H7KUR+PXfojsHkfEbheVVxbZWtKJNrseUfp8LLiV04IBQEoPIpuDaN0AItNYzasUITuWQxa7IWo2x+CtWFrGH5IslGwTms+4CrlDvwU0NBp99ee9i9KTd0JpVm/gRmj5xS3IfuGAyJiXXngE5beeRcOB30Tj0acjWLYQXX/9BfyP39Xm1hgTtggEQiXd435QhbK2MLSG8YBMI8SAoRDphqoR7F6JoLMNkBWjbt0Yal4DAZFpgBg4FCJT+7p4qQtoXw5ZLgGiOq/aKajx1sYK4bk2/oiWK+NorCW2vrmjoZehiPZDyS2vR4cwCQMAZPfKUeWpU37Z/citpzUd9h3bZ2XodRD55efSmy9sIZcv3JsqEt4Q3RpmTQSidNzg0EAxVXJasFQlrtFqdWUAtPz4T8h95WQILwV+d08pEQ0jJVApI+hsQzB/FsrvvILy28+jMuNVBMsXAEEA4RE8S79sKT7eVZ0Y4zPIutAUnogFpzy8DFJjxiO755HI7Lw/0qO2hmgdBHieJpKdbajMeRelFx9DadJ/4M//AJC+ud0kwhKuKNR0kIfms65B7ssnV7MCH/7KZUChCyLXBFn9Gadqe5oGoeVX/0R24t6AEJCVMoK2pUCpANE0AAgkUpt+Di3n/BFe80BIIYBcI9rP/QqEXySdC9tEF3hE2cAct7h+RCdhzTAgBLwhm6Bhn6OR3fNIpMeOhxgwOJyoYgH+gtkoPnMPCo/chmD5x3VjSAAi3YDMNrsid/i3kNlxP3gbbAR4qSqN7yNoW4bKe6+i66/nw587XcuTlEDjyRcjtdEoS6fdqfTS4yg+/W9zrVlEWP9IBj/W2u4Se/7rOz3B8BfO/nr5hceuBaCezXJ9hibgMSxU3n35G7LYlRNqTSgPgCgTbomgyokiimhpEPdQTRrR0ryMLmyuCb2hwyFqk2tTHLJSRrBsEfx576M8/WVU3n0ZlVnTIJcvgPQr4fZUAEgxj6aHKS7uZfO2+FHRGfMtBVKjx6Ppmz9Ddq+vQOSanBhi4FBkJ+yJ7IQ9EZzwExQfvxPdt1+OYMVCjW20V+HUxjm93Z7IHfatapvKJXTfeRUK9/8VsmslRPNAiNaBUO5Cw0HfQHbCXgAEZEcbuq4/D6Xn7ocsdsEbtBEgJMSgjYB0Vk+eN2gohJcBagorsp1ic2uMFVHqSf2gxWuKISWQ2fEAtJ53E1IbbVrLI4YRAHJNSG3+eTRt/nk0HPJNdP7+bJRffQzqbRAXBgB4QzdF8ymXomG/Y4BszgAWQgBeCqkNR8IbeiSKT90Lf+50I3id3e1wZLaeGGlXpJ2kUrByKYpP/RuSbNFVX3ky1jeVTVJHWOpr+RU9w5DdqwZUPnrvrPwjt57WeNh3Koj53EyaFwYrlp4YiZeANLD2j7p5upysRlXfuN2OsB59v1DAnFCVrPvfmKQ8q8KDN6P7tl9DrloKWSkZSlYpK6NeDE9XQJ4KBlckNn62BaXHkAq08NCw/zfQ/P3L4W040hiYoG0Z/MVzIbvaqx5A62B4I8ZAtAyEkBJe62Dkjjkd6Ql7ovO3p6Hy7osEtNYIujh9IHfwN4FUGhJA6cXHkb/tEqBSqNIVOyCXz6+2P9uEhv2OA1IpQErkH7gBhQf+AuHV2ra4o4qzYjHKrz+D7G6HQeY7UXjgJshyl+6jwwYZ7TS2D1z5WPpBDerawkiN2hresE0gpUSwYjEqM6ciWDwXkAG8ISOQ3nJ7eCM2gxAeUptuidbzb0H7ecegMn1yZPtlKKthm2HA5fchs9UOAKryGnwyH5UP3kSwbEGVZsNNkd5sa3gjxoCaUb5G4pRVWEc1whwLyefDZRiIo0Lr0TbVhiwaG60TAwIIlsw7oTL7nSsBfFDLtf2yjnmXsP2q0w8v3Hf9JlTpKA1rdEKVW9zACB2idFwD085pLBuGQW9/0BNSIli2AMGKBVVyj9ZhbeTXamRpljCf1bJtQY0+14FhKHBBBFECuSNOQfNZV1e9KimBwEf57cko3PUnlKdPhuxcVb0jB1F9On/gEGR22BeNX/sB0ltNACCQ3mI7DLjsbrSfd2xVaYmokEkJiHQG6XE76oYXJz0AWVNWfMvltQ5BapMtqxX9CkrP3AcIaQRaBQBZ7ELHBV9HavT2kF0r4C+cCb0nlmH/leGLaBNhnlIhtxnJiHysBQyVgmUL0X3Lr1F6/j+QHSuAoFybsxRE00A0HPRNNH//MohsDt7gYWj+/hVoP3NfyKAYwQAA0TwEAy65C+mtd4CUgOxahe7bLkPh0VshO9sgavEwKdIQuWakt94RctVysz80+RV0/OZ0+PPe5yWRFCyfD3hsONRYEUUTwRDm8PEwBh1jVbY6GLK7LVd+a9L3AJyjmsy7AJgKyyu/PukgiCDi1WjlQhoTkQOmVbWHJmAE0XXjhdkpWifyQCVJWuFblEZ4LkKPimFE+sUtCBslmydlwwyVZjIGXVR0IDO7HIKWH10DpDNQ8amua3+KwqO3AagYW0gAQFBEsLQLxSf/htIz/0buuLPR9J3zIXJNSG24MQZcdDvaztgfwdK59phKQyO81kHVjEoJwSdzjS0MGTqIpmaIppZqX/0KgqXzDbnQix5VpeW/P0WPR0RxMEusx4oaNVKFe6GRfmAtYwigMnUy2r59F4JVS3Q/wx1BBehajsLdf4BIp9F8xm8hhEBm/BeR2mIC/A9ejmDAS6P59CuQ3mZnAALBJx+j/ZfHo/LOC2FoRPVPloF8GypvPm2sgYjSkgH8OW+j8v4r1gHhb5YYyobQ2nwCqyfEx5QpKlW2WhgeECyae2L+7mt/0XjsmeqzyjR5AAJ9u7D06pM5ueqTgxUj3X+lcBSoRUOqa5uXRM/pgpMy/FN0hiIkClBhRDQzQiXCz1VdA0M3lLSTtpEB2DwoGw7HTMSg/a+dextsgpYf/hHIVOM/QfsKdFx0IgqP3ASgYvJiGAAAv4D8nVeg648/hqxUPQFv483RfPoVADxjexIxmapdAbkjJZme1fNRmwn6zJVaaBYMvqVQ5xEMriC5dK9jDH/2m5CrlkRjNYSHSAGFx/+OYNXyqqx4XtXLlVGMzIR90LD/16v53R3ovPoMVGa8EN7wAXMOSB8MfEtSckHbFvn1cGGhZ+PC1z3N055sL2IEq5YOLUx+5DhEfxgHqHlY+qLw37u3k13tI4UaJMsAUbdcnWurSr0kQN96pTJkaFliVUB4cDx9rkcBgO8bAUX6UKj57p+JEekPw+EfIYw8t0UwXJj1YFAvQdT+5445A6mNx1YLyyV0/+V8lF5+xLRgSf3wJAoP34jCQ7dUFxCAhi99Benxe+iFa2uqEQdhfKNzQmiV0qX9Y3WU73xDdwAAIABJREFUrFCr6sLgvLTCWV8YRr/tGLKzHcHCOWHooHVg6Lkp4nQDGo89A6KpBQBQfOrfKL34iOZDMahBkrwTJNlkzugH65vqlKDy5MDgZZSkVzGEhL9g9rdgeSVHJb0l9BfN3Vv6hSalGPT6IGCSHa2JTzzVwKpcIPLL0IZHIk3tTbeTVePux2zJRFiFY9D2q3YhVCA27zHuqXh6tAxDLIbumgS8oZsgd8DX9SCVXn0Kxcf/FlLV+l9PPwAf+TuuQHaPI5AatjGQzqDx2NPRMW1SKCx+rY4Ps8OBBHwYHrU++mH/AUCynw7QH1cUVVrNluaDHKnASgCZHNKjtoW38RiIhmZASgRtn8CfOwPB0o8BSFMJ6P5W2yEaW5DaYmL1dr+Xgsy3w//wHfgLZ0HKwKA3Ximh7WKyq+sIMr6sH0LK6vNSqFaUq1YYGACQ3nQcMjvtCwEgKBWQv+O3ENI3ZCCyA6FtQ9g2TSKEfR3SuSNGzjB4SjHGYBhKRjK63sIAIFcumdh122Xjm7993gzWM/OxhmDxvH3CVcXapyaHcdD9kOQozDKrEqj9s/2Ely6zdJQ7GNzDMbwrCwYN/OlGwmwzT3HekxO3Dgyq0DM7HwSvdvscpQK6/3E1ZDlvxhDIYorrhwQQfPIRSk/9C43H/wgQApmJ+8AbNhpy6Vykxu2K1gv/VqP3qnciASCTQetFd0AW89a+inQGItdcvcjmMPjGyZCBr8tLz96HruvPhUgJtP7mXqTGjAcAdF37E5SmPGB4JqEge0htNh6NR38fDXsfBTF4w5piIGPuV1CZ+TY6rzwN/gevRcbOG745Go8/B7n9j4MYMCQ0IhCQ0kdl5lvI33EVis/fD1SKkXiQoX+IgPGxpV4x7QcaGpDaaGOotyoqs6aZGBLI7HEERK4ZUkqU3/gf/PkzIVKmsdYYFi9O73oULp8bx7mRKaN9cGHw5NBXvYIhi52DilMe2R8AV1hA7Ul35P/7zyGdV50x2sZLkJnV2z+QgSVlgGm9qNKytU5/K6uWZ/2EDdXWbLLiPBwNRTFUnjQVqRZaZsVsyfYog8s9j8PQE+ulkN1lf01R+Xgm/OlTDG/TOck2jFql0ouPInfM6fCyOXitg5AeNxGlpXMhsjmkN93S0i8P3oYb1zWmgEBq47GGV1sZvKEu9TbcBOlNt6zyaawpOcnamc4hd8yZaDrxXIjWweYYhY2CTKWRHrcjUmO3hT/zNcPzz+56ZPUh1eGbmYOimXhIbzURrRf+Hen7/4LuP/8MqOT1uHFrr5QWNcTakyIKTM+2BDIT94U3bBQgBCofToc/Z3rITwBACtkv7K+bV3r+IQhyt057mIb7ZMq65ELEkvZ0ePcpATXenK8FgypT4WhP72AECJYuPKz87ivXZT73BfXr0eaT7oXH7xiJSnlkZIEQayjI4mDGx/BmjNdzyDXf1kGVU0Zc09X4UssTCli4WGzfrNLXFIMoL5vF5LG7uE/OGBg82JaAoV9eFoBoaEFq88/rGSu/+RxkqRBaYMuCicNQtP5H70Ou/ATYaBSQSiO95Q4oTboPMt+B8ju1u0peCunNx0NkGyCDoFqnu8PeyWwO6bHbQqRSkIGPygdTAb+si/2Fc53jo8Yl7EIKzadcisbjfgCRrjr5QecqFF9+svpdsfZlEJkGpMZsi8zO+yE9ZttQZmp9zux0MFovugOiuRUCEv7KZSg9ex8q774GWSkiNWI0snsfjfSW20OkM2g8+vsIli9B/vZLIUhIV3B5U6dc0AmdeoYwPXYCms+8qqpYSwXkb7scstRleBKisaX6lLwQ1XF79/UaTwFvxOZIb7cbUsO3ADwPsqsNlQ/fRuWdV4DuVUY7QZpiXnsQIrzZL4MK6QTMc6p4YgyhsTUWjJY6KHS9rC0MCciuVeMLj/xtEwBzYXuX0GtsmSCLXS1AVJvSx+slWWjGwlYkxupkp2oClRKzaGntaal6MiozNMV9x0opTFuzlNKIxLfcOikkkfbnvyLYcRhqgiQgWgYitcFwPfeVd1+vTg8VBEvnXRjaancsR7BiCVIbjYIQAqmRYwABVGa9gVVn7FOlzbVi0K2vVLejlTI6rzkblbcmWy25t8kWGPTXyRBNrUC5hPZzj4ZctSQkCCr6OR/ruKl/EsgdcRIajzsTIp2ubpPeeh6dv/sBgo/eCRdcrTeicSCyux2GoH2ZZu5tNAYtP7seorkVkBKlaVPQefn3EMx/V8erACB/z3VoPu0K5L58MuB5aDrhxyg9ey/8Be+FtpMvKmqkgWq8TxtbAdHQhNSmn0N232PQePi3IQYPgywX0X3jxShOusfYLQhU45PKg5Rd7QiWfgQ0DULzyRcjd8DxEAOH6FfMAADlEvyFc9D9j6tQfPzv+tkvQzmgJnupDFp/cRNkuVztROAjaF8Gf867KL34KMpvTQIqBcOb5DcujPVOFIe6aabqUA8Uio/SB1TZrAUMme8Y7i+cOx7APLAfYU0DQLB86dYI/KjlqaHq+aSuHJlkQ0iVFRJGFcNIWbUPSVyQdD1qBcnWjD7QGflqAm0aFU6mSHjMgvI22saC/eq8RxgIlX6qZYi+ewQAwaK55qDxfoh4DM2/XESwbJFupxgwCELUvOtKd1WA0mmzw5USUOkOMRS2BHm1piZllUKVVrVTsP7xcasJpjdyczSddGH16XopUXrxMXRc9A3I7rYwzKCFXwL5NhSfvlOPn4SH5m/9Aqnhm6EaM5qKjvO/Fj4oTD25rpXouu4cpEZticwOX4JoHojcV09F1x/Ptv9WFJFLIQBZAVp+fjMy2+wEpDO1l5Q3qCptISAL3Si/OQndN12E8tRnjblSht4bsVmVVsrqe5ciiwFX3I3MhD2rhH6l+hiKlwJSaSDbgNRmW6P1Z39FetyO6L7ux5Cl7nC7SuXT85Aas405zkJA7nwAGo89E/7HH6D7hgtQev4/AMoRWZT0nCkkutaZg0mYGAervK8OBvwyguVLvgTgUbD3CtMAPH/J3K2AcCEYSoZYG8MQMYWiKhgxL4QeQMiQeAFE22qPiAoM6WCMfrPGW2wYmidro22fHseb5vN4Tz0YxtazqUXZjSq/ro5w/MlY0bpJGACAQELmu0PFnmuqLgo/MD7CqPqimkOciTADdlqjgs2bNCpWaXKHfgfe0BGAEPAXz0PnH35YVVaWfuqqBCO18ZbI7nlElaBURPdNFyNYscDA0LInAFnoQOHBm5HZfg/ASyGz834QuRbIYqfVs9L9qHUyNWIM0ltsF+mO9CuoTH8JhYdugb9gFgABUXMXqMfgDRoaykq+C00nXYDMhD0RLF2A4tP3oPzWs5CdKyBaBiOz/V5oOODr8IaOhEil0PiVUxAsXYj87ZfW5KyG3bUKwbKFQKUEWSrWgFLwmgcAA4cAqQyEJ5DebBxaL7od3bf/Ft23XgwBX68JwfoMLlMI+6HGlq5z4+Fulc3W9ppgyM4VXyxOeSTbsNth9CHSIF1667mmjktPHkuDvNxKGIF0pQBCzLCRtfqGe8d5kTqGN0MGw+g8UTg01RPD4hi0jXTwJEh7TRhnANr2Hle9GLpxEhApz+ycJDNpkurKcRhGXRmEnme5BNS2S9Si0bZrCLLorFsRmmyKxZKkRG17d4jOKD5xJ4IFH2jPPjL+zFJKAJkJe1WVAIDyxzNRevUJE4Mav1qqvP86ZFc7ROtgpDYYAW/DjeEveN+KwfvhL5qDyqwhVe8nnYFoGgCvdTCQbUBmp32R2XEfBIs/qr5bec+1kMUu07NoadVzkBo5BqnNxqHy7qvouPRk+B9NByD1eilNfhCFh25F66//ifTY8YBIoekb56D4339CLpmtB6nz0u9A+hIoF6vvykoJeB685oFIbTYODfsdh4b9jgVyTUA6i6YTz4U/fzaKT/wtNMyCjBVxEuicsktjrNTapGuM0q8phiwWxxWe/FcTgAJoDKvywVueLBSawMBd2w4lVNavOFBrzxqk20O8pjAzHAiaZ7xzKKPKhN/RiltMNqUX6adqiy6zf++dfwfLfH2nDgyERkCWS0AQQNY+GSOaWvQYGeNElF0chjEfucZwy5zvhgyktm6URcTDYnProqVjZlhKMi76GoA3bGOkNt68mlEqoPTc/abVJX2OeLs1oUpvsxNQ9WVQeedVoFSB8Bqi4yHCMZSdnZCFbngDhgC5JngbbIRg/vuJ/RApoOv3Z1Y9YCGAlAeRbYAYPByZbb6IhsNOrL6OM3IMmk+5BOmx49Fx+cmAXwjnqvalDQAQLYMQtC1D+4UnIFg0Mxp28QD/43fQedn/w8DrnoLINVe3sQd/E923XqQnIvjko2o16q0IIOhaAX/JHJRffRKFp+9B6wW3whs4FEin0XTSBSi/+CiCjqXOPmuHhYwBx9DVmH7QcyQQO671YsjOFUNRLg4BsIKySpffmtyEwB8djqrJjDYk0lDSVv6dq4imYgJp483pDa1LOwwYCgMsL5IcGFwhRMpjMOK+1pCIQSe+cxVkpQSvoRESqH6M8B2ElkHj1tcPveC9BogNhuvKcsUS6NdpGG/OS89xDJ1uP0IF55zLWlFqxOb6dx/9rg7482cZGHQrQfuklYiXhTdycy2AuQOORXaPw+IbWOu/N6Aa+EY6A9HYovvKMajRhkA1TkflvwsIVi6G/+FbKDxyM3JHn6FfgG448P9Q+XAG8ndcFn5ptVQK5UNK5O+6BsHCmeZ8kjEQACofvI7S5IfRcMDXASmR2eUA4NaLDIMUURiEl5Q+yq88gs7ffh8DLrq9+rN2w0chs+shKD75d1O/MGzUgSEJna0f1i1fTzGKeXgDNtgOwKxaaQDA8/xFH6ZlOd+kYqnWZLPotEwPlOldKZ5SkgayRSDZiZYV5YHQiVC8y0UW6I5fVdp7kKSNfHEJRF7NobzpqzhxZfVg0IUp25dX38ivVU7V3uTX7SYTS79+EYsBwGsZjNSQ4VAPNPofzzTqmtaSjCXgjOdFaCVZaxJO8dFNGzC0qjxl9cVuWSCPUCiBJspCzb+WYy8Fr6mlplRk9en2IcOQGjIM3uAN4Q3e0HqeGrxh+HE8o0FRDN0PYY6VHnNBDXYZhXuuQf7u6/SANR53RvWrsGreuju0fMjAR+mFx0LDa8MQAGQF5Vef1jxTI8ZANLaaoQCYi572A6i2sfzSoyi/93rVuKbSyHx+d6idi+4zXWfkmIghiZyw8ZFrAQMAyjPfHE9mq/qku798CVC2vRwdaj/DZaeWnCeBSCBO5WkPgC0Ww/mgC1UQIQIlAuCXI16N9S4hw1DndJANC8GqRgPq9nMbXt0YXe3wF8yGN2wTAKgFh9MALM/T0HF0YCj2qVFbQQwZDiEEgmIelQ/eqI6pMeAxbbc3113HNl88ZcjHQWoSruuQ9tMvdRD9ZWIKgcq8DxAs+shSGpOC6tc8VRM4Br/RUSUk5UyWJQIUH74FjUd8F96AIfAGDkV63E4ov/YEBIBgxdJQLot5yJULkzEA+Is/AgIfIpUGGnIQDU1AsSPEJ4qD1gNCnrLYjcqM15D5/G4AAG9E9bUl44u0hF6d9wSDx6gUYWQn1lMMDwg62jYFS+nGPY4cnn/oRiNQDj6YiiGTCyVcRgOFWV93UNW3LTCFSxc265wQlJ/7B06NdwlhYpgjQiaWtKGeBcpTRHklYBjeTaWA8puTkNnhSwCA9Objkd5ie1Rmvm4oOrrfj8NQ45XZ9VCIhhwkgGDFJ6jMnhZ130n7Xf22KQoutAo8Irg8FfKah2huhcg2AqVOwyvQVlwJMx2rIIAsdGv84jP3ovvmi+2PKMSl2rNNNgyjH3Ss1DywMYcEgmWLECxdWI2RpVJIjRiDcq2Kv+gjSBlACA/wUrVvwrsx9Pz6JTbZ5lkk/kPKaJ5sXxmGLrKNEMKDlOErVbb56gmG1SDz5bA6GBLwmgeMg/mku+eJEWNG68+KRPmGTJ2FZFxVYuA2RUYBqWLTR2nS27YoibEjhsG9REpi66OLv/1VHGnwjsWQMCa2NPlByK5VVbrGFuSOOQP66WVugRP6ISXgDR2FhgOP1wNXeuFhyI7lJr+YRDFi6ckwGHUcKVg6D6h9I140D4Q3bFRke0qngYcPEJTgfzJfX3ojNgP8IkTA/mx59A+BE8PV90geVVxBUPuoYrQfwZK5CNSWvyEHMXSTWAydn2sNt7HFPGSxO1kZkDZpA9ncqsVNdrdDMu9KF9LrHmDwdaZo1hhDALJ9FcB+RcejP8FBeVraaFxQTL0YgYgA8sQbZriWxMPjrqZbmUa/BGokbqX54MUxh6mc4j4pwz+7EochybUQgD/7bZRefVqXN+x7LDK7HmYqadZGJ4ZIofGEn4XfIi92o3Dvn6PKhNR1xQBtGDzeVS9PAcBfOAfBiiXVeW1oRHbXQyLCHN1yUf4B/FnTobaTmW12rv74BcG3yR/vRyyGrWNssdH6UqL6YcPWIdWMIIC/9GM9x7LQicqMV6rjITxkd96v+nSJC6N2TG+9Q/V1HQD+wtmQ+Y7Q2NF+kHNDXCSqD6FuvYMeL3/+h1XlKlk/6Hj1FMO2dohRXjMMuQXIIw36n3XCBDvl3ilbTBLMFVUk0myQLpPhkbIzPm1C68Z4P/QxgzgMpbwohrS0z4bDH2Xgj1JI0pEkDMEmVPpl5G+/ArKjDRACIteE5rN+h/SWO4bBTFlPPwRyh52Exi+frNtXeOgW+PNmmJ+rVuNrGUs6gFZX3hh3c57oTQvbNjlYsQjl6bVfJhceGo74LrwhI61etWojxQCA8tRJkIUuCCHgjdgM2b2+Eo5NbWEY80llUiZj6AUj2VjFYKQn7KW/eiHznfBnvk0wAhSfuU/TNhx6IkTjQPt81PiL3EA07H2UJii/+gx4UsadxhvplloCyGzzRWQ+t1N1Lvwyym9P0muV9oOPSb0Yut30WpWvDYxKcSiqHpZ+PceTK5cuFsIzvBkwBoYCU/m0YSrZ3DLi5lIlZri/EsZjEepa09DOSlR/aQRESZDzyAf8mIKVNd7cm4t2xp5cD6pyDysOgy8WAaDy/qvovv03mldq5BgMuPRuZCbsVx0PRMdC/5CHBESmEY3fOA/NZ10NpDOQUqLy/hvovvXXEF44j8axzuQaFoWt7pwl8gwqKDx4M2Sh+kpPerNxaPr+5RDZpuhYUQx4QENTzRudisqM2mdm0lk0ffeXSG0avp7CjbnqgBRpNOz79WoQ24ZBFG5mwj7wRmwZyiLhbWBIwNtoLJpP+VX4Qx4v/1f/mITCKL/0KPwF1Qc/UyPHoOm7FwDSs86H9FH9IZEttqsuh3wXio/frhe+GLE5pPR0LNS1e/A22BTNZ14F0TwAEkDl41kov/Z0xNGxjheI7LowlIdK26/klAjMGmGU9M1A/XqO5y+cuwJeKuJFGQpJEKEVBlnYEGYp6OKijdMLT/GgPZLhtW2R6HrkJ74MpVUpw1/wISofTovWE2a/BMUjfasnxX56pV4MOkkCEJDI/+vq6k9s1T5QmBo5BgOvfgitP78Fqa13AbItkCIDKVKASAOpBniDhqPhgBMx8M+T0Py9X+lnjPyPZ6LjV9+GbP+kOjaA8ZE92yMcik61Sc197LBQQYN93iht+fX/ovjEP/TA5A46Aa2X3ovU6O0BLxvKoRQQqQakxmyP1gv/gcxOB1UxSt3o/vvlCPLVYH1q480x4KqHkd39q0C6CbLWsaqX4QENrUhPPBADf/c4ms+8EoCIyh/rR2b8rhh4wwto+s5FEBuOhvSy1d9Y1G3zgIYWZHb/KgZe9zRSm2wBoPpTWt03/BIQ4Ws0QgBB22J033ElUC4BQqDx2NPRdMrlQPMQDSwhgNwANH7jp2g+6UIIz4MMAuTvugb+otl6fTSddBEG/OZBpLfbG8i0wHzj3IPINCGz8yEYeO1T4Q+MVCrovv48yPyqUAYQzq9NIwtOx8sRelNcK60tDEjjY6PVdwnLc95uRyYLFIuhFleDLYnQWrSq8ZUADszyrDEUoQ+a3gjKMwyjOlFUwarlKL/5HAqP34Hya09B5juqr3twDAoGmLeXeeNrGLYvM9CySPynDgytzOlRAAI+uv54NmRnWzXwnmuqPpB42LfRcMg34S/+CMGijyALXdV3xwZvhNQmm0O0DKSNRnnaFHT+5nvw570TYguzbdQKWmNYtH2OcTfmCeYc28alWu6j67ofwxs+CtkvHAAIgewXD/r/7X15mF3Fdeev7nuvV0kIrUhIQiBAIIMssRMQq2wcSIxxwMbbYA/ExuMl4XPGDrOEkAzGfCbBQxbHk9hAiIF4ASa2M8ZgtgFsCxCLhSyDwLIEUktobam3t9yaP+6tur86Vfe9btFP/Zjv1fd1v3urTp3fqVOnTp2qu6Fj+VmorH0a1fXPQw/uQ9Q7JXkP1tHLoTq6MPLw9207Ks8+iME7voLeq64DiiUU5i7ElBu/h+pvXkJ17SrEO/qgogjR3MNRXHwiCnOPSPaDdm61TXMiJ9EOAChMnYGeK/8M3R/+AqrrX0DttTXQe7YDSiGafRiKx5yEwvwjYZ4r0jv7sO/GT6L2xq8ztdEkXf7xHRh+x6nouujjyeMyH/vP6Dr/UpRXP4x4Rx+iqTNRWnYWCgsWA0pBxzFGHrsPQ9++Cak7S9ofFdBxxoXoOP09qL2+Pvk82JbfAFpDzZiD0jEno3D4sYAqJAKUhzFw2w0oP/m/M0fj9EfWx84+MtkL2y8vr+sdjwdGKBULsw5Dbc8e6JHsJj4NuPfCGDDQWDSOxITSqXCKztnB8VLSZIqx7ZUbYbTIApC8ifK1l1B+5F6MPH4vaht/ZT2yfetEAEO2Sb4OuF7KezRHpoYY3MEgPQJQlWEM/uN/Q2XNz9FzxbXJLKkKQFRE8dBFwKGLHOfpOO6dWzH8g29h6J6/Sh6oNUrTvlGZIsuH5deuTJ4OTFQgDM+ZbALJ7lcM7cG+P/8Ieq6+EV0XfBjo7AY6u1FafhY6Tjib6FP0WhVI34SaYOhkINeq6PnYF6GmTAOUQmnR8SgtOt6ta3gND2D40XuBOHt/szeZpO2Id2+HrowApS6o7l50LD0DWHqG15hkUMaovPQLDPzdn6K65gkqFxjVEQzceg1Qq6Drok8kjvbQI9Cdvggx0WtaqTyC4f9zJwb+4b8km+1W+bBXWRFFKB62GMXDFjuTZ/KbCBBv2YDB227A8AN3eAONHaocX9Kh60C+Y0vCrsYLI30pgPu2htIR7xiu/WbdZq0x14ZowqDBAoKMWcHuXdhBSV7cmaBZspAzCnhiuZzSKZ/KL59CZdVPUX76weRSebWaRSnCWUoM7+OwObRJef7oC0Vcpp2jwjAzC+nN8o6rKD95PyrPPYLSiSvRed6lKC45GYWZhwKlzgyzVoXesxPVV3+J8lP/jvIT/4Za32vWccuImVMS7FRR/sVDiKbOTHntyAYu3IlGD+1D+ckfJy/7q5aTAZ2DUXnuCcTbtgAA4jc3Z+2j2TTeux0Dt3wGIw/dja7fuxKlE85GNG128pBx2rZ417bkjQj/ficqqx9yl3KoYuier6Ly9IPouviT6Dj1XYhmzU++1Wj0MzyA2huvobL6UYw8eDdqv34GyT1Roi+oHQAw8sA/o7ZlQ/Kl66W/k9zUm+pda53cfLrrTVTXPYuRn9yN8s9/BD24J+s/IIwx1I+BWz6P8s8eQPf7P4XiklNtdKzjGHrvTlTW/ALD3/97VJ59CLpW9rYTBm//H4h3v4mOU9+dvOOssxtAKpfWiAf6UdvwK4w8eh9GHv5XxNs2glxh1lemvQreOPcuBMik4I9bSuOFkbTN/QiFGnnsvin7bv2TJ+O+V49zXgPDFQHP39hfHS6US0TnwWivhb5jkl6ZHSVUhGjOkSidcRE6Tj4fqtSJ2vYtiLf+FvGWjaj1bUL85iboPdugBweSdw7FNSjUPHypcB0D3R/6Ano/89W0XDgk+JGNOd97/Ucx8tBdtoOCkSFjiagzqFsAQATV0QU1ZTqiKeljJjqGHtqLeHcf9NAgoOk+IIFP2X5/gR9ZqfmTjBOiFqiwloX+HgZ9u0rFFMIIOex5AejuQTRtLlR3cpuCHupHvHNzskFvv5oRaIdO9dPZjWjaHKieqYBS0NUR6N3boPftSt5oQNO5bT4NJs8uUztTpVTvk2ekzlQnr3fZvRUYHoTW9EQC6SoXw/R5VISafDCiaYcChRJ0ZRh6xxvQA/0JT6kvrguVONBJB0NNmQlVSh7+1uUh6N190Pv6oeNyoGPy2ysxQkYbcg9OxjhjFGYdtWb6va+8M81KPqTaseCYQV0ub9DAcSpUM61tZw06lvtNdraVQoqOdKI0+Dy8D60Sn+Q3Rrz5ZQx/52WM3Pf3KC45DZ0XfARdF3wE0cx52Sw9tA96zw7EO7Yi3rEZtS0bEG99PXFoO9+A3vUm9MDe5Ka8yhB0rZLIQJrOu7/LDcHZefn9B7i64gsQUuXsH2y5iqHLg9DbB6F3bGJVubgWLDwDanGe9FfNNUQx4bhCug7fW+ZbDPejvRrInq0jnlm9GjC8F/HmXzt8OeW2QwFADD0ygHjLeqfc6DwvCjDEQV0pQCEGKoPQOwZR27HJsW2WIayrBhi6irj/Teh+8fYEw0ZEf8rhr4HqMPTuLclfA325jNND7o8ght+W3MleDtTxwih17Ea2HEyWhOrwY6s7rjipDzs2ZQ4nMHKywUPZTK9cY2QhzC9v5psRq7jc1En/SQdp5SI5dHUElRcfQ+WFxxAdfAhKJ5yLznPej9IJZ0MdNAOqe1LykQK5gVOrQg8NQA/sge7fhdrOLYj7NiHethmFo5am7ct/42i9PJ5deWlrZ1vRLqkr32P5BpiH4SQtJhUuosEccjwh2iBNG2NcMVIyp74XiQseDj8a9JLOs68Wx1A9vea+BueNoyjOW/RS7RX6hJJxKBw1BZSpq9DMAAAa70lEQVQP6kTbSXC9pIk45MzEwmvCcWTQCG6MWgxxrPf0YeThu1F+9LuIDjkcpdN+F53nX4bSsScnX1RG5lx0oZh8pn3yVOjZC1BUy9zmiT0qc5x3tVDqxUlCR86kQNUcWqNM+LoKzlIBDJufkiuhZ6cPSS62gXpRQhuj+RimjimGwGCb4HHHY8oZb4TT0hgaiPu3ryE4++XnqLZ5/SrV0W1XQ2aD1L4tVCqVBaZjM4b44w8OjRGQHSDRKuGADC9ng87ogvEYQAE6rqK2+RUM33sr+j+/EruuPAWDd96E2huvQlerwahJ3ngq8+QVQk2N0HEMPTJkv+nnck8yHB1yEedJJ4SsM12B8zHcdsEuPa3uzKBAZkwhH+s4TpKtjdFcDDs+BC+kZTLfOg3GDDnSNJ9xWxkDGijOO4rXyzbCijvP/UDf0Jabt2Hv0Cz2AsbhGEU7AEZwZDMCSOjQU+3K1NduPWdZSFgGw+n3AB8QjXPHvAIQj6C24UUMfuNFDN32FygefyY633U5Ok55F6IZc+jOZ2V/c29d4CXiyBBq27egunYVKs/8FJXnHkfc96ojrCJd8rldwnEZdzznI1CHksRgPWZKJJUE+o95OXWFDJzaGM3DCH4o13g6wvAidmFLIdvA2wRDQ6F49PIXgQcA8ZkvdJx09uah7//t63ovZnm8ZceQUKF8TeXCp7h1NHWSyvCcGczQU+uYzhzYT10ZviGMCNCVIVRWP4jKsw8imnYoSiefj85z/wClpb8DNWV6qjyVKk/c2xLHiHdtQ+21NSg/9ziqLzyO6vpfQu/b6TgkL2IiR+S0i9tJ7eOlolw6mrbUwyBW4XyeLDjf6DLEp15ZG2P8MXgQEs+8XyXzOQVsxXHALYqheqegtuW3vCQEkO5hlZacNrzrk2etirdvOkHiB/deQA4ICH5k1fIhr+q0UzRc3nDqeHSdKkEJfJIhpDsPw/CNgHjXGxj5yT+j/NN7EM05Ah2nX4jOlR9A8ejlQLEEKAVdGUFt4yuoPP84ys88guqvn4be2Zfcg5TKoiJk4TBhZNMHdZ4OnIuk6YBnrzFhwO0LSc+TQGgfxZmEBL82RnMxeLIySQHZcoyg5Dc+LUszJsTYNdhW3BbGiCZP2xzNPWx3SmY23ZMvPwOAjtQjKHRcjVrZgmrmbCVwmSsF54X/RkgWWonGWCfH+awI4cmtHOacPTIXsfICGBafHUWtjPj1dRj67joM3/91FBa+Ax1nX4J4xxZUnn0Ecd8G6MqgU8k4KYMBo/QcDKdzbIOytnoyMQ81NgzLnnSoiV7xMU0kDr8AjtGjamM0HyNkE9JmiK9mGrYbGjOOk9SBdrQaBvTqnnMu3gd8BaC73e07a3sv/fQT/V9evV3XyjOcKIaAPQeBzNF40ReygWbrcLmg5eQMcEU0po7OqWMEU/UxnGhHE0Z1CLX1z2Dw5WeyzpC8iYdmLIGTi4GMr+N0HevefwyrH2E0TjukTtj4SC4Nd+BxpTZG8zDYJqw5mPpayAOBSY7UMxpyHq2MoTVQPGzJ84Ulp5u7oe2NfcZzxZ0rL98czVn0shWEPBIzDviKTFCvdfAe2fEY8Uxl/vIwmL/Bo3qOAhtg2HyS2yo6ypwwuMx6Z3IQAZ6jwUDgfDwwWH/yg6lSL7a+It1rZEtz2RG6jdFsDPmniCZU126bEAbLyRgKGY9WxlCdvUBP72M+lXgbdjR99netol05HIGsY5CzSFrGncvLGW4ER0NGCY5HFoPQUQAyJWhWEBpgGJmM7DRLchjuOJEQhuGhs+Ng+QRgWH+niTEyfbBTNPyNkXGERl3YxjiAGMzfTlZw8S09yCGqDIP5aIkl+LccBgD0TN7YsezMtRBvGwUQs8OKei77T/errklV9oByLe7M6to9tEIYAci5OJ+3Mg2gwWs7lTuROxykJGQy8BpZIRMkhEHieZGOyXeWoIBzv5eh86IbNsIJxrA8hDNTglZGCDrFUZKHqRfAaWOMP4Y9t//8xBje9gKda/gyMt9WxNAAooNmPtV9+oV9gjwCENlndADEnSsu3hDNWvBDb9li/jneAo7yOV96V9tgUddcXWR2Ni80QEk7VnGsRAX3xXQCg4sQyLMKZHnJIRoaJXUgneYEYmhzIgaUc9MfsmM7GaT1TH1LRrqVEV4bY/wxjBnwmLLOTfl/3nIrO0zqsSyBibHVMFRUigvzj3hQzT8KItk73Z1UOGzxt80T/HbgKOoo8ohK1NXwZwpuhBK0zkCV0YjK/kzF4IdE2Rg03BfTSYwAnkaG4TkCOcMI+azRGvoWwOCIU0I5RiWsSks5GFe75W2M5mHILYO8p004OpHseetByTxqQ8thaACdvX2dZ73/hylFLH6dl2MlX6WYOuOhaNqcDaxQb5AZRROoArL3sFMDQHwkPZhe0LCGdF4d1iIrJo8emZe356wsS+DPFN6yTGfkQi0TimHpjcEwe55MeGDRgPFwtYvbxmgyhrFXHns8jiSGgvfNT1tEdmbzhDNtJQwAKMw5/NHui67YBvoWIf3GXoTVfenn+gsLFt+rSYGO59TCgRAYTDnEOXUKOzNNv6Y9dhNPdrD03IDjCE0Zi+NhpEqXG4UchzMf5PEng3X+WgDDHFu9hfqLktURwv3MvNge2hjNwXBwtK0SxjD5fC7xHcY0HloQAyjEHSeff6dQhxNlRXQSA0DpqKWIZs39OzV5+nbDh9fWNjlTPXUklwHu54x4sJL3ZV7OAFfIQmdutMp4WXrGzMNQvozmWAXqs5GxbNq0i/6cfbQJxJDJ20M09VlnrH9Bx/nOhmsboykYzjgz9gB4e7PSpmQ9thW2GQe/hTAAoDDrsLWTPn/zT4gioj8g3XQHxF7WQdfduaEwZ9E9QPaFEadPVHLMM4ViQU3LVJYPUVfygoaz4Z6LAaI3POzohbMszcUA/RKGFvmWp4J3MYBlcGx5gjHsvoLhRRjB+ggc0+wjebUxmothxwz9gcaEw4vsxMqT2pHFJwxjRBotiKEVCkce/4+ZZrJ7RCH2sADx3mQAKJ109tdV1+Ttzjqbks1KpWE66+Q0+a5UMA3iRx3No5I9urOxyY5JZcpy6NAAA5kchqcnb1rHmSVk+1knmto/wRimWDOPwEDh/nNejU0WZjeNSYw2RnMxnKc4UloDY+ycx5Tpf2sLAt9JKU3LYQCIZszbXDr2xLvg+qJIHnt7WCZN/uxX1xbmHX0XCy0dA/kYPwzUcF6+52zKGYdEQgd8YpLPHWycIwnAymQ+QQwyMsU8dA5flk10DLdXXtadUAzSl7PPwjTI+iUDhxOu2xA+nRRA522MJmKwvabljsNgDJ31P9u491Vpz8u0FobWCsUjl95TOuH8nfCDKGfbSi4JOQxDz1V/dqOaMrvfUSoLyQ3RmVMzgjkdLTs4FTgUjVkeVNX0O2Pb+uz5WZECw8FXgobonHISnSMliymFnWCMUJL3uxlARYq1OIDXv6acxl4bo1kYxIPtRgtaZ6wFsNi5yAIzPlsFI5o5v69w1Dv/pmOZ+JRakvyvqcK/3yECgK4V791WWnLKdUDkBjlmZldZHr+xgd8SaveTzLnpLPa06bmpZ/m4bcvwDT/t5hll5WHw/piRTUY6vP8ljYr38+yvcvlNNIZT5nh6oQfGJFk04Tn6V8SujXHAMMyEJG3Fib51JocJFBTVkX/eBDqBGFDFuHDokTdN/vSXNyALlsxGu1weRnlLQuvAus655PbCIUesDnlR+vHzVOBcwfuoKEcTRhGea+dE9eWsZmHzMLg+OzthMJLGaSIBWTElXYtgmPcMadatTJTpbKCaYkXYgcigjTHOGNTPPOmzLTvbK5I2dYT2qiPzIx6tghFNm7um+6L/cJenBzdZ5xW8SsjnXb//H/tLx5/xJdV9UNlRpnFI6Z/sOCd8JudlGsB+ytKy10mdW3B5lGJYTJq1eCB7GCyvcGoQtGx4di+C5LdthZCjFTBI7wpUOUCr3WrBAiV028ZoIgaNFR42zrEYTybPYpDhs32EZJ5IDESluHTiuTd0XfTx7VTL22gHfTUndJWQQ7EIAArHLHu4sODYW7UqJJ6VBpcNdUX7gmv0lNQ0nL8S7bSTMNiJqbSOJp48zvl9W0EMdqAZC88Q7RetrcBuXV62GQwrRwthJEpxjcgbS2kl3kg1DLT2z9sYTcZI8wyGAvEKYaQMmE9ofEjMicbQMVBcfMq/9bzvqu8hcJdCmtgPZV/NySG2qffya+LuCz9+UzRr4VOpjNYpsPTSR3GU43lrKrN8jFLMYIZfP/RmAxXIz8NwZg7iKes55wF+EoP10SoY1oooXxG9MUTDL6+vuG4bo8kY2rV/D48xcsaJwdaa7EmL8gnGiKYesrnznIv/qPTOFYYr71s5916BXpEsN7a40Lli2H3p1du73v2Ba9Sk6cl7lpWVzfGy1Cbn1x6bDPbe0hmRV7cdHNIm8QLXy8GwZcJBejNLCIPp5dRJjW0JDKEXy0rkyz0XmBlQCXxkM2Ubo7kY4DKd8dai3JGFz8kmePXj/U4kRqm7Wlp+zn/vuegTr4OcEdUK3b0A5N3pjpwQbdLVN64qLTv7WkQddlCxjDLicoS20mbnihun3Wq8QefEoTnHxngszwCG1xlmJkhpOPw1NM4SFFkdJ1HGRGPwRqhclgSdPohOYPAVIsO/jdFcDDOurD3nOEQVOPcwtFtX7plOCIaOUJi3+PbC/EX/og6eGQqW+BcQ21Z5e1gyz6ae933qn4pLV/ytudWBPafjODQNLAX3Fcmmc0WevfzJsxMl5+qfosnLKIRoghjMMmdmkJvYitsl5Tc8RflEYhhfLUN57ifmyTJJI7U0YvJoYzQPg28NMH1ul1JaYKTH5o8xnEmRMGy1CcAAgOiQI1Z1f+BzX5p09Q1lhC/2eW8ZBTkyuYcVWiI6jDpOvyAuLT/z2uLCpfdrFXmRkKKOAGCft1LIGmdaZ08D+TwOzWAOjH3XaLRbJ4ihRL526WUYbJvGs4jEMB3YAhhmT0EzDicqd1hpMi4hn3JP2xhNxJDOiz0B+UyPBwIYzMO8HkZG9wcSQ02a0de54r1/2P3eK3cK7rwsDEVZNuUtBetuxE+66vp9Xb//iWsKs49YFZppMq1nA8yJxFJP4yknzbO0xJhnJcbgPMebhzCE4+Qw19RnPKddyj9UKpA/wRjOPkhqKN44MTMfyePIZYxY5LUxDgAG8xX1nCy2ixCtItlk/gHG0BpQ3VPLHSsuvmLyH//1i/CDJHlnQm7klRdRhdaWzuZYzwf/aGP3uy+/LJo693nHaSm4r0UBnZs2aV85rAtPRwFDMctGhwcpK4ShzT+aDa0hKtfAtOBpRZFCazg8JxxD8lD5vL09x4BsvDfTxpgADHOo3Lpa0igXgyMh62hB6UBhaECVusulpWd8prR4+UNUGnpm0LulimhiAJGiwtDDhnnMbRr411uPHrrrrx6It/92oZFYpcLy/hE7Fw6pIRqqidhzNqDBKX6NUvmejzwMKU8oSbzQLCJ5NDo/EBjSISpH8eE+cSIBouFIQOq0jXGAMDhfYMhycywnQFl+IDFQ6ok7Tlx5bWH23Jsnf/EfDHmeb5F+yPNJ0mE1rIBA2nfHV04YvudrX4/7t54Cpd2GUYucGYmckqc80dn2F74xAPA0bWjrYZBYWbnhBeJNeWFPCRsWy1l1ojAAX9dB50f6Czk9py73XxujaRiyvsw3vPKO6/E50Bgo9sSl0y782kHX3Xat6p5cRWMfU+84+HqZEJHcDON6EQBMuuJPV3eed9kHo1kLV0ErGyoqwD6k7DRKOhJRZA54fexsfBoFquTYeYf0KDCgqQOE05B7YgrUDmQOR3EdwLsaOVEYhpdZEjuOXNtqHr5xhhZf8mKjbWM0DcNW0m6+cQKMYSorovHGi8CwY6qZGABQ6C6XTv+9v06dVTktYr8R2o7yHsWBcHLCNzZMeXteAIDBu25ZMPSDb36j9ts177GeWFEjUgUpqazU6ZAeg1EEK8ZxcmklbyYQGFbx1BGOEyAZnCjHFJMTlBGQlp07QRh50amnR1Mm9GN0nxeRGhnbGE3CYBppG+6p5U8iuctPuLzsOGHa8cYAoLomDxePOfUzU6771r8UZi3gz8070ZJIec6Ly4Nvawg9fNgoRQDQ8+FrNpaWn3VJ6eT3fEdHpdg6Cx5wxqk4Hic7N3XYk9vEilVUTB7f0IUwlMFPaTUDpvW4MzTo2JsGMwwL1SIYjuEL3prOlXL1yL8yupWytTGahMH9KHjUwwCy+tKRmKpmknP4jjdG7/TtnSs/dGXpxBW3F2YtMJGVdFJ860Le6i14i4MShKE15FhSBCCu/OoXxYFvfvnqyvOPXa+Hdk+z63XpmMzgoxQa4LZAZR3unKf03v6BwPD0z/Xgd0AAPjm2xNlvS2IA7tP/yteV1GlwNg7gtzGagyFtlyNsuxJR4TIrg+CnBU1oHI0HRjTz8NVdKz/46Umf/cqqtEbeEs+Uhfa06tHnLgnzdu5D5Xkp2nvzZ88b+dkDt8RbXjlOkX/lmYYVpAB31MJViM0mZWqhwHoYTl1qvYBMjNCQkLN16PJkmmAMY1BhL+jSGxnk7O8tFaheG6O5GLYvRb87S0kt8jEKPpLHOGFoDahiJwoLj7u/810f/HTvR7/YB98ZhX5NGk25SRGJn2UGCLmsUeTlgA3cdsOM8lM/urG6/oWrdHnAeneTvPUv4BIAmXLoWIliNgzpHDynV8d4NNXLjf5ohrLVWwSDw/jcvRKQcwzgK4ml/LI2RnMw7OTKDkdOSNzXZiyEZGQ+Rp4UC3jrGFoDqufg3aUlp13fec77/lf3JZ8aTDnXi5oa3S4VirxsWZ7DGstysN7jPDGAaOj+b0SVtc++r/zzB66Pd2xcAmi30aaGyhQE0dFW9zorYkdHLJCSeRiWtXKNyZuBtHtuDUo4HnYarYLhGC1hOPqhPBkhyH0LJfLbGM3FMJlykso7Ng6G5XMudBGuOZblY8VI8guI5h71cHHZis/1XPKH60rHngKRGm2uBzfVc+htvpG53v7VeJwDQDzysx9NG7zj5i9U1z93tR7aPY07lD27Mzsp6viAsXiznhZ5NCvwWt76RO4IOP2a6zQ1EXqT5gRjMK8QhheVCT2GNn+l0bYxmovhRWKinjNemEcO/XhhJDYZIZp6yLbS0jNuPOjL3/0aVR+LA+IU2rfKox+XCCsEGvq1ad/Xr11afvrh62sb171HD+7pUhG8DpbLqKDxKPidL+k56UC+4BdcbuXIFJo9WwHDqoBoPEcu6wXyHWzm0cY4sBh5uEzCjqaeI8sra4ChY0BNnt5fWLjkno7l59w46eq/3JAWyX2nRg6pUSRV9+ZRhTFESKOglYLmlpV/9uPi0AN3nVRd//wX4i0b3q+H+qFCzchLIccVGMx8dUaZegjQqECfUYadbch5ePc+YeIxgsuJ0ICScgTqh8rQxmg6Rihyk1hyq0Hmh2QL4TfE0IDqPXi4MO/o75SWnXlL78e+tCaaNivvVgSgvuPhVO9iHvNyykbjsDgveKkxh3m93X9LO/LYfcXKi08tq7z09H+tvvrCeXpg9xSzK2g7gyKTvI7gZMNZc46ww5AbiowBwH3uS+DJzVXHCCYSI6CT4ExuCf0IYBQTehvjQGFowhllvXrLPsOLl36MQVJCTZq+u3jk0u+V3nnm33QuP2tt6eSV7KjqRUtA/XHfaK8qF0M2aTS7+3kOru7u/ihoUH7yh/MG7v6fH629sf5DetfWY3RlsAMQM5GIQOqGtiEDo47y9sHSiMZ2tozWAnChyG7CMfL4hFIdQlkklzFtjCZgvIXkTWLmXIyH4P6Voe/oHY6mz11fmH/0t7sv//y3Ok+9YLtPbdNYN9D3JzW8D2sse1hjudl01MvJ2oaXJu27/abTapvWXxRv27hSD/Uv0YP9EVR4kHshrnAItpMCVsPht9ys5442kZGdkPJmsQnGcJaK7OjgHmv4ZY4o0rGiDr82xrhhqPTEeQuEoHcmPyqS/HLzSERoQPUcVFbdvWsKc4/8SWH+UT/o/t2Pri6deO4wwgGMSXX3mpDvtHKfExwNhpIZOedjSaO510LS5eKNPPGjqSOPfX9pvHPb+bXX15+mhwdPinf1TUOlnEivkDtjmA4L+IXsmB1FgEheqURaRzrBVsGQZcjJDy45Rb6X2hgHBCPIrs7EJfuf6wCZDdk9qa4eqKmH9KnOztWFhUv+ryp1Ptz97svXdax4b39atZ7jkKne9tBYb2toWEc6rNHemQqql5c/2qVk3jlEGSovPlkc+sE3JxUPXXRc5aVnjqxuWneiKpaOiwcHTtK7tnboylCEWgwoI5cOsDLWUsc62qmd3pZJA0AMBahCESh2xmrSVKjuyeuiyQf1xcMDq0tLTv1l1NOzWhc6Nneed9m+juNOrWJ0V/kbbRHtT/mYMfIirLGkRiFho/2sEJ/R0Dm4tV89XazufnNZ7eUXUXn1hWW1vg0det9u6OGhbGYqdUBNPhjR9LlQpc4kLyfSScJtDaWUFxnZyCfLSmYuuLwaRVPNw0gKvAlZJ1j2mNc2FkPQUGhhZG1jNA/DqdcAwwu3o0K5dPg71kazF5QLc+ZVi9Nnr1Pzjx1G/eWbOQYaj0emaXQLQjMxvDCs3obZWMr2d+NtvDbs3gpuIxnGQnsgMSKizTvO49/GmHgMWS7zQvzlb558eXhvG4z9WRcxg0b3V+RFbqPJD3nkRvXHQjNW2eqVv5V2NhMDyN/YDPGX9NKwRlOnjfHWMUIDut4mdqhOoz2htyWGnDXqJePtDIMQgOy8egOsEV6cg2HK6tXPwwg52zyv32hGkDStgsHH9QaB5Js3wEJlbYzmYRjbHS1GSLZ644Md5tsOIxRhjcU5hPauQsKEaBrte0leeXShlIchy6WcjQwvLzUyyAONIcuYZjSzZL2BtT+RQBtj/6OQsTjHRnXGmt+qGHVTvehgPFK9KK9R9DEeGJyfRxeqE4p83k4Yo9Up90HouI3RXAw5Bhr95tX//wJDRlj1opc8rxeqv7+pEUZelFHvfH8xmCZqcBySoVUwGkVkEmu0crUxmoOBnHJOIRlGU563wnnbYBSpkBU8Fmcl670Vh1Fv8IXWw6HUKJyuZ3yyHfVSvZmgVTDq8ZBlki5UlqfbNsb4YYxmmSgdXSM7qifb2wrj/wEWWWKQ12wnJAAAAABJRU5ErkJggg==" vertex="1" parent="1JuLaVUi7zTH-Um1_Kfr-1">
          <mxGeometry x="630" y="1317" width="180" height="116" as="geometry"/>
        </mxCell>
        <mxCell id="1JuLaVUi7zTH-Um1_Kfr-14" value="" style="shape=image;verticalLabelPosition=bottom;verticalAlign=top;aspect=fixed;image=data:image/png,iVBORw0KGgoAAAANSUhEUgAAASwAAADBCAYAAAB10I2dAAAACXBIWXMAAA7EAAAOxAGVKw4bAAAgAElEQVR4nOx9d7geRfX/Z/Yt970tjRCSACEJLUKEEECkSu+g0pSviAV+CAKCYkFEigiIgIqgKF0BC1V6ERBCCL0lIZQkJIRU0m5ue+vu/P5435k9c3Zm971JbnLhufM89+7uzJnzmXLmnDNnywuYyav9ua5dyWPHeul7s04SfRKPetu1Jjx6A4POWb3zR/nw+v0Y6xdjbZZ9JjA8x5+rHJZzDpLUEFddG4aLv42up+1b3T7E0fYFjKSFFHfukoV6xrgfY+1gJMl5Eobrup629WkMwQqD2nVgaYQrz1af09PEF6mLzkabhGm7dmG4eNtoAnJtG4e+iuEaB9f80Tzb0ahbmfNOi+xqHxUsXwjZ3Q3Z1Q14HsSAFnitg+EN3qiQ3mqHD9cEY130o49hwJHH+SbJi03OeiJ7fRJD1FGxHmBOo+joJAL1T3oSZpzC5O3gGHHt7UlyCWhfwIhbPLZ2OOdWzpnaUnhzyvjC03ePR3fH1tIPRslC1zjZtXKQLOTTIiVaZKUMBLL6JwB4AkilAJGuQMpO0ToYXq5lhmgdsCzo7pqW/dzOMxoOPHZWducD36uz32vcj08Zho1vHE4SJix5rvXWpzGowuKA9TBJAutpmQvDtUjXFINe4zOCESf8tjHVeflHbmuqTHtxZNDduZc/Z8Y+spifGKxYNE52t3uQEsIDpKMhQgBShkegKlycXshaeToNb/DwTm/g0JdEY/MrmfG7/s9vW/pG7rAT2xt23C9Yk37UmdZorNYDxtrKX5u81jmGzcNS14jJcy2+ehvhKl8djKRUj5D1VBB7qx3rHKP88pNDOm69dJyolI/wly/cV3asnCC7VmXV6AtCq5SPiLnmSsp1bfCQALw0vEHDForGlpe8jUY9kNpki1cGnPsXlwe2NlKfnI91xOtTi2GLYXGmLu+rHq/HZUHAzvm1rYzzcFkjF896+ufqV73JNT7rCwOWvKD84dR0/t6/TqjMfPvoYPFHh8vOleNloRMQVQ9JJaVMbHkAtPah3hVNPM9KwzCkBCA8iOYh7V7rkGe8Tcbc23jQN5/MHXLCMke/12RsEsdqPWDE4fL6SW2wpSSvqE9juLaE9Jwvel5ma6Brclx84/jUu+hdyqweXJqShChpwtY3hlOpy6UfN626+qx9/Y8++HmweM52stTdAsiqwkHUmxIwlQxVLrzceiR80FMMdZ7KBKJp0NzUyDH/aTzoG1c2fu2sxTHjoFKS7CaOVR/DoDyTDH49CjTOUejTGIJnWK5pSrI6PfGA6vG2XLx64pnZFFZcn3oqYEnKe11jGP2Xc6Z63U/dO6D83uvHVT585yfBJx9tAQRVhSCi2zvAVCprmiLbv9XAkLJaWTS0FFKjt3kws/XEK7Pb7zG14ZATSoTMNc/1GEEgOp6uur2NQfNca8XFt551mGTQ+zRGT+SmJw3l5y4eayvfJkhxQsR5qFQvNsfqkxj5e/88tDj54aMqs6aeE6xYsJXypgC7RwSgui0ErNs3lSQ5MTwjntcbGBIQ2ZZSasTY/2Qm7H51y3cueEtsOKKSMFZ0bHhyWfyeylVvYbiMMSz5cQbbdf2pwojbEroY1qtA6lFmLs0b1544Le1qAy+ztSeujxyP99uVtz4wguLzD2Tz995waGXujF/KZR9PhKxA1mY6sgWjSqPmDjnLYdKpc+WpGaGtXsZAAIjmQZ3e8DG3Nexy4DUtZ1wxC/UrBDjKreNpyVvXGDa8eg24rR00faowuMKygcRZk6SG9ERZcH40j9K5tG8SHufH+1RvilPGPVE6vYLRdcuvxhWe+NflweLZh8tKMW3zYLQukLVzYSlDJLZuvWPIg/LrFKPG2GsZOj+97Rcvb/jigX9pPPZMVeyy9IB7PpLkmtL0Jgani0tJOLa2JhnJPothc8jrGWhKV48iqYe+3tSTeq42xdG5hMZ1Hke7zjDaL/te1l/44SmV9167XOZXNqlAt5EcXstaTesDAwCkQGrjraakd/jS6U3Hnjo1s+VERd0Tq6/OgWQDW48srw5GnDFek3Igvo2fCgwBE4wmW77LlXOlOB5x5/Wmetre0/M1TesUI1j4odd52+Xjym9PvtZfMHNfyEqoIOKi3UqZsIepZE0ZuDwevd3rgxgSgGga3J4eO/4nucO+9Y/GI0/uRH2LjKa4eXLJ/9rEiMNyKYM4nnEy+KnDSDJ+9TTERh/nJtN817XLw+AYcRbQhmFrky2trnJx9bvXMNp+ePhR5RkvXys7l44EyCMHbCtGFQGUErEFxFkdsHxN34cxhJepeMPH3pfd77iftJ56yXzUb3i5/CXJO6+zNjBsvJJSPUo2rk2fGgyXwuKKJ06B1NtIl1ud1Nie8qZ5rvbWQ1OP8ukJzVrFKL87Jdf5h3Mvrrz/6g9kOZ8TNXfFWNzS4BMqDeKRhIXEo7EpAbYF6+sYUgLe4E1mNOxz9Pdaz7lmMuwyDbjlK2nBxcnwmmAkLf56vDzXOktqc5/H4FtCl0ubtLA4SE8mO86Ls2G42snbFmfJ4lJPrcXqWMU1wuj4/dnDy68/c3NlzvRDgcD5dLrhjcCeVy0gOywWH7I+JPppwQAgMs3LMl848IfpkaP+0XL2NUleUE9kEZY6LtqeYrjW4Zpi1LPW+zSGx4jBCSygnD4u2WgUX847rj4/8k4HMNtdDwbPt9ElCZOLptcw2n5+zNji/+67t/Lh1EOFCPTipWEiw4tR+bVM9fKxEOEfpRUsSM5jTJ8qDAHIctfQ8iuP31x64/kfFJ9/IIdoqmeOuPzVQ7smGEnGj69b23qIW1ufWgybUrIR88Vfj7JyNc6F55rU1RGAejHi0poo5F7BaL/i9ImV6S89Fyyftxv1qtTiVl6FfuaKHKXaOtHFDaIsaEyJMBbs+lOHIQBZyWf9ue/8vvvvV/5ezplKlRY3dPRayZDNYNOjbV3wOj3FcHngHMPmzXiOOlwhfioxXDEsnupx5Wiy7Ul7wpMrN6486+UZd52EYWsPL7Pl9wrGqgtPmFB66fF7Zeey0cYnXFjw2vayseuJcptnY5SzuBJ/4PPThiGRRmr0+D+3XnjzOdktdywxMttWxKVIkgy8K60pRhzPejF60t4+hyEQXVRJYC6NaVMMLg2b1JGkttgUGC+Lw4hTIHF1aHm9bVwjjPLMqV73P383ofT8A/fL7pWjXK+y6ET3huraVUcHgmJoPkMY1dhZCqnRn/9L0wnnnNN48De7a0WuOaVpdZSJqtdTjJ6U9bTOpxrD5alwl5ef84VJ812egsvTCRBtQ5yidPHsKYaLB6Xn9TzLuc2zWmsYhYdumVh68bGHXMpK8gwS/KHB7Qgdwi2X+c7LZxejuv304c+ddmr+nut/33XTxVnYFUnSbiKu3EbfUwxbeZKB5+e2nYjNqH6qMNIxlSlz3jDeKF5my1fntkbFbZNcCoG2yYXJMeKUXVy+rW+28rWK0f6rbw4rPnvf7bJ9yUjbt6b0uYDxPBIAHRtSW0WQO28q8ccGuDPD78A5X2L+lGFA+vA/eO2UYrH4DoA/ktK4ueMyaluslNZVnoRRj/xwDBtf15rkvD9VGB7PIEy4MnB5AbYG1usy00byuvTI89Q5b68NN86icX49cfXjvMA1xsg/dPOg0tsv3h0snzdOABHPQd1p03fcBMsH9GsxNEZEA9gGr5pWMHZVrL74LGEEJfgfTb+y7bzjvk2GNUmGeEpaiK78OIw4+eBl9Xj1tjXTk3b3KQyq3eLcOArCmdu2SXHJNmE2hVOPpal3a0ppeR06wPXg1KMA1wij/NrTue47r7o6WDx7L6C6YCXZ7qg7ZfpP5atz5anA1HM6zCPI3TZCo7+IIBnP2onG/axg+MVs+cVHr27/1Xf2Qrxcu7btLtnnc13P2nHVUec274vvdHi9pPSpw7B5OLZtn83FDRLq0qON3tVwW56tYy7vL4Abw9UvnuKUMK/v8rRWC6P42N+8jut/cYo/f+YJgDSeWTKcLBl6E3oLRRRa5ChDpadjQtJCa2mo4a581jBKnUNKLz76p44rTh2N5LmqZ4uj6G3GN2kbSc9ta8flrdu2Ua4yWvdTh2HbbnFvhyorGwivazva+Nv2rRzXpZ1tbbS137U3jkt0kPk5z1N81xpG/pn79vbnTL9UyEpWb2kku/klwu1NZCsowvLItlESWumgUTwZv88yRtC+ZHz5zUlXd133Mx6EB+wyyOcNFlqeZ1trSSEUm+KzKUJK6zlobWvyU4eRJsRxe0iXprQ1jpbbeLo66eLhSlwD83ouDJdnZsN1eYiuOkneXyxGecqDTasuO/VGWexs4QoKIDEYhFsl4zUV6o3VMgXnoeI7IvRGKA+tEFQe8eSkMHl+VjAAoDL//cPFO8NOBfAHRHcSel6Lk+7fovi/+0eV33lxE6916JbS94fKzvYmGZS2Q3c7ZKUcNgiASKWBXCNE48B24WVmiCFDEaxcPM0bOmJxbt9jZqVHjnkv84WDSohfR7QdNrmqR3nyenFeTZ/FEKzAppxsjXJ5CC5QnuJo6qnP6WnbkvhwzW0boMBx5PWSxqxujMIzd6HrLxdc689/7/vKs7A+QIlwodLEHyStp8y20I0ytqhVDOiziCElIDLNhYYDj9txwHm3zsjfc53X/Z8bsg27HrJX8fkHdoePbYLOFbuhu32A9P0sEGQh/UgbBcVAOF8GjRCQSAVCeAVkGgrekJEfiqamN7wRo5/LbLvLJNm29JOGI75VyYzZDkiWnXrKbIpjdfisdwxhAUraEsUpLJsbF8fXpQz5tc1r6okyWVOMpHqudtSN0XbWwUeW3njmbiFLaeeDkDQfrEyR0JgWQq8C/EgTV458tVkUxGcRAwC8IRu/lBox9n5/8dw9ZaHrYNmxIs234L3RDwlUJSGbQ2qDjWcg1/RMZssJj4kNNnoju8sBnzTschAsKU6+eyKXLl59DkMgupBcLtnqeFG0nk2BuDw510DEtTGOV1wb4xRyUj/rwUnEWHXJt4eWXnz8ablq8XhVyfkKCtkKaUFnwk+9M1UHPE/xJAtOwFy8xvNNguiIzzAGZDg766MfmocE4KXgDR6+WLQOeTK16Zb3Nh10/KTsvse2w76mkhyDJG/GldenMISlgko98axcqd6G0jKOnaSI1hSj3nbz8jgedWMEC+ek235+zMWV2W+eJ2QQGmyyAIzYC7PU0kGL8BAmS32+h5Hk2hYfQj/GOsUAavOaaaiI5sEzvJGbP9h0+Lf+lvvKKbNqxXGyWs8arYeuz2BQhQWs3vbGBpakbTnfeuralBmvS/NdGPUOXJKX5VLkPcJov+z/bVV85u6XZb5tgJZZanWpNQbZgRCTbCwUtkisW8raufG9dWlZUBacfozexaBKThcTZQgIiIaW9tSoz/0nu+sBV3iNA95rOvFn9YZFXOuMlrl2BPx6vWAIBxAHtKV6NWu9ydVhnremGHEuJz2vp+/1urLW885rf+QVn3voVn/hzBONO2OwbAnpCmEelTWmoui41RaRUyeGUpI0zmIsvn6MtY/B61p4QwAyAES2qeSNGHtXZpudr2z99nkzxKZbBnDvSAC7rPIyfu4qXy8YcR4WYC7IOKar7WE4GufCcF33hI+tjT1xV5P41o3RfsWpuxUeve0FUSmEgl6bEcFWSaxAM3pJKnCDrhLnZdxNUx4Es/i8Pf0YvYDBlZkySqSSEb+UgGgc0J3a7HP/yu7wpStbzvzte4hfD65U766JXq9zDGEhjNse8nwOlOT6JW2x6uWd5I4mYcSletocd103xvLjt33Mn/fOwdw74j8hb1h3theJPHsFYoiFma+SLaCv+UmCR60/2bL0Y/Qehu0xjJCxiUGNlYSAaBmyOL3ZuCubT77gluwXDmpDfXIZt754eZIu6HUMOi6ciANyBjY6JJQllbu8pjjNa2t3klfVo30z49+TwXdidFx15sTCQzc+j0ohF5FOyx6EeliJ9NJcIPUmCxv3dT9Gr2EQ5wqARXm56klAiFTgDRs9NXfQ8Selxmz7Vu7A4+OquOR8bdGvdQzPwYTmu0ACRkvrBJY8F05cOwJy5DQub43zSeoHx4pLlFecwo3FKM+ZitIr/z1NVgq2b4yHiVhiQa+lnQYS4dZDsDzJrnldmAusH2P9YajfcRTk3EiOvCqG7/lLZk/o/ufvX8w/cNOF3Xf9cQCjjIs/JSXbWrKtg17DcAEnNYJ7EPzPVc/Gky5+Xj9JQcTxqief08QpxHr6WBdG/s6rRwfLFhwOIGqWpXkJwHixuSrFDIVuKWxmvrZ10F9AYPwptiR1XDD9GL2IQd0r4qbZdJRqgyE2NcUly13Z8tvPXpD/97X3dvzm1HEI5ZbLuG03EFjOXXk09ToGX8i8Ath53HbQs5zb9ra8EUlbPtfRtU2tB4N7h7Y6Nk3PrYXNy0zEqMx+9xhZ7BwWecUECAVYCbOynERRSb5gqHBTySb01MLrO4uKF8GmcZbIAgL6MXobo5YnCb1mxedZhF6YoIRQ4uLDXzxz38Kz9z296pffOBKhfLo8IFe4gyfXzomugV7B4F6FbRvHt3fcG+H5KsV5bLaFb1v0NhxaP86jcSkXnpfUbpcSt/FJxOi+97oWf8m8o5Ukc+WjlZA68EWBUIGpu0fqZV5qZfniUvWMX6IRRPZr2PwVEilCHtyS92P0DoaeW+pBKYUmTB4Rj41g6MdeOj4ZXpr8n3+v/P6+ZwQrFtIwBFUutrVA6epxItTRpqDWCgb3ZGlllbgSsC1KqrCStm5cISmMJB6ueFUSrUu5rZe08vT9ditPe/4F+OxHWwTCXzEmllkJML+zxMicBU4aSu7gb/UQLN5DP8baxbDx1g6ZjOZLwPgFbKXYIkAig9TobW/I7X/cT5q/fV67A82224lbOz1Zl2uM4dJ0XBvaAtk2pZbkSSka2zbMxiNu22fDS8JIatvaTgZG8fn7vWDFom+hUoKoWVGhhJFaaxABpSaF1NGxE8JDHxHykrQOYOAqHOU1ACYNbZO67sfoXQzYymF6UBRD6yRCzz21UEbK8Oe8fUrxf/fd23X7b4fBvT6B+gx9PWtorWJ4lj+wc1scioPExXtsys6Gb2sP3xrW473Vs8111bVdu5R1XF+tGPnH7szKro4jlcdkxCRqp5BM2FQeWRSRmAqLa9CtgaHvBKGHKdxq+2DQUMuOfox1gkHnWJjbQcDE4ApR5evtKPGwlLwJIVGZ+dr+hcf+fnfHjRcNhXvd21KSA2Kjd4WQVgvDpYSoV0I9riQwSsPjOnFxJ5uX5VKUKs/WFpenR9vv8uTi4mE2Xi6Pz4mRHjlmq2DZguHU8lEPyhD42okR81B0yoLTeiTWYRCD5SNcKBRLLx5Ow1ZDP0bvYhieUu3S4E/5KAzFT5hkVk+wRuB/9M5epafvurvzpouG1nJtcSeebLFlWofXjdtxrRaGzZOhxHEeVxxw3PYtLu5ku7bFtXqiNFypXo8qjk+PMApP33s0EIQuPlCNPXDTS5KgQkktMKPXFpcJrT538Sf142IrfIvRj9E7GCrZMLhei2w5aRvjGghAQML/eMZexWfvv7/zll8Ps5DE7b5Uigugc1pb6jGGxzN6kLhC4WW2uwUuF5Hz5HXoeT1btSQMl3vq2pom/dWLsbeonWnhEqHg6biU4kKuKT3YOQQi1rSnycAgeZymH2PdYiSliJdXB6be3grAn/P2bqWn7/5T/pFb4x5i5g4N6rx25a02BvecXK5cvcm1xaTXNk+NbiHj+HCviionm9flwuD8bH823LibBLZ26LrFFx4cLtsWTwRYfIHEN/Ttb2Yd6S10I4+cc5NsbBUYPcDOJcF2Jcna3Y/RaxiaB8GJiEUMhs5OcgVrZZW5047K33P91YjeoEoK13BZp3R8Ddrq9xiDx6doslWyldk0aNze1LW1o7xc2zqbcrXhxWHYks3L4orIxt91jKT8g7duI0ulHBAJdcCIR4nqdk8SgaV3ikDo9CscxOSrRWHEMYgUazy68Ignx+XbiLWgH6O3MUKXicgJqc8xDM8aYbuox64wNPsIRoDKrLdOXnnmAWcged3Fbd2S1gWtv1oYHJAebVs+lyKy1Y1zD10xrKROc48pLiV5iS6FF6dse5p0PX/WO9sBlbQhPNQ6sjxDqVFrSgTP+H2+WjJ+HcaygKhHR+RWYwjaPpAFJgh9P0avYig5oNfqxMDgBDUMFRc17kSrtjgwEJTSlelTLl91/vEHqhzYk2234aJLKusxhk2xuLyNpOCaTdtyXjatGhf7ScKIq+fCWD/J83YEoD89QmMU+menRGgx6fM6NOaghFzXr+VrZSdMnkCo3LRFprxqybgmGCA8tYXvx+g1DGHJFwxLY9B8ikFlh/DSysmBIUtdLaXXn/5T+2UnjQ5761x/rrx6aF06JxHDpkR66nnY4k+u+rzBSdtOFwZNLs/MtX2MC5IneYZxPGLLg5WLtlPn1MpB1Cwfs4jGW/qSLADDDId/WgAJPVlj1WxizVU7KI2w0REvAP0YvY5BMxIxLDIiCD1loj1AVW7BEAKQ7Z+MLU976U8dvz3N9qOygD3uzdcPz6e0lB8vT8RwLV7AVDA8cYa2IDjn2xOePM+2r7W12XXN22DLsyk21xbWpRytGIVHbhkFKYcIwHzuqmbpIOwelY5xEPoaeSidhvYLrTcQCq7gC8msYk2CXxDifoxexqAMlSKh2aw+OIaItld7gIDpIXIMAfgfv3eov2juqYh3IlzJtia4fuD0dWMkeQ6umFScV0Z5xe1Rk7ZpXCEG7Jxj29rek62gCy+pjrOfxefuz3bdeH5TYfITw1CpNHETLYGocMOyOATxvoSdRm0JI4tHFSq3nylBKtw6NkMFnrevH6NXMYxzaRo4fgeZXlJlRmF0LAvQL04nY/goT5tyefs1P9wGZqKybgsB9WR35kqxGALxC5wu3rhjEi1tjC0lKRdebsNN4kMHwTWAtnbblLfRx+J/78wWX3xieHnalCHpzSfsVJn3wabB0o82SQ0evl2Q7/JkMT8c3SuGRyU4dMXDDIQWlO8hLDSS0KrtgPbaYli4WLowjCb2Y6xTDGXYhAVDAmH4wIYRYRRex2IASA3f4qmmE396ROOXTynUyJLWRdJ1PYorFoMqLJDCJOXEaSlTWOhdPFzKbHUUkivZ2mU7d2HzcgAI2q/58bjK609NRCXYx186fxshxFay0DFUVqpfYYgEStU5T8RSR4q4MgMTyBhhtPGxCShEtIprYenF0Y+x7jB6ouVc7UhiZSuQgPQylewuh5426KoHbiEl9eoB2zqvdx07MZTC4prPlWdrXJzCcvF0nXMsnurV5vViJLXZKOv83Vnji688dZRctewwme/cApX8EBkEUSGjFkyScxFaXOM36CyJWjyLYxaPAftisSlAw6OrtYsG/GUNS5PIfozexNBklC/1qKhS4zQEw9r+pPqMBhLwBg6fnt3nmH0G/OS6ZYxVnDOzOusybo3qo01hua7rdelc4K7ynioT17bNlVdvnUhZ/v7r0+WpLw6rzJt5cvDJx1+VKxZtA/hZw2oJizByb8dWblNENmGTq48R8dwYDd2uGFi0nLQJFn79GGsfQ/O11SG0Lgyd75AJ1PpRF4YUSG+7268bj/zuhY1HnAT0XDfUu+ZUeSwGb2aSInGl1VFqcZj1aNs1xXCW5f95da70xuQ9Kh9O/U7QtvQomW83ftlGC64kMkEsL2zXLHFSpcDWFMPQY6w+FUyr14aojNvK+jF6GYN5cZSJ8biLQ2YiDx9zQ2jxFJ0YANCywYrsroduO/Ci2xc7urvOUpzCisvrzbQmimmNsLr+fG62+PJT+wfLFpwlO1bsL/2iZ/NquCAYxTIqhNRiUs9KWnisDQzDytZo9FalVpd7cQpLyzIT2n6MdYPBFReNd1HjFKcADSXGeSBsV70YMgBSY3e4bIM73vwl3J5RUuwqLnzkoo1g2AxEXHTfFUynyRWAs+13bQrJ1XnK38YzqR+cvzGwbT84+ODKrLd/JjuW7SaDcjYiqLVks6pWzygmGXeOegGDCp5aPEY8pVZOf2Wa3m1Uef0Y6wfD1EBhvbjElRTHFzbaejEkgMZBba1n/X7L3BHf4bEsW4pb35yuR05Juo6KNqXgOue81PnqeExJ8Sh13VMvTNN33XgBgpWfjC9OefyS8htPHSplJS1gsXQ24aQutCENFkQmMYay6gUMaqEjeIKREwutvYYaf65M6XU/Ri9h0ApMgbkwIls9Vk5lTD2grFO9GPlVg7ofvvksAL9EHfFfhEqr3ptbSbFzD6i+/OwxorjEGSbRU7q4W5lewjGJN/9LwvDaLz5xUOGpey4sPPr354Olc48EKumI21y71hZShuX6vS1NwJIkR4vFW1cY+poKIhF0MIGm3oKgjGQEoh+jNzCkWYleGk/IU4VIZYgDchlZTQxAwp/73nH5B24YgqjC6YnTEOcYJV7bPKd6HjHgXo4tUd6uI0/10PEtJW9HoufVdtaBu5VefOK//sczLkCle4Dh/RDrFrF63Esi+ZIXsGNEKHoJQyvD2gJQitC4JoIOIPrTUaRtKklC14/RixhUXgQijypQDH1eU5CcJzWIhve0GhgAILtXbZF/+Db1NQfuVXHHxxancjkVrvIIhi3WZItJ2bQdZ8zjWjbF5/KcuMKx0fFgXpKHF8HovPXXA1acuOOl5bcnPxZ0LJkoPERmRQmUtnbcWnLTiSiNzVKuKwxl6fVCYRaU4sran/7siKE92Zrk+f0YvYJhsCYKjoNYH0PgfGHhrfqyOhhB2QuWLz6pNOOVLOyOAz23Bd9tDgYYHedlYKQJcVJ0P86bcim0OHCabDiuTrvaGEvfee1PRxUf+dud/uLZe0AG0du7taO2QEow2aTRLYFESE/v/FmftVlXGDUGmq8kNKQe5aWFV4S0mhXHIY3sxw+xvOUAACAASURBVOgFDKoIhQFjlRUqC9Sj4q8I8TqRttWDIQHZvmK37lsv3QrAdMTf+UvafdEUF9MyMPgC53fnXKBcGcXdzXM11hWU4xiKV71xLYO3XDov3Xb2YXvnH775BX/RTFNZIRQUgFgkcq3PZXwZkbGQbj1gKP7G1kAJtCAYzAug9agQ61Uq7bT9GL2AIVm9Gk/qkatr/TVUEAzWDkOuavmrhSEA2d3WhEL3sWFrY2+68UTj2fWEniIYrm0V33LVFRCrI9nu7rniTy6Mejy9AADKUx712i448eTy1En3y87lmwAwV72ybjAVAggJVBmzWIaQ1jJcPyO+LjEEXRCkqsIweNdo6YODgvEC++vHWA8Ygp0LRisQfi6bMFSf2qZ4Wm+tLoYAKgtmHdp913VNNVZxTxDwa5eiojusuJg50jEAfIvleszAyTymbHXr113e/c8/5jpuvOjsyqw3L0RQzimBUBaIC5NOVKJYmfH+H1Eu+ij7EAarZ329B8RLEGaeuvMkyDVgx+nHWHsYmobmSzumKtOPKhAFZLB2yd9qYshVyyeUp00ZBmAu4WDb5rm2fjze7aoTCd7bgub02gaadAeA09oabEtJdw5sPKxuZOeff+YVJ917bWXWG5dqZQXi4RBFoN3g2rly0/VtZpgWkk6i4smv1ycG58fpqauvkk3X0ZgKP/Zj9C6GydxeV9NTo0boDBHiGBYF1hMM2d2eDtqWHVzLsgXUk+7a24L0tMzltQVeTCVbENyWeIA9zj10BejivCYeeIsLxHud15+bLb05+a/lt587WciKR11caoVoUhbJcIsd1k/v77kV7SMYNnaCXxAvweUF8HJ67MfoPYzItLL8CAYc9Sh9gtz0FEN4QLBozn61S9tzkLa7+66nCjgNzzMwbCC2RxRcdxBdj0XYvCW+pXQpL1s9m1cX6VDnP3+XK7323DWV9176LpUKY464onBNvEPY1H7eJSDrG0P/kg7FYiC0LGLZmRLlAeF+jN7FiDz2UEtadhxGztBFFgYag7VntTAEILva90LUUaF/3NmxeVVJMfKIM6SalRQXsqWe1HFtI5PuMNhiXh6AoPzyM+ny/PfGFp+5d3TlvdeGpMd+fvegbclof8lHhwq/pF9a1ntxOgm1c5uHTIVGUB62XtnK+xAGdfW5DFqGI4zREL7GQ4X9GOsEQ+fVJlYkENI4msbQDSVtsvBbXQzAC1p/+pftG798ygzW7KR1zp0hrrhcedV2MrCkRwZs+0uuTHra6Dj8AAAKD93kBcViOvhk/k6FJ+7cSWQadw/aP9kLhe4mBEETUEnL2sjrOeJurlXqTNpIUsJIBc02wQZQ38NwGMzk1IOK/RhrByMy97HEiHwJRPMQcAb1ufJcLYxAID1+99OG3DD5LzVK15qOS3G6xJbnpRlQPUHxpNuWHMTWoLh4FQB45SkPpTtuvWyol2naq/PmS74quzv2lh0rhkEAgqs1aS5W/T0fmk+Ugp4AEVpL7unQl0QN3obvjVBZ9EUMxZt7AVDM2DCSxWK7SWC0rx+j1zCsXrcMD/qmDeFF5cIw1oQHvwO9JhgQEiiVdoyOjJFsIaN6nB6+FdQpDdPlint0oSegPd1e6tR1w4XDi689vXf7lT84Puhs27/StbIJtUkQqRoRnXBAexkgg2zcWatZm0gQ0WVliHWSNnoiXFo2qTCsTwyjQljPypfXo1UEdf9N/H6M3sOIbMVEyIobMqOM1mGKi7eVV1gdDACQnW0TyWVSeIfSJB1t/ADYv4cVB1hP3urEw9B27lFb+PNmnRksW3AkuttGS+nrEdLfIAKMBasHURJvAyGdzSthJOFkEOXBPTZNJ0N+uszh1aw3DISCz4XY5omp+jT2YdsC2NrZj7H2MQw5iFudFqC4ur2C0Thw/qBr/7tl5nNfKKD+eBQQDf3QMhCaiJPk+h6W6/aizbNyAXNPzKrYOv/00wnF5x/+RXnKw/tLvzQIMAdRLV5DaYFYNGal9MASAVGWg0+Q8d0pSsyS4RKTa22RFF0fwKCKXVtHusBgHy+6dQapQ41CP0bvY0RuxpB8WDCobAMwv3clw/ogNFyGVgsDACrlFn/Ou6MBvId4L6keh8a1ozP4pJGsWJLA6t0eakXWdc2PUVm1bGJlxis/7/7X749EUNYfzgOgR9CYfKFlICwj9FyIqJwJImjGXUNYaFURKad6UbvtMtqGvoJhWHZY6JUgKv7SFEq1VeF3WGm8ox+jlzCUIiPnEe+aYxCZl7R9BEvJEhGXNccIZFPx5SeHo6qw4pLzbj85xukgndIWQlgqxN0BSFJiRnnbT7+6SWHyQz8Jls47UZbzA/Q+ni9eusK1yg8nwhhkMMtE6LmrrpUgLyaa0BAu2hbJK5HURzB4zEyNjaDjx8YqLjajMIwF2I/RexiwYxiyTTDUKz5aqUhGzzHg7kePMWQlW5755hDEB9dpvm1LmBQbN+jTrMB45oEB0gc4bQqO8zB45R+4san41N2nlt/831myq22U8NhEEoHQi1mwNcusByuK5FPLYLgwlIZOJLcyPDElaoubrW8MQ6kxGj2mlvGjdfQWxzIHPDDcj7GWMWx1JKFhGIKdUE+JB9MliLFn/VgdDMgKvHSWfoHU5S3BUk6vAYdHBab06JbQlerZm8YG3Dr+8KNxXbdddm2wdN6+kL6nqcji498xV0rLWLB0Ikl9nS2jdOZeq3o0ZCJOyJQlITQ8xtAXMbRQMmVN+anx5Rgub0K3TWjSfoxewKD16ZxH4pa0DbQuVSpsfWh4h1z1FENKCW/oxlsDb7mC6LZnNF3nLiVn1E/Drh05MS3n55xO53X84Zxc5YO3Tig8eOPVsthhbv/oOWCsaOuvIrPBtw2iYT3iMKSZxb0zY6JouyxKVZ3wvf76xKBdplqNLhwDl44VwTPaRIv6MXoNQ1IaweRbhkeVR5tAsV20EjCf/VoDDACQXR2AWym5nqdKUmbOO4x0S9iTRxHiYlnVu3+/O3tkccqjl/oLPzhRSN9TGl/Pl4S+o0GDgqiV6cFTeeSajpnmqxQcrccw+A9EGpaH4RsCBrPdgGkNtbD1AQw1Dnx9qQtKYzCQ5rgawBS7H6NXMWzyoWXHhiFCphqD8iPrI5LWEAMSkIVuwB7jTnpMgefTY6yH5YrcJ4HyRALrX55QeObuW4OVCycAMpwkYm1UEE+qfDJyehIR5gFRC6D4cuulLRbDsA46mPUBm1zSHt1EwkNV6jMYZBxVPo+V0MWjWOoxllEaQ/hZxX6MtYzBFCTVlVQ2jCTCo+JNlZbxiI8027kmGJAA/AoQVUQ2zyrO2wKiesV6bdsS8gYkBcWMtOr84w8tvfTY32S+bYjh4oIMBlmsxvtOZOa0YEgyQLAMtFJKZPKVsuIYKl9NIBU+6r3Rhc+3YcY8KkVB2re+MagypIo7IqhUoGv19OMfioc06SleP0YvYVD5ZtrMKGeKDYQfj5Eaa4bI3RpjhInHsFwxbRc9p7E5TdrDgqXAeVuRlWna7tuvTJdefvyE4nP3/QlBsSkSjJSWwURYRl0l/TVGMvGmNooOpK5umEJGoywPiBAxfhRL8vbUzqnLbPQB6x+Del4GNh0bNj60rm18FZYgdfsxeg/DmmfBiJCL8KhZ2wjXFobUlWw6wRVAdz33GUevMVyakZ9TBpHUee2Ps8WXHruwPO2FG0VQrH7rmSzImu6JKBYJmHcsBFm4avHJkJeiUV4XnRRNIpIx9CmzJrTdVNlqRVI7FyATptrRVzBA6lClSMdLhnmKlzFPlA9Mmn6MXsYgtJLVjyg41Q5p4QNHGa27phgCkJXi0I4bL8rBjD3Vq4TA6Pk110eeSKjgKtPAndf+2CtPf/nC8rsvnwu/pH89mW5Z1IAohQKSp7PURJKFbI3/qIEyWYWxLUs+xeAemI4nKHqKQdohhMmPtot7f+sdozb2ql6EhysxnpHifox1jhH3c10Kh64P1STNmmHwNbVGGBIQ6YbA22jsHbldDz6n+Ye/X0aq1fsKjsoD3FvBwEaorpP2n8aesvzBtF+WZ7x0HvyS3l5GlIO6NDQJwsCyCGm0s0DLOV+Q/Jq2F2D5DgxKJDkGsRyaTE2WTYkgpJd9CUMpfcLH8EgVT36tBz+sw8v7MdYtBpdnfm4oP7oOLApVZzGFudoYAOAXPX/Beyfm//vP5zt+c+p2iI9b8TuBnoPedhPQ6WG53DHKNChPetDreuDGH5VeefwKBOXwsQViVUxXh10nJFn7Z1u4sZViymUSvx620YbdJzB4HUTLE4eSYyS1qx+jVzF6mtY2vyQMKQGRaW7PjN/19PQW4//VcvYfKkgOrvc4nz/z4HLXjFuRctEcr/Oua44pvfrkhQjKYX2irY0vK3BrogvMo5TEUhFNrvbNiqcOVHN+glk6CwbFkTDxDOMiGY6tPs3rIxjWMbHUBW+bAWLi8fhGP0YvYnAIvjbYkZa72sZTb2AIAchy14DS1Em3Fl955tzCfder3y0MwPQHy1N/HiuDpY7WCYm3E0lZ0Hb2IV8oT3/xIZlvG0ZdXBpDkoARx6KxGqXYFG1kAER4af3qY62i1dNQBxdGjUCPNfUIFT1zmSVlojBZXgRkfWGQfH73CrCMF7umY0frRuKD/Ri9gwFCK81zHgKg7aL8ODavZ2D3Cka6khr9+buaT7vk/zXsfnihRuV6et327BYstDoTrAJPhnbsuvGXwyqzp90t823DlCLindBHNiBcwfCJ1nEBScq560wtEaGlg+bCACVlSkSfCmJVKB8FSjpI77pw67M+MTQ9wj8hkhcgBOGnsqmQ92OsEwyqPBQ/LeaS5QnNXmMYnhFbCzre2asYlXRlztv/13nNOTeX33gmh/iHR7n3BZIPRmP94qhzW9j553Ozxf/95wF/4XsHU2Wi2yzJOV10QPRDdmRB2u6aSGkqLIphKCpCAwnzsQgLhhps+ixTBJOwp7E5kLocv09iWIxEJEmzHfXGY/oxegkDoWGKeNnuZhk7kb6DIeBtNOZfTced+b2mr/+wE/ZXc1Sq61UeL+EYgi/9OF16/bmf+gs/OFh5U0rLqid3+bYksjIBY2BobEcJgx5IsGul0WmbKA3l5cIwi+xzpBQs7YtuTGiltDdY400VTF/D0EmSP3UQpsXlQigRk/ox1j4GTAztmTEazYIaK4rB1pbGUGt2nWBIBEvmfj1/3w1/zf/7mgE1apeHxXUOvTsY62FZU/v5X9+3+MLDD8hSZ0tEs0qYjyyoTpC8SLFamIDeTjrpbN6Gg97mpWkMImSajNLTPIJjGyS6PTO2w30AI8LHVo8vOIui5xhxVrUfY+1hSCDyE13WOXckZ7lSTrXjusKQIoXUqG1+6226+c8HX/GfpBgWTVYPy+aeGXcOu/5y3tDStClXUmWlvBrtCRAtK0C8B4nQAyNkQiD8/rQ06TStJMqsRq+w1Klui0rCjRGJL1gUiZSADEw6yl7rmVoDuCDXhQHa+LWPoY6ajzTzNW91TaVPhuWSXEe2o/0YvYNRk21qdDUtlUkmMGT5GUlyLEnW5jrCEPDhz3v3R2hf9QPEx7D4nUPA4mHFPhbfcdUZXnnqlIsrs988X9A3ivVIw5moh2NsF1V9Xpfn2a4pJitPsoRq0AWrU+WZgjdkBLJ7fQXZPQ6HP2saSi88gsrMNyDz1e23nmQmtIbQOTAisSfeD3rN295DDF2ewNM2NgaGiJmOfozewSBHrsziEg2lxLpGRqV1iwEv293wxYOPHXjlg49bKPldQgDRO4WCFUYYrLrwhO1Kkx98URbac7qS1kKWDlP1SzQ4p5G8jm2xgc2jxQpFeIPxcWDKmhb1Woci/fnd0XDQ8ch+8WCIplaIGpGUEsHShSi//TxKLz2BytTnESxbCFnOa0wevOSKxBAKx3hJxovyi/QxAYPi0G2wYS0pHlloPH4YW78fo1cwrMYUdlp1brTHYsRomaveusIQjYM/zO56yJcHXvKP6XZkI0VuACbqyeXHbv20v/D9fflemy5CmgwFU7M8YBPBk8WARRwZI9/CT+G5eqTbIwGRzSG1xQ5o2OcYZHc/DKlNNgdSaSKMEkIIyNpIq3PZvgKV2VNRfu1/KL/5LCqzp0F2tYHuT13drCemwWkjAoyeYUT4MOttbQ8HYZPRj9G7GFwxRnBci4NjKDILFoSl+jrCkAC8YWOeadjvqK+2nnG1unNYz3NZAHs1B4QQALDq/K8dWnz23oeErHj0kyeAfSLUudMSCdLB6DjQflktjW4CUw5OzQ/z2ttoNBr2+jKy+xyD9JYTIBqbASFqbZKGZ1XlFyotda3KZTGPYPFHKL/9AkqvPIHK1CkIVi50Wk/rOMFubUHGyei36nMMBpeSiHDVaFxtMuYJIU/Kox+j9zDoRHMFJ0klZzggChnFIETrB8ML0p/b5bLW7//mwszEL9X1nT2VqMIyNFrx9adaOi45+blg6dyJtu2W0qBgjVGdsymtiKJhnab8Y62awgOZXzrYig4CIteCzIQvoeHw7yI7cW+IloGasVJINm/KGCSiqGzlCHzIzlXouORbKL/0SORZsMiPuoLk075yYaWDBTbGcGA4B5U3ICqESfSxef0Yaw0jMs894Qe2/ujao/KC9YchJSAyTZXs3kftOfCiO16ysHd+scH2M18AgO47rj4qWL5gAtf89Jdl9YKi2pl3iiQ9BrX8iFegjsIygISJNUYgQ1qRbUZq7Hg07Ps1NOxzFLzho2p4pmKiR37OU0RJUfxUGmLgBhAtA01FohtndM3IB8+jp0wxC8bLhgGFD3NYIcJ8Xaj7ZscFmWtpMOvH6DUMNd82cSMCRLdhETsNYgh5fXK6vjCEAFDuTpffeO6v+Xuu26XxmDNKsLw3aLvmCssDgMJDNw3ovOXSMxGUo1tB2hHeAdpRWLwkSSZLVawNkMsVVaB0e6SUI13EECmkRmyO7K6HILvP0ch8bmcg2wC65ePKSjfL4mXx5CqPeGM6H4a1VP3j/TAGkFslMhZUqekFYMFw1ZUGkzCTKj8pa/VSaQh4gPQhfR+ithjpPOt+pDLVykEFkEEihm2s9DXDWN1+fKoxhKEzjF2DYQepolT82NqJSnEfwhBAsHz++OKkB88G8Bsk3yHUHhYlDAAg/9idO8kVCyeqBhmLSJ2rBYhwgoy4DMJy3UnVcRlOqLIohofFjraFqLV300BkJu6HhoP+D5nt94Q3aCjgeVpJQUoiPOZ2TuqRBGSpAH/+LJTffR3egMHI7nFEOCm2bSBLRjlR8tZYHO2TNLtLeejndWQ4psbL4BYMMHrjmipPUq96mapunfc/DunNPw9kspBdHSg8cguKT95hCqbXgOyeX0bDnl+u3bBIIWhbivztv0X57WcNBQzPVIi8rbat7+r247OAoYeOYRhemyD0SqGQ9ahoBEwMIRD5isp6xYD0yu++elrHVWfc0frj6+Yj+QulHv+pehSevDPbecNF58hK0dOLxBBs0zqQeTR/adZCS685nb6jWONDBySKn0J6yx3QcPAJaNjzSHjDNoFIZ8igVEfJCKJTrygIgHIR/sezUJ7+YvWO33tvIFg6H7KUR+PXfojsHkfEbheVVxbZWtKJNrseUfp8LLiV04IBQEoPIpuDaN0AItNYzasUITuWQxa7IWo2x+CtWFrGH5IslGwTms+4CrlDvwU0NBp99ee9i9KTd0JpVm/gRmj5xS3IfuGAyJiXXngE5beeRcOB30Tj0acjWLYQXX/9BfyP39Xm1hgTtggEQiXd435QhbK2MLSG8YBMI8SAoRDphqoR7F6JoLMNkBWjbt0Yal4DAZFpgBg4FCJT+7p4qQtoXw5ZLgGiOq/aKajx1sYK4bk2/oiWK+NorCW2vrmjoZehiPZDyS2vR4cwCQMAZPfKUeWpU37Z/citpzUd9h3bZ2XodRD55efSmy9sIZcv3JsqEt4Q3RpmTQSidNzg0EAxVXJasFQlrtFqdWUAtPz4T8h95WQILwV+d08pEQ0jJVApI+hsQzB/FsrvvILy28+jMuNVBMsXAEEA4RE8S79sKT7eVZ0Y4zPIutAUnogFpzy8DFJjxiO755HI7Lw/0qO2hmgdBHieJpKdbajMeRelFx9DadJ/4M//AJC+ud0kwhKuKNR0kIfms65B7ssnV7MCH/7KZUChCyLXBFn9Gadqe5oGoeVX/0R24t6AEJCVMoK2pUCpANE0AAgkUpt+Di3n/BFe80BIIYBcI9rP/QqEXySdC9tEF3hE2cAct7h+RCdhzTAgBLwhm6Bhn6OR3fNIpMeOhxgwOJyoYgH+gtkoPnMPCo/chmD5x3VjSAAi3YDMNrsid/i3kNlxP3gbbAR4qSqN7yNoW4bKe6+i66/nw587XcuTlEDjyRcjtdEoS6fdqfTS4yg+/W9zrVlEWP9IBj/W2u4Se/7rOz3B8BfO/nr5hceuBaCezXJ9hibgMSxU3n35G7LYlRNqTSgPgCgTbomgyokiimhpEPdQTRrR0ryMLmyuCb2hwyFqk2tTHLJSRrBsEfx576M8/WVU3n0ZlVnTIJcvgPQr4fZUAEgxj6aHKS7uZfO2+FHRGfMtBVKjx6Ppmz9Ddq+vQOSanBhi4FBkJ+yJ7IQ9EZzwExQfvxPdt1+OYMVCjW20V+HUxjm93Z7IHfatapvKJXTfeRUK9/8VsmslRPNAiNaBUO5Cw0HfQHbCXgAEZEcbuq4/D6Xn7ocsdsEbtBEgJMSgjYB0Vk+eN2gohJcBagorsp1ic2uMFVHqSf2gxWuKISWQ2fEAtJ53E1IbbVrLI4YRAHJNSG3+eTRt/nk0HPJNdP7+bJRffQzqbRAXBgB4QzdF8ymXomG/Y4BszgAWQgBeCqkNR8IbeiSKT90Lf+50I3id3e1wZLaeGGlXpJ2kUrByKYpP/RuSbNFVX3ky1jeVTVJHWOpr+RU9w5DdqwZUPnrvrPwjt57WeNh3Koj53EyaFwYrlp4YiZeANLD2j7p5upysRlXfuN2OsB59v1DAnFCVrPvfmKQ8q8KDN6P7tl9DrloKWSkZSlYpK6NeDE9XQJ4KBlckNn62BaXHkAq08NCw/zfQ/P3L4W040hiYoG0Z/MVzIbvaqx5A62B4I8ZAtAyEkBJe62Dkjjkd6Ql7ovO3p6Hy7osEtNYIujh9IHfwN4FUGhJA6cXHkb/tEqBSqNIVOyCXz6+2P9uEhv2OA1IpQErkH7gBhQf+AuHV2ra4o4qzYjHKrz+D7G6HQeY7UXjgJshyl+6jwwYZ7TS2D1z5WPpBDerawkiN2hresE0gpUSwYjEqM6ciWDwXkAG8ISOQ3nJ7eCM2gxAeUptuidbzb0H7ecegMn1yZPtlKKthm2HA5fchs9UOAKryGnwyH5UP3kSwbEGVZsNNkd5sa3gjxoCaUb5G4pRVWEc1whwLyefDZRiIo0Lr0TbVhiwaG60TAwIIlsw7oTL7nSsBfFDLtf2yjnmXsP2q0w8v3Hf9JlTpKA1rdEKVW9zACB2idFwD085pLBuGQW9/0BNSIli2AMGKBVVyj9ZhbeTXamRpljCf1bJtQY0+14FhKHBBBFECuSNOQfNZV1e9KimBwEf57cko3PUnlKdPhuxcVb0jB1F9On/gEGR22BeNX/sB0ltNACCQ3mI7DLjsbrSfd2xVaYmokEkJiHQG6XE76oYXJz0AWVNWfMvltQ5BapMtqxX9CkrP3AcIaQRaBQBZ7ELHBV9HavT2kF0r4C+cCb0nlmH/leGLaBNhnlIhtxnJiHysBQyVgmUL0X3Lr1F6/j+QHSuAoFybsxRE00A0HPRNNH//MohsDt7gYWj+/hVoP3NfyKAYwQAA0TwEAy65C+mtd4CUgOxahe7bLkPh0VshO9sgavEwKdIQuWakt94RctVysz80+RV0/OZ0+PPe5yWRFCyfD3hsONRYEUUTwRDm8PEwBh1jVbY6GLK7LVd+a9L3AJyjmsy7AJgKyyu/PukgiCDi1WjlQhoTkQOmVbWHJmAE0XXjhdkpWifyQCVJWuFblEZ4LkKPimFE+sUtCBslmydlwwyVZjIGXVR0IDO7HIKWH10DpDNQ8amua3+KwqO3AagYW0gAQFBEsLQLxSf/htIz/0buuLPR9J3zIXJNSG24MQZcdDvaztgfwdK59phKQyO81kHVjEoJwSdzjS0MGTqIpmaIppZqX/0KgqXzDbnQix5VpeW/P0WPR0RxMEusx4oaNVKFe6GRfmAtYwigMnUy2r59F4JVS3Q/wx1BBehajsLdf4BIp9F8xm8hhEBm/BeR2mIC/A9ejmDAS6P59CuQ3mZnAALBJx+j/ZfHo/LOC2FoRPVPloF8GypvPm2sgYjSkgH8OW+j8v4r1gHhb5YYyobQ2nwCqyfEx5QpKlW2WhgeECyae2L+7mt/0XjsmeqzyjR5AAJ9u7D06pM5ueqTgxUj3X+lcBSoRUOqa5uXRM/pgpMy/FN0hiIkClBhRDQzQiXCz1VdA0M3lLSTtpEB2DwoGw7HTMSg/a+dextsgpYf/hHIVOM/QfsKdFx0IgqP3ASgYvJiGAAAv4D8nVeg648/hqxUPQFv483RfPoVADxjexIxmapdAbkjJZme1fNRmwn6zJVaaBYMvqVQ5xEMriC5dK9jDH/2m5CrlkRjNYSHSAGFx/+OYNXyqqx4XtXLlVGMzIR90LD/16v53R3ovPoMVGa8EN7wAXMOSB8MfEtSckHbFvn1cGGhZ+PC1z3N055sL2IEq5YOLUx+5DhEfxgHqHlY+qLw37u3k13tI4UaJMsAUbdcnWurSr0kQN96pTJkaFliVUB4cDx9rkcBgO8bAUX6UKj57p+JEekPw+EfIYw8t0UwXJj1YFAvQdT+5445A6mNx1YLyyV0/+V8lF5+xLRgSf3wJAoP34jCQ7dUFxCAhi99Benxe+iFa2uqEQdhfKNzQmiV0qX9Y3WU73xDdwAAIABJREFUrFCr6sLgvLTCWV8YRr/tGLKzHcHCOWHooHVg6Lkp4nQDGo89A6KpBQBQfOrfKL34iOZDMahBkrwTJNlkzugH65vqlKDy5MDgZZSkVzGEhL9g9rdgeSVHJb0l9BfN3Vv6hSalGPT6IGCSHa2JTzzVwKpcIPLL0IZHIk3tTbeTVePux2zJRFiFY9D2q3YhVCA27zHuqXh6tAxDLIbumgS8oZsgd8DX9SCVXn0Kxcf/FlLV+l9PPwAf+TuuQHaPI5AatjGQzqDx2NPRMW1SKCx+rY4Ps8OBBHwYHrU++mH/AUCynw7QH1cUVVrNluaDHKnASgCZHNKjtoW38RiIhmZASgRtn8CfOwPB0o8BSFMJ6P5W2yEaW5DaYmL1dr+Xgsy3w//wHfgLZ0HKwKA3Ximh7WKyq+sIMr6sH0LK6vNSqFaUq1YYGACQ3nQcMjvtCwEgKBWQv+O3ENI3ZCCyA6FtQ9g2TSKEfR3SuSNGzjB4SjHGYBhKRjK63sIAIFcumdh122Xjm7993gzWM/OxhmDxvH3CVcXapyaHcdD9kOQozDKrEqj9s/2Ely6zdJQ7GNzDMbwrCwYN/OlGwmwzT3HekxO3Dgyq0DM7HwSvdvscpQK6/3E1ZDlvxhDIYorrhwQQfPIRSk/9C43H/wgQApmJ+8AbNhpy6Vykxu2K1gv/VqP3qnciASCTQetFd0AW89a+inQGItdcvcjmMPjGyZCBr8tLz96HruvPhUgJtP7mXqTGjAcAdF37E5SmPGB4JqEge0htNh6NR38fDXsfBTF4w5piIGPuV1CZ+TY6rzwN/gevRcbOG745Go8/B7n9j4MYMCQ0IhCQ0kdl5lvI33EVis/fD1SKkXiQoX+IgPGxpV4x7QcaGpDaaGOotyoqs6aZGBLI7HEERK4ZUkqU3/gf/PkzIVKmsdYYFi9O73oULp8bx7mRKaN9cGHw5NBXvYIhi52DilMe2R8AV1hA7Ul35P/7zyGdV50x2sZLkJnV2z+QgSVlgGm9qNKytU5/K6uWZ/2EDdXWbLLiPBwNRTFUnjQVqRZaZsVsyfYog8s9j8PQE+ulkN1lf01R+Xgm/OlTDG/TOck2jFql0ouPInfM6fCyOXitg5AeNxGlpXMhsjmkN93S0i8P3oYb1zWmgEBq47GGV1sZvKEu9TbcBOlNt6zyaawpOcnamc4hd8yZaDrxXIjWweYYhY2CTKWRHrcjUmO3hT/zNcPzz+56ZPUh1eGbmYOimXhIbzURrRf+Hen7/4LuP/8MqOT1uHFrr5QWNcTakyIKTM+2BDIT94U3bBQgBCofToc/Z3rITwBACtkv7K+bV3r+IQhyt057mIb7ZMq65ELEkvZ0ePcpATXenK8FgypT4WhP72AECJYuPKz87ivXZT73BfXr0eaT7oXH7xiJSnlkZIEQayjI4mDGx/BmjNdzyDXf1kGVU0Zc09X4UssTCli4WGzfrNLXFIMoL5vF5LG7uE/OGBg82JaAoV9eFoBoaEFq88/rGSu/+RxkqRBaYMuCicNQtP5H70Ou/ATYaBSQSiO95Q4oTboPMt+B8ju1u0peCunNx0NkGyCDoFqnu8PeyWwO6bHbQqRSkIGPygdTAb+si/2Fc53jo8Yl7EIKzadcisbjfgCRrjr5QecqFF9+svpdsfZlEJkGpMZsi8zO+yE9ZttQZmp9zux0MFovugOiuRUCEv7KZSg9ex8q774GWSkiNWI0snsfjfSW20OkM2g8+vsIli9B/vZLIUhIV3B5U6dc0AmdeoYwPXYCms+8qqpYSwXkb7scstRleBKisaX6lLwQ1XF79/UaTwFvxOZIb7cbUsO3ADwPsqsNlQ/fRuWdV4DuVUY7QZpiXnsQIrzZL4MK6QTMc6p4YgyhsTUWjJY6KHS9rC0MCciuVeMLj/xtEwBzYXuX0GtsmSCLXS1AVJvSx+slWWjGwlYkxupkp2oClRKzaGntaal6MiozNMV9x0opTFuzlNKIxLfcOikkkfbnvyLYcRhqgiQgWgYitcFwPfeVd1+vTg8VBEvnXRjaancsR7BiCVIbjYIQAqmRYwABVGa9gVVn7FOlzbVi0K2vVLejlTI6rzkblbcmWy25t8kWGPTXyRBNrUC5hPZzj4ZctSQkCCr6OR/ruKl/EsgdcRIajzsTIp2ubpPeeh6dv/sBgo/eCRdcrTeicSCyux2GoH2ZZu5tNAYtP7seorkVkBKlaVPQefn3EMx/V8erACB/z3VoPu0K5L58MuB5aDrhxyg9ey/8Be+FtpMvKmqkgWq8TxtbAdHQhNSmn0N232PQePi3IQYPgywX0X3jxShOusfYLQhU45PKg5Rd7QiWfgQ0DULzyRcjd8DxEAOH6FfMAADlEvyFc9D9j6tQfPzv+tkvQzmgJnupDFp/cRNkuVztROAjaF8Gf867KL34KMpvTQIqBcOb5DcujPVOFIe6aabqUA8Uio/SB1TZrAUMme8Y7i+cOx7APLAfYU0DQLB86dYI/KjlqaHq+aSuHJlkQ0iVFRJGFcNIWbUPSVyQdD1qBcnWjD7QGflqAm0aFU6mSHjMgvI22saC/eq8RxgIlX6qZYi+ewQAwaK55qDxfoh4DM2/XESwbJFupxgwCELUvOtKd1WA0mmzw5USUOkOMRS2BHm1piZllUKVVrVTsP7xcasJpjdyczSddGH16XopUXrxMXRc9A3I7rYwzKCFXwL5NhSfvlOPn4SH5m/9Aqnhm6EaM5qKjvO/Fj4oTD25rpXouu4cpEZticwOX4JoHojcV09F1x/Ptv9WFJFLIQBZAVp+fjMy2+wEpDO1l5Q3qCptISAL3Si/OQndN12E8tRnjblSht4bsVmVVsrqe5ciiwFX3I3MhD2rhH6l+hiKlwJSaSDbgNRmW6P1Z39FetyO6L7ux5Cl7nC7SuXT85Aas405zkJA7nwAGo89E/7HH6D7hgtQev4/AMoRWZT0nCkkutaZg0mYGAervK8OBvwyguVLvgTgUbD3CtMAPH/J3K2AcCEYSoZYG8MQMYWiKhgxL4QeQMiQeAFE22qPiAoM6WCMfrPGW2wYmidro22fHseb5vN4Tz0YxtazqUXZjSq/ro5w/MlY0bpJGACAQELmu0PFnmuqLgo/MD7CqPqimkOciTADdlqjgs2bNCpWaXKHfgfe0BGAEPAXz0PnH35YVVaWfuqqBCO18ZbI7nlElaBURPdNFyNYscDA0LInAFnoQOHBm5HZfg/ASyGz834QuRbIYqfVs9L9qHUyNWIM0ltsF+mO9CuoTH8JhYdugb9gFgABUXMXqMfgDRoaykq+C00nXYDMhD0RLF2A4tP3oPzWs5CdKyBaBiOz/V5oOODr8IaOhEil0PiVUxAsXYj87ZfW5KyG3bUKwbKFQKUEWSrWgFLwmgcAA4cAqQyEJ5DebBxaL7od3bf/Ft23XgwBX68JwfoMLlMI+6HGlq5z4+Fulc3W9ppgyM4VXyxOeSTbsNth9CHSIF1667mmjktPHkuDvNxKGIF0pQBCzLCRtfqGe8d5kTqGN0MGw+g8UTg01RPD4hi0jXTwJEh7TRhnANr2Hle9GLpxEhApz+ycJDNpkurKcRhGXRmEnme5BNS2S9Si0bZrCLLorFsRmmyKxZKkRG17d4jOKD5xJ4IFH2jPPjL+zFJKAJkJe1WVAIDyxzNRevUJE4Mav1qqvP86ZFc7ROtgpDYYAW/DjeEveN+KwfvhL5qDyqwhVe8nnYFoGgCvdTCQbUBmp32R2XEfBIs/qr5bec+1kMUu07NoadVzkBo5BqnNxqHy7qvouPRk+B9NByD1eilNfhCFh25F66//ifTY8YBIoekb56D4339CLpmtB6nz0u9A+hIoF6vvykoJeB685oFIbTYODfsdh4b9jgVyTUA6i6YTz4U/fzaKT/wtNMyCjBVxEuicsktjrNTapGuM0q8phiwWxxWe/FcTgAJoDKvywVueLBSawMBd2w4lVNavOFBrzxqk20O8pjAzHAiaZ7xzKKPKhN/RiltMNqUX6adqiy6zf++dfwfLfH2nDgyERkCWS0AQQNY+GSOaWvQYGeNElF0chjEfucZwy5zvhgyktm6URcTDYnProqVjZlhKMi76GoA3bGOkNt68mlEqoPTc/abVJX2OeLs1oUpvsxNQ9WVQeedVoFSB8Bqi4yHCMZSdnZCFbngDhgC5JngbbIRg/vuJ/RApoOv3Z1Y9YCGAlAeRbYAYPByZbb6IhsNOrL6OM3IMmk+5BOmx49Fx+cmAXwjnqvalDQAQLYMQtC1D+4UnIFg0Mxp28QD/43fQedn/w8DrnoLINVe3sQd/E923XqQnIvjko2o16q0IIOhaAX/JHJRffRKFp+9B6wW3whs4FEin0XTSBSi/+CiCjqXOPmuHhYwBx9DVmH7QcyQQO671YsjOFUNRLg4BsIKySpffmtyEwB8djqrJjDYk0lDSVv6dq4imYgJp483pDa1LOwwYCgMsL5IcGFwhRMpjMOK+1pCIQSe+cxVkpQSvoRESqH6M8B2ElkHj1tcPveC9BogNhuvKcsUS6NdpGG/OS89xDJ1uP0IF55zLWlFqxOb6dx/9rg7482cZGHQrQfuklYiXhTdycy2AuQOORXaPw+IbWOu/N6Aa+EY6A9HYovvKMajRhkA1TkflvwsIVi6G/+FbKDxyM3JHn6FfgG448P9Q+XAG8ndcFn5ptVQK5UNK5O+6BsHCmeZ8kjEQACofvI7S5IfRcMDXASmR2eUA4NaLDIMUURiEl5Q+yq88gs7ffh8DLrq9+rN2w0chs+shKD75d1O/MGzUgSEJna0f1i1fTzGKeXgDNtgOwKxaaQDA8/xFH6ZlOd+kYqnWZLPotEwPlOldKZ5SkgayRSDZiZYV5YHQiVC8y0UW6I5fVdp7kKSNfHEJRF7NobzpqzhxZfVg0IUp25dX38ivVU7V3uTX7SYTS79+EYsBwGsZjNSQ4VAPNPofzzTqmtaSjCXgjOdFaCVZaxJO8dFNGzC0qjxl9cVuWSCPUCiBJspCzb+WYy8Fr6mlplRk9en2IcOQGjIM3uAN4Q3e0HqeGrxh+HE8o0FRDN0PYY6VHnNBDXYZhXuuQf7u6/SANR53RvWrsGreuju0fMjAR+mFx0LDa8MQAGQF5Vef1jxTI8ZANLaaoQCYi572A6i2sfzSoyi/93rVuKbSyHx+d6idi+4zXWfkmIghiZyw8ZFrAQMAyjPfHE9mq/qku798CVC2vRwdaj/DZaeWnCeBSCBO5WkPgC0Ww/mgC1UQIQIlAuCXI16N9S4hw1DndJANC8GqRgPq9nMbXt0YXe3wF8yGN2wTAKgFh9MALM/T0HF0YCj2qVFbQQwZDiEEgmIelQ/eqI6pMeAxbbc3113HNl88ZcjHQWoSruuQ9tMvdRD9ZWIKgcq8DxAs+shSGpOC6tc8VRM4Br/RUSUk5UyWJQIUH74FjUd8F96AIfAGDkV63E4ov/YEBIBgxdJQLot5yJULkzEA+Is/AgIfIpUGGnIQDU1AsSPEJ4qD1gNCnrLYjcqM15D5/G4AAG9E9bUl44u0hF6d9wSDx6gUYWQn1lMMDwg62jYFS+nGPY4cnn/oRiNQDj6YiiGTCyVcRgOFWV93UNW3LTCFSxc265wQlJ/7B06NdwlhYpgjQiaWtKGeBcpTRHklYBjeTaWA8puTkNnhSwCA9Objkd5ie1Rmvm4oOrrfj8NQ45XZ9VCIhhwkgGDFJ6jMnhZ130n7Xf22KQoutAo8Irg8FfKah2huhcg2AqVOwyvQVlwJMx2rIIAsdGv84jP3ovvmi+2PKMSl2rNNNgyjH3Ss1DywMYcEgmWLECxdWI2RpVJIjRiDcq2Kv+gjSBlACA/wUrVvwrsx9Pz6JTbZ5lkk/kPKaJ5sXxmGLrKNEMKDlOErVbb56gmG1SDz5bA6GBLwmgeMg/mku+eJEWNG68+KRPmGTJ2FZFxVYuA2RUYBqWLTR2nS27YoibEjhsG9REpi66OLv/1VHGnwjsWQMCa2NPlByK5VVbrGFuSOOQP66WVugRP6ISXgDR2FhgOP1wNXeuFhyI7lJr+YRDFi6ckwGHUcKVg6D6h9I140D4Q3bFRke0qngYcPEJTgfzJfX3ojNgP8IkTA/mx59A+BE8PV90geVVxBUPuoYrQfwZK5CNSWvyEHMXSTWAydn2sNt7HFPGSxO1kZkDZpA9ncqsVNdrdDMu9KF9LrHmDwdaZo1hhDALJ9FcB+RcejP8FBeVraaFxQTL0YgYgA8sQbZriWxMPjrqZbmUa/BGokbqX54MUxh6mc4j4pwz+7EochybUQgD/7bZRefVqXN+x7LDK7HmYqadZGJ4ZIofGEn4XfIi92o3Dvn6PKhNR1xQBtGDzeVS9PAcBfOAfBiiXVeW1oRHbXQyLCHN1yUf4B/FnTobaTmW12rv74BcG3yR/vRyyGrWNssdH6UqL6YcPWIdWMIIC/9GM9x7LQicqMV6rjITxkd96v+nSJC6N2TG+9Q/V1HQD+wtmQ+Y7Q2NF+kHNDXCSqD6FuvYMeL3/+h1XlKlk/6Hj1FMO2dohRXjMMuQXIIw36n3XCBDvl3ilbTBLMFVUk0myQLpPhkbIzPm1C68Z4P/QxgzgMpbwohrS0z4bDH2Xgj1JI0pEkDMEmVPpl5G+/ArKjDRACIteE5rN+h/SWO4bBTFlPPwRyh52Exi+frNtXeOgW+PNmmJ+rVuNrGUs6gFZX3hh3c57oTQvbNjlYsQjl6bVfJhceGo74LrwhI61etWojxQCA8tRJkIUuCCHgjdgM2b2+Eo5NbWEY80llUiZj6AUj2VjFYKQn7KW/eiHznfBnvk0wAhSfuU/TNhx6IkTjQPt81PiL3EA07H2UJii/+gx4UsadxhvplloCyGzzRWQ+t1N1Lvwyym9P0muV9oOPSb0Yut30WpWvDYxKcSiqHpZ+PceTK5cuFsIzvBkwBoYCU/m0YSrZ3DLi5lIlZri/EsZjEepa09DOSlR/aQRESZDzyAf8mIKVNd7cm4t2xp5cD6pyDysOgy8WAaDy/qvovv03mldq5BgMuPRuZCbsVx0PRMdC/5CHBESmEY3fOA/NZ10NpDOQUqLy/hvovvXXEF44j8axzuQaFoWt7pwl8gwqKDx4M2Sh+kpPerNxaPr+5RDZpuhYUQx4QENTzRudisqM2mdm0lk0ffeXSG0avp7CjbnqgBRpNOz79WoQ24ZBFG5mwj7wRmwZyiLhbWBIwNtoLJpP+VX4Qx4v/1f/mITCKL/0KPwF1Qc/UyPHoOm7FwDSs86H9FH9IZEttqsuh3wXio/frhe+GLE5pPR0LNS1e/A22BTNZ14F0TwAEkDl41kov/Z0xNGxjheI7LowlIdK26/klAjMGmGU9M1A/XqO5y+cuwJeKuJFGQpJEKEVBlnYEGYp6OKijdMLT/GgPZLhtW2R6HrkJ74MpVUpw1/wISofTovWE2a/BMUjfasnxX56pV4MOkkCEJDI/+vq6k9s1T5QmBo5BgOvfgitP78Fqa13AbItkCIDKVKASAOpBniDhqPhgBMx8M+T0Py9X+lnjPyPZ6LjV9+GbP+kOjaA8ZE92yMcik61Sc197LBQQYN93iht+fX/ovjEP/TA5A46Aa2X3ovU6O0BLxvKoRQQqQakxmyP1gv/gcxOB1UxSt3o/vvlCPLVYH1q480x4KqHkd39q0C6CbLWsaqX4QENrUhPPBADf/c4ms+8EoCIyh/rR2b8rhh4wwto+s5FEBuOhvSy1d9Y1G3zgIYWZHb/KgZe9zRSm2wBoPpTWt03/BIQ4Ws0QgBB22J033ElUC4BQqDx2NPRdMrlQPMQDSwhgNwANH7jp2g+6UIIz4MMAuTvugb+otl6fTSddBEG/OZBpLfbG8i0wHzj3IPINCGz8yEYeO1T4Q+MVCrovv48yPyqUAYQzq9NIwtOx8sRelNcK60tDEjjY6PVdwnLc95uRyYLFIuhFleDLYnQWrSq8ZUADszyrDEUoQ+a3gjKMwyjOlFUwarlKL/5HAqP34Hya09B5juqr3twDAoGmLeXeeNrGLYvM9CySPynDgytzOlRAAI+uv54NmRnWzXwnmuqPpB42LfRcMg34S/+CMGijyALXdV3xwZvhNQmm0O0DKSNRnnaFHT+5nvw570TYguzbdQKWmNYtH2OcTfmCeYc28alWu6j67ofwxs+CtkvHAAIgewXD/r/7X15mF3Fdeev7nuvV0kIrUhIQiBAIIMssRMQq2wcSIxxwMbbYA/ExuMl4XPGDrOEkAzGfCbBQxbHk9hAiIF4ASa2M8ZgtgFsCxCLhSyDwLIEUktobam3t9yaP+6tur86Vfe9btFP/Zjv1fd1v3urTp3fqVOnTp2qu6Fj+VmorH0a1fXPQw/uQ9Q7JXkP1tHLoTq6MPLw9207Ks8+iME7voLeq64DiiUU5i7ElBu/h+pvXkJ17SrEO/qgogjR3MNRXHwiCnOPSPaDdm61TXMiJ9EOAChMnYGeK/8M3R/+AqrrX0DttTXQe7YDSiGafRiKx5yEwvwjYZ4r0jv7sO/GT6L2xq8ztdEkXf7xHRh+x6nouujjyeMyH/vP6Dr/UpRXP4x4Rx+iqTNRWnYWCgsWA0pBxzFGHrsPQ9++Cak7S9ofFdBxxoXoOP09qL2+Pvk82JbfAFpDzZiD0jEno3D4sYAqJAKUhzFw2w0oP/m/M0fj9EfWx84+MtkL2y8vr+sdjwdGKBULsw5Dbc8e6JHsJj4NuPfCGDDQWDSOxITSqXCKztnB8VLSZIqx7ZUbYbTIApC8ifK1l1B+5F6MPH4vaht/ZT2yfetEAEO2Sb4OuF7KezRHpoYY3MEgPQJQlWEM/uN/Q2XNz9FzxbXJLKkKQFRE8dBFwKGLHOfpOO6dWzH8g29h6J6/Sh6oNUrTvlGZIsuH5deuTJ4OTFQgDM+ZbALJ7lcM7cG+P/8Ieq6+EV0XfBjo7AY6u1FafhY6Tjib6FP0WhVI34SaYOhkINeq6PnYF6GmTAOUQmnR8SgtOt6ta3gND2D40XuBOHt/szeZpO2Id2+HrowApS6o7l50LD0DWHqG15hkUMaovPQLDPzdn6K65gkqFxjVEQzceg1Qq6Drok8kjvbQI9Cdvggx0WtaqTyC4f9zJwb+4b8km+1W+bBXWRFFKB62GMXDFjuTZ/KbCBBv2YDB227A8AN3eAONHaocX9Kh60C+Y0vCrsYLI30pgPu2htIR7xiu/WbdZq0x14ZowqDBAoKMWcHuXdhBSV7cmaBZspAzCnhiuZzSKZ/KL59CZdVPUX76weRSebWaRSnCWUoM7+OwObRJef7oC0Vcpp2jwjAzC+nN8o6rKD95PyrPPYLSiSvRed6lKC45GYWZhwKlzgyzVoXesxPVV3+J8lP/jvIT/4Za32vWccuImVMS7FRR/sVDiKbOTHntyAYu3IlGD+1D+ckfJy/7q5aTAZ2DUXnuCcTbtgAA4jc3Z+2j2TTeux0Dt3wGIw/dja7fuxKlE85GNG128pBx2rZ417bkjQj/ficqqx9yl3KoYuier6Ly9IPouviT6Dj1XYhmzU++1Wj0MzyA2huvobL6UYw8eDdqv34GyT1Roi+oHQAw8sA/o7ZlQ/Kl66W/k9zUm+pda53cfLrrTVTXPYuRn9yN8s9/BD24J+s/IIwx1I+BWz6P8s8eQPf7P4XiklNtdKzjGHrvTlTW/ALD3/97VJ59CLpW9rYTBm//H4h3v4mOU9+dvOOssxtAKpfWiAf6UdvwK4w8eh9GHv5XxNs2glxh1lemvQreOPcuBMik4I9bSuOFkbTN/QiFGnnsvin7bv2TJ+O+V49zXgPDFQHP39hfHS6US0TnwWivhb5jkl6ZHSVUhGjOkSidcRE6Tj4fqtSJ2vYtiLf+FvGWjaj1bUL85iboPdugBweSdw7FNSjUPHypcB0D3R/6Ano/89W0XDgk+JGNOd97/Ucx8tBdtoOCkSFjiagzqFsAQATV0QU1ZTqiKeljJjqGHtqLeHcf9NAgoOk+IIFP2X5/gR9ZqfmTjBOiFqiwloX+HgZ9u0rFFMIIOex5AejuQTRtLlR3cpuCHupHvHNzskFvv5oRaIdO9dPZjWjaHKieqYBS0NUR6N3boPftSt5oQNO5bT4NJs8uUztTpVTvk2ekzlQnr3fZvRUYHoTW9EQC6SoXw/R5VISafDCiaYcChRJ0ZRh6xxvQA/0JT6kvrguVONBJB0NNmQlVSh7+1uUh6N190Pv6oeNyoGPy2ysxQkYbcg9OxjhjFGYdtWb6va+8M81KPqTaseCYQV0ub9DAcSpUM61tZw06lvtNdraVQoqOdKI0+Dy8D60Sn+Q3Rrz5ZQx/52WM3Pf3KC45DZ0XfARdF3wE0cx52Sw9tA96zw7EO7Yi3rEZtS0bEG99PXFoO9+A3vUm9MDe5Ka8yhB0rZLIQJrOu7/LDcHZefn9B7i64gsQUuXsH2y5iqHLg9DbB6F3bGJVubgWLDwDanGe9FfNNUQx4bhCug7fW+ZbDPejvRrInq0jnlm9GjC8F/HmXzt8OeW2QwFADD0ygHjLeqfc6DwvCjDEQV0pQCEGKoPQOwZR27HJsW2WIayrBhi6irj/Teh+8fYEw0ZEf8rhr4HqMPTuLclfA325jNND7o8ght+W3MleDtTxwih17Ea2HEyWhOrwY6s7rjipDzs2ZQ4nMHKywUPZTK9cY2QhzC9v5psRq7jc1En/SQdp5SI5dHUElRcfQ+WFxxAdfAhKJ5yLznPej9IJZ0MdNAOqe1LykQK5gVOrQg8NQA/sge7fhdrOLYj7NiHethmFo5am7ct/42i9PJ5deWlrZ1vRLqkr32P5BpiH4SQtJhUuosEccjwh2iBNG2NcMVIyp74XiQseDj8a9JLOs68Wx1A9vea+BueNoyjOW/RS7RX6hJJxKBw1BZSpq9DMAAAa70lEQVQP6kTbSXC9pIk45MzEwmvCcWTQCG6MWgxxrPf0YeThu1F+9LuIDjkcpdN+F53nX4bSsScnX1RG5lx0oZh8pn3yVOjZC1BUy9zmiT0qc5x3tVDqxUlCR86kQNUcWqNM+LoKzlIBDJufkiuhZ6cPSS62gXpRQhuj+RimjimGwGCb4HHHY8oZb4TT0hgaiPu3ryE4++XnqLZ5/SrV0W1XQ2aD1L4tVCqVBaZjM4b44w8OjRGQHSDRKuGADC9ng87ogvEYQAE6rqK2+RUM33sr+j+/EruuPAWDd96E2huvQlerwahJ3ngq8+QVQk2N0HEMPTJkv+nnck8yHB1yEedJJ4SsM12B8zHcdsEuPa3uzKBAZkwhH+s4TpKtjdFcDDs+BC+kZTLfOg3GDDnSNJ9xWxkDGijOO4rXyzbCijvP/UDf0Jabt2Hv0Cz2AsbhGEU7AEZwZDMCSOjQU+3K1NduPWdZSFgGw+n3AB8QjXPHvAIQj6C24UUMfuNFDN32FygefyY633U5Ok55F6IZc+jOZ2V/c29d4CXiyBBq27egunYVKs/8FJXnHkfc96ojrCJd8rldwnEZdzznI1CHksRgPWZKJJUE+o95OXWFDJzaGM3DCH4o13g6wvAidmFLIdvA2wRDQ6F49PIXgQcA8ZkvdJx09uah7//t63ovZnm8ZceQUKF8TeXCp7h1NHWSyvCcGczQU+uYzhzYT10ZviGMCNCVIVRWP4jKsw8imnYoSiefj85z/wClpb8DNWV6qjyVKk/c2xLHiHdtQ+21NSg/9ziqLzyO6vpfQu/b6TgkL2IiR+S0i9tJ7eOlolw6mrbUwyBW4XyeLDjf6DLEp15ZG2P8MXgQEs+8XyXzOQVsxXHALYqheqegtuW3vCQEkO5hlZacNrzrk2etirdvOkHiB/deQA4ICH5k1fIhr+q0UzRc3nDqeHSdKkEJfJIhpDsPw/CNgHjXGxj5yT+j/NN7EM05Ah2nX4jOlR9A8ejlQLEEKAVdGUFt4yuoPP84ys88guqvn4be2Zfcg5TKoiJk4TBhZNMHdZ4OnIuk6YBnrzFhwO0LSc+TQGgfxZmEBL82RnMxeLIySQHZcoyg5Dc+LUszJsTYNdhW3BbGiCZP2xzNPWx3SmY23ZMvPwOAjtQjKHRcjVrZgmrmbCVwmSsF54X/RkgWWonGWCfH+awI4cmtHOacPTIXsfICGBafHUWtjPj1dRj67joM3/91FBa+Ax1nX4J4xxZUnn0Ecd8G6MqgU8k4KYMBo/QcDKdzbIOytnoyMQ81NgzLnnSoiV7xMU0kDr8AjtGjamM0HyNkE9JmiK9mGrYbGjOOk9SBdrQaBvTqnnMu3gd8BaC73e07a3sv/fQT/V9evV3XyjOcKIaAPQeBzNF40ReygWbrcLmg5eQMcEU0po7OqWMEU/UxnGhHE0Z1CLX1z2Dw5WeyzpC8iYdmLIGTi4GMr+N0HevefwyrH2E0TjukTtj4SC4Nd+BxpTZG8zDYJqw5mPpayAOBSY7UMxpyHq2MoTVQPGzJ84Ulp5u7oe2NfcZzxZ0rL98czVn0shWEPBIzDviKTFCvdfAe2fEY8Uxl/vIwmL/Bo3qOAhtg2HyS2yo6ypwwuMx6Z3IQAZ6jwUDgfDwwWH/yg6lSL7a+It1rZEtz2RG6jdFsDPmniCZU126bEAbLyRgKGY9WxlCdvUBP72M+lXgbdjR99netol05HIGsY5CzSFrGncvLGW4ER0NGCY5HFoPQUQAyJWhWEBpgGJmM7DRLchjuOJEQhuGhs+Ng+QRgWH+niTEyfbBTNPyNkXGERl3YxjiAGMzfTlZw8S09yCGqDIP5aIkl+LccBgD0TN7YsezMtRBvGwUQs8OKei77T/errklV9oByLe7M6to9tEIYAci5OJ+3Mg2gwWs7lTuROxykJGQy8BpZIRMkhEHieZGOyXeWoIBzv5eh86IbNsIJxrA8hDNTglZGCDrFUZKHqRfAaWOMP4Y9t//8xBje9gKda/gyMt9WxNAAooNmPtV9+oV9gjwCENlndADEnSsu3hDNWvBDb9li/jneAo7yOV96V9tgUddcXWR2Ni80QEk7VnGsRAX3xXQCg4sQyLMKZHnJIRoaJXUgneYEYmhzIgaUc9MfsmM7GaT1TH1LRrqVEV4bY/wxjBnwmLLOTfl/3nIrO0zqsSyBibHVMFRUigvzj3hQzT8KItk73Z1UOGzxt80T/HbgKOoo8ohK1NXwZwpuhBK0zkCV0YjK/kzF4IdE2Rg03BfTSYwAnkaG4TkCOcMI+azRGvoWwOCIU0I5RiWsSks5GFe75W2M5mHILYO8p004OpHseetByTxqQ8thaACdvX2dZ73/hylFLH6dl2MlX6WYOuOhaNqcDaxQb5AZRROoArL3sFMDQHwkPZhe0LCGdF4d1iIrJo8emZe356wsS+DPFN6yTGfkQi0TimHpjcEwe55MeGDRgPFwtYvbxmgyhrFXHns8jiSGgvfNT1tEdmbzhDNtJQwAKMw5/NHui67YBvoWIf3GXoTVfenn+gsLFt+rSYGO59TCgRAYTDnEOXUKOzNNv6Y9dhNPdrD03IDjCE0Zi+NhpEqXG4UchzMf5PEng3X+WgDDHFu9hfqLktURwv3MvNge2hjNwXBwtK0SxjD5fC7xHcY0HloQAyjEHSeff6dQhxNlRXQSA0DpqKWIZs39OzV5+nbDh9fWNjlTPXUklwHu54x4sJL3ZV7OAFfIQmdutMp4WXrGzMNQvozmWAXqs5GxbNq0i/6cfbQJxJDJ20M09VlnrH9Bx/nOhmsboykYzjgz9gB4e7PSpmQ9thW2GQe/hTAAoDDrsLWTPn/zT4gioj8g3XQHxF7WQdfduaEwZ9E9QPaFEadPVHLMM4ViQU3LVJYPUVfygoaz4Z6LAaI3POzohbMszcUA/RKGFvmWp4J3MYBlcGx5gjHsvoLhRRjB+ggc0+wjebUxmothxwz9gcaEw4vsxMqT2pHFJwxjRBotiKEVCkce/4+ZZrJ7RCH2sADx3mQAKJ109tdV1+Ttzjqbks1KpWE66+Q0+a5UMA3iRx3No5I9urOxyY5JZcpy6NAAA5kchqcnb1rHmSVk+1knmto/wRimWDOPwEDh/nNejU0WZjeNSYw2RnMxnKc4UloDY+ycx5Tpf2sLAt9JKU3LYQCIZszbXDr2xLvg+qJIHnt7WCZN/uxX1xbmHX0XCy0dA/kYPwzUcF6+52zKGYdEQgd8YpLPHWycIwnAymQ+QQwyMsU8dA5flk10DLdXXtadUAzSl7PPwjTI+iUDhxOu2xA+nRRA522MJmKwvabljsNgDJ31P9u491Vpz8u0FobWCsUjl95TOuH8nfCDKGfbSi4JOQxDz1V/dqOaMrvfUSoLyQ3RmVMzgjkdLTs4FTgUjVkeVNX0O2Pb+uz5WZECw8FXgobonHISnSMliymFnWCMUJL3uxlARYq1OIDXv6acxl4bo1kYxIPtRgtaZ6wFsNi5yAIzPlsFI5o5v69w1Dv/pmOZ+JRakvyvqcK/3yECgK4V791WWnLKdUDkBjlmZldZHr+xgd8SaveTzLnpLPa06bmpZ/m4bcvwDT/t5hll5WHw/piRTUY6vP8ljYr38+yvcvlNNIZT5nh6oQfGJFk04Tn6V8SujXHAMMyEJG3Fib51JocJFBTVkX/eBDqBGFDFuHDokTdN/vSXNyALlsxGu1weRnlLQuvAus655PbCIUesDnlR+vHzVOBcwfuoKEcTRhGea+dE9eWsZmHzMLg+OzthMJLGaSIBWTElXYtgmPcMadatTJTpbKCaYkXYgcigjTHOGNTPPOmzLTvbK5I2dYT2qiPzIx6tghFNm7um+6L/cJenBzdZ5xW8SsjnXb//H/tLx5/xJdV9UNlRpnFI6Z/sOCd8JudlGsB+ytKy10mdW3B5lGJYTJq1eCB7GCyvcGoQtGx4di+C5LdthZCjFTBI7wpUOUCr3WrBAiV028ZoIgaNFR42zrEYTybPYpDhs32EZJ5IDESluHTiuTd0XfTx7VTL22gHfTUndJWQQ7EIAArHLHu4sODYW7UqJJ6VBpcNdUX7gmv0lNQ0nL8S7bSTMNiJqbSOJp48zvl9W0EMdqAZC88Q7RetrcBuXV62GQwrRwthJEpxjcgbS2kl3kg1DLT2z9sYTcZI8wyGAvEKYaQMmE9ofEjMicbQMVBcfMq/9bzvqu8hcJdCmtgPZV/NySG2qffya+LuCz9+UzRr4VOpjNYpsPTSR3GU43lrKrN8jFLMYIZfP/RmAxXIz8NwZg7iKes55wF+EoP10SoY1oooXxG9MUTDL6+vuG4bo8kY2rV/D48xcsaJwdaa7EmL8gnGiKYesrnznIv/qPTOFYYr71s5916BXpEsN7a40Lli2H3p1du73v2Ba9Sk6cl7lpWVzfGy1Cbn1x6bDPbe0hmRV7cdHNIm8QLXy8GwZcJBejNLCIPp5dRJjW0JDKEXy0rkyz0XmBlQCXxkM2Ubo7kY4DKd8dai3JGFz8kmePXj/U4kRqm7Wlp+zn/vuegTr4OcEdUK3b0A5N3pjpwQbdLVN64qLTv7WkQddlCxjDLicoS20mbnihun3Wq8QefEoTnHxngszwCG1xlmJkhpOPw1NM4SFFkdJ1HGRGPwRqhclgSdPohOYPAVIsO/jdFcDDOurD3nOEQVOPcwtFtX7plOCIaOUJi3+PbC/EX/og6eGQqW+BcQ21Z5e1gyz6ae933qn4pLV/ytudWBPafjODQNLAX3Fcmmc0WevfzJsxMl5+qfosnLKIRoghjMMmdmkJvYitsl5Tc8RflEYhhfLUN57ifmyTJJI7U0YvJoYzQPg28NMH1ul1JaYKTH5o8xnEmRMGy1CcAAgOiQI1Z1f+BzX5p09Q1lhC/2eW8ZBTkyuYcVWiI6jDpOvyAuLT/z2uLCpfdrFXmRkKKOAGCft1LIGmdaZ08D+TwOzWAOjH3XaLRbJ4ihRL526WUYbJvGs4jEMB3YAhhmT0EzDicqd1hpMi4hn3JP2xhNxJDOiz0B+UyPBwIYzMO8HkZG9wcSQ02a0de54r1/2P3eK3cK7rwsDEVZNuUtBetuxE+66vp9Xb//iWsKs49YFZppMq1nA8yJxFJP4yknzbO0xJhnJcbgPMebhzCE4+Qw19RnPKddyj9UKpA/wRjOPkhqKN44MTMfyePIZYxY5LUxDgAG8xX1nCy2ixCtItlk/gHG0BpQ3VPLHSsuvmLyH//1i/CDJHlnQm7klRdRhdaWzuZYzwf/aGP3uy+/LJo693nHaSm4r0UBnZs2aV85rAtPRwFDMctGhwcpK4ShzT+aDa0hKtfAtOBpRZFCazg8JxxD8lD5vL09x4BsvDfTxpgADHOo3Lpa0igXgyMh62hB6UBhaECVusulpWd8prR4+UNUGnpm0LulimhiAJGiwtDDhnnMbRr411uPHrrrrx6It/92oZFYpcLy/hE7Fw6pIRqqidhzNqDBKX6NUvmejzwMKU8oSbzQLCJ5NDo/EBjSISpH8eE+cSIBouFIQOq0jXGAMDhfYMhycywnQFl+IDFQ6ok7Tlx5bWH23Jsnf/EfDHmeb5F+yPNJ0mE1rIBA2nfHV04YvudrX4/7t54Cpd2GUYucGYmckqc80dn2F74xAPA0bWjrYZBYWbnhBeJNeWFPCRsWy1l1ojAAX9dB50f6Czk9py73XxujaRiyvsw3vPKO6/E50Bgo9sSl0y782kHX3Xat6p5cRWMfU+84+HqZEJHcDON6EQBMuuJPV3eed9kHo1kLV0ErGyoqwD6k7DRKOhJRZA54fexsfBoFquTYeYf0KDCgqQOE05B7YgrUDmQOR3EdwLsaOVEYhpdZEjuOXNtqHr5xhhZf8mKjbWM0DcNW0m6+cQKMYSorovHGi8CwY6qZGABQ6C6XTv+9v06dVTktYr8R2o7yHsWBcHLCNzZMeXteAIDBu25ZMPSDb36j9ts177GeWFEjUgUpqazU6ZAeg1EEK8ZxcmklbyYQGFbx1BGOEyAZnCjHFJMTlBGQlp07QRh50amnR1Mm9GN0nxeRGhnbGE3CYBppG+6p5U8iuctPuLzsOGHa8cYAoLomDxePOfUzU6771r8UZi3gz8070ZJIec6Ly4Nvawg9fNgoRQDQ8+FrNpaWn3VJ6eT3fEdHpdg6Cx5wxqk4Hic7N3XYk9vEilVUTB7f0IUwlMFPaTUDpvW4MzTo2JsGMwwL1SIYjuEL3prOlXL1yL8yupWytTGahMH9KHjUwwCy+tKRmKpmknP4jjdG7/TtnSs/dGXpxBW3F2YtMJGVdFJ860Le6i14i4MShKE15FhSBCCu/OoXxYFvfvnqyvOPXa+Hdk+z63XpmMzgoxQa4LZAZR3unKf03v6BwPD0z/Xgd0AAPjm2xNlvS2IA7tP/yteV1GlwNg7gtzGagyFtlyNsuxJR4TIrg+CnBU1oHI0HRjTz8NVdKz/46Umf/cqqtEbeEs+Uhfa06tHnLgnzdu5D5Xkp2nvzZ88b+dkDt8RbXjlOkX/lmYYVpAB31MJViM0mZWqhwHoYTl1qvYBMjNCQkLN16PJkmmAMY1BhL+jSGxnk7O8tFaheG6O5GLYvRb87S0kt8jEKPpLHOGFoDahiJwoLj7u/810f/HTvR7/YB98ZhX5NGk25SRGJn2UGCLmsUeTlgA3cdsOM8lM/urG6/oWrdHnAeneTvPUv4BIAmXLoWIliNgzpHDynV8d4NNXLjf5ohrLVWwSDw/jcvRKQcwzgK4ml/LI2RnMw7OTKDkdOSNzXZiyEZGQ+Rp4UC3jrGFoDqufg3aUlp13fec77/lf3JZ8aTDnXi5oa3S4VirxsWZ7DGstysN7jPDGAaOj+b0SVtc++r/zzB66Pd2xcAmi30aaGyhQE0dFW9zorYkdHLJCSeRiWtXKNyZuBtHtuDUo4HnYarYLhGC1hOPqhPBkhyH0LJfLbGM3FMJlykso7Ng6G5XMudBGuOZblY8VI8guI5h71cHHZis/1XPKH60rHngKRGm2uBzfVc+htvpG53v7VeJwDQDzysx9NG7zj5i9U1z93tR7aPY07lD27Mzsp6viAsXiznhZ5NCvwWt76RO4IOP2a6zQ1EXqT5gRjMK8QhheVCT2GNn+l0bYxmovhRWKinjNemEcO/XhhJDYZIZp6yLbS0jNuPOjL3/0aVR+LA+IU2rfKox+XCCsEGvq1ad/Xr11afvrh62sb171HD+7pUhG8DpbLqKDxKPidL+k56UC+4BdcbuXIFJo9WwHDqoBoPEcu6wXyHWzm0cY4sBh5uEzCjqaeI8sra4ChY0BNnt5fWLjkno7l59w46eq/3JAWyX2nRg6pUSRV9+ZRhTFESKOglYLmlpV/9uPi0AN3nVRd//wX4i0b3q+H+qFCzchLIccVGMx8dUaZegjQqECfUYadbch5ePc+YeIxgsuJ0ICScgTqh8rQxmg6Rihyk1hyq0Hmh2QL4TfE0IDqPXi4MO/o75SWnXlL78e+tCaaNivvVgSgvuPhVO9iHvNyykbjsDgveKkxh3m93X9LO/LYfcXKi08tq7z09H+tvvrCeXpg9xSzK2g7gyKTvI7gZMNZc46ww5AbiowBwH3uS+DJzVXHCCYSI6CT4ExuCf0IYBQTehvjQGFowhllvXrLPsOLl36MQVJCTZq+u3jk0u+V3nnm33QuP2tt6eSV7KjqRUtA/XHfaK8qF0M2aTS7+3kOru7u/ihoUH7yh/MG7v6fH629sf5DetfWY3RlsAMQM5GIQOqGtiEDo47y9sHSiMZ2tozWAnChyG7CMfL4hFIdQlkklzFtjCZgvIXkTWLmXIyH4P6Voe/oHY6mz11fmH/0t7sv//y3Ok+9YLtPbdNYN9D3JzW8D2sse1hjudl01MvJ2oaXJu27/abTapvWXxRv27hSD/Uv0YP9EVR4kHshrnAItpMCVsPht9ys5442kZGdkPJmsQnGcJaK7OjgHmv4ZY4o0rGiDr82xrhhqPTEeQuEoHcmPyqS/HLzSERoQPUcVFbdvWsKc4/8SWH+UT/o/t2Pri6deO4wwgGMSXX3mpDvtHKfExwNhpIZOedjSaO510LS5eKNPPGjqSOPfX9pvHPb+bXX15+mhwdPinf1TUOlnEivkDtjmA4L+IXsmB1FgEheqURaRzrBVsGQZcjJDy45Rb6X2hgHBCPIrs7EJfuf6wCZDdk9qa4eqKmH9KnOztWFhUv+ryp1Ptz97svXdax4b39atZ7jkKne9tBYb2toWEc6rNHemQqql5c/2qVk3jlEGSovPlkc+sE3JxUPXXRc5aVnjqxuWneiKpaOiwcHTtK7tnboylCEWgwoI5cOsDLWUsc62qmd3pZJA0AMBahCESh2xmrSVKjuyeuiyQf1xcMDq0tLTv1l1NOzWhc6Nneed9m+juNOrWJ0V/kbbRHtT/mYMfIirLGkRiFho/2sEJ/R0Dm4tV89XazufnNZ7eUXUXn1hWW1vg0det9u6OGhbGYqdUBNPhjR9LlQpc4kLyfSScJtDaWUFxnZyCfLSmYuuLwaRVPNw0gKvAlZJ1j2mNc2FkPQUGhhZG1jNA/DqdcAwwu3o0K5dPg71kazF5QLc+ZVi9Nnr1Pzjx1G/eWbOQYaj0emaXQLQjMxvDCs3obZWMr2d+NtvDbs3gpuIxnGQnsgMSKizTvO49/GmHgMWS7zQvzlb558eXhvG4z9WRcxg0b3V+RFbqPJD3nkRvXHQjNW2eqVv5V2NhMDyN/YDPGX9NKwRlOnjfHWMUIDut4mdqhOoz2htyWGnDXqJePtDIMQgOy8egOsEV6cg2HK6tXPwwg52zyv32hGkDStgsHH9QaB5Js3wEJlbYzmYRjbHS1GSLZ644Md5tsOIxRhjcU5hPauQsKEaBrte0leeXShlIchy6WcjQwvLzUyyAONIcuYZjSzZL2BtT+RQBtj/6OQsTjHRnXGmt+qGHVTvehgPFK9KK9R9DEeGJyfRxeqE4p83k4Yo9Up90HouI3RXAw5Bhr95tX//wJDRlj1opc8rxeqv7+pEUZelFHvfH8xmCZqcBySoVUwGkVkEmu0crUxmoOBnHJOIRlGU563wnnbYBSpkBU8Fmcl670Vh1Fv8IXWw6HUKJyuZ3yyHfVSvZmgVTDq8ZBlki5UlqfbNsb4YYxmmSgdXSM7qifb2wrj/wEWWWKQ12wnJAAAAABJRU5ErkJggg==" vertex="1" parent="1JuLaVUi7zTH-Um1_Kfr-1">
          <mxGeometry x="630" y="1520" width="180" height="116" as="geometry"/>
        </mxCell>
      </root>
    </mxGraphModel>
  </diagram>
</mxfile>
